<?xml version="1.0" encoding="utf-8"?>
<!-- Generator: Adobe Illustrator 22.0.1, SVG Export Plug-In . SVG Version: 6.00 Build 0)  -->
<svg version="1.1" id="Layer_1" xmlns="http://www.w3.org/2000/svg" xmlns:xlink="http://www.w3.org/1999/xlink" x="0px" y="0px"
	 viewBox="0 0 189 75.6" style="enable-background:new 0 0 189 75.6;" xml:space="preserve">
<style type="text/css">
	.st0{fill-rule:evenodd;clip-rule:evenodd;fill:#8CC53F;}
	.st1{fill-rule:evenodd;clip-rule:evenodd;fill:#FFFFFF;}
	.st2{fill-rule:evenodd;clip-rule:evenodd;fill:#ED2A7B;}
	.st3{fill:#FFFFFF;}
	.st4{fill-rule:evenodd;clip-rule:evenodd;fill:#39B44A;}
	.st5{fill-rule:evenodd;clip-rule:evenodd;fill:#25387B;}
	.st6{fill-rule:evenodd;clip-rule:evenodd;fill:#DE2128;}
	.st7{fill-rule:evenodd;clip-rule:evenodd;fill:#D3232B;}
</style>
<g>
	<path class="st2" d="M184,75.6H5c-2.8,0-5-2.3-5-5V5c0-2.8,2.3-5,5-5h179c2.8,0,5,2.3,5,5v65.6C189,73.4,186.8,75.6,184,75.6z"/>
	<g>
		<path class="st3" d="M48.6,22.5c-0.5-0.2-1.1-0.3-1.6-0.4c-2.4-0.3-4.6,0.2-6.8,1.2c-2.1,0.9-3.9,2.2-5.7,3.7
			c-2,1.6-4.9,1.3-6.5-0.7c-1.8-2.3-1.5-5.5,0.8-7.4c2.1-1.7,4.2-3.1,6.6-4.3c2.7-1.3,5.6-2.2,8.6-2.4c5.4-0.4,10.3,1.1,14.6,4.6
			c0.1,0.1,0.2,0.1,0.2,0.2c0.5,0.6,0.9,0.5,1.6,0.3c3.5-1.5,7.1-2.8,10.8-3.9c0.4-0.1,0.4-0.1,0.1-0.5c-0.4-0.5-0.8-1-1.2-1.5
			c-0.2-0.2-0.3-0.4-0.1-0.7c0.2-0.3,0.4-0.3,0.7-0.2c4.7,0.8,9.5,1.6,14.2,2.5c0.1,0,0.3,0.1,0.4,0.1c0.8,0.2,1,0.8,0.4,1.5
			c-0.4,0.5-0.9,1-1.3,1.5c-2.8,3.1-5.6,6.2-8.4,9.3c-0.1,0.1-0.2,0.2-0.3,0.3c-0.1,0.1-0.3,0.2-0.5,0.2c-0.2-0.1-0.3-0.2-0.3-0.5
			c0-0.4,0-0.7,0-1.1c0-0.4,0-0.8,0-1.1c0-0.4,0-0.4-0.4-0.3c-1.1,0.3-2.2,0.7-3.2,1c-1.8,0.6-3.6,1.2-5.3,1.9
			c-0.3,0.1-0.3,0.2-0.2,0.5c1.6,3.4,2.6,7,3,10.8c0.4,4.1,0.1,8.1-1.2,12c-1,3.2-2.7,6.1-5,8.6c-2.1,2.4-4.5,4.3-7.4,5.6
			c-1.9,0.9-3.9,1.5-6,1.8c-1.3,0.2-2.5,0.3-3.8,0.3c-4.5-0.1-8.6-1.5-12.2-4.4c-2.8-2.3-4.4-5.2-5.3-8.6c-1-3.9-0.4-7.7,1.1-11.4
			c1.2-2.9,3-5.4,5.1-7.7c2.8-3.1,6.1-5.5,9.6-7.7c1.5-1,3.1-1.9,4.7-2.7C48.4,22.6,48.5,22.6,48.6,22.5z M58.9,40
			c0-0.9-0.1-1.9-0.2-3c-0.4-2.4-1.1-4.8-2.2-7c-0.1-0.3-0.3-0.3-0.5-0.2c-0.6,0.3-1.2,0.6-1.7,0.9c-2.8,1.5-5.6,3.1-8.2,4.9
			c-2.3,1.7-4.5,3.6-6.2,5.9c-1.4,2-2.4,4.2-2.3,6.8c0.1,2.4,1.1,4.4,3.3,5.7c3.2,1.9,6.5,1.8,9.8,0.4c1.9-0.8,3.5-2.2,4.8-3.8
			c1.1-1.3,2-2.7,2.5-4.2C58.7,44.4,58.9,42.3,58.9,40z"/>
		<path class="st3" d="M117,43.1c-0.9,0-1.9,0-2.8,0c-0.4,0-0.5,0.1-0.4,0.5c0.3,1.2,1.4,1.8,2.7,1.7c0.7-0.1,1.4-0.3,2-0.7
			c0.5-0.3,0.9-0.5,1.5-0.4c1,0.2,1.4,1.2,0.9,2.1c-0.3,0.4-0.6,0.8-1.1,1c-2,1.1-4.2,1.3-6.3,0.4c-2.1-0.8-3.2-2.4-3.3-4.8
			c0-1-0.1-2,0.1-3c0.3-2.2,1.9-3.8,4.2-4.3c2.5-0.6,5,0.4,6.3,2.4c0.7,1.1,0.9,2.4,0.7,3.8c-0.1,0.8-0.8,1.3-1.7,1.3
			C118.9,43.1,117.9,43.1,117,43.1C117,43.1,117,43.1,117,43.1z M115.9,40.4c0.6,0,1.2,0,1.8,0c0.4,0,0.5-0.1,0.4-0.5
			c-0.2-1-1.1-1.6-2.3-1.5c-1,0-1.9,0.7-2.1,1.6c-0.1,0.3,0,0.4,0.3,0.4C114.7,40.4,115.3,40.4,115.9,40.4z"/>
		<path class="st3" d="M85.5,43.3c0,1,0,1.9,0,2.9c0,1.1-0.7,1.7-1.7,1.8c-1.7,0.1-3.3,0.2-5,0.2c-1.9,0.1-3.8-1-4.2-2.9
			c-0.3-1.7,0.3-3.2,1.9-4.1c1-0.6,2.1-0.7,3.3-0.8c0.7,0,1.3,0,2,0c0.3,0,0.4-0.1,0.4-0.4c-0.1-0.8-0.9-1.6-1.8-1.6
			c-0.7-0.1-1.3,0.1-1.8,0.5c-0.3,0.2-0.5,0.4-0.8,0.6c-0.5,0.3-1.1,0.4-1.6,0.1c-0.7-0.3-1-1-0.7-1.7c0.2-0.6,0.7-1.1,1.2-1.4
			c2.3-1.4,4.8-1.5,7.1,0.2c1.3,0.9,1.9,2.2,2,3.8C85.5,41.4,85.5,42.4,85.5,43.3z M82,44.2C82,44.2,82,44.2,82,44.2
			c0-0.3,0-0.6,0-0.9c0-0.2-0.1-0.3-0.3-0.3c-0.9,0-1.8-0.1-2.8,0.1c-0.6,0.1-1.1,0.5-1.1,1.1c0,0.6,0.3,1.2,0.9,1.3
			c0.9,0.2,1.9,0.2,2.9,0.1c0.3,0,0.4-0.2,0.4-0.5C82,44.7,82,44.5,82,44.2z"/>
		<path class="st3" d="M162.3,43.6c0,0.8,0,1.8,0,2.8c-0.1,0.9-0.7,1.6-1.6,1.6c-1.6,0.1-3.2,0.1-4.8,0.2c-1,0.1-1.9-0.1-2.8-0.5
			c-1.9-1-2.5-3.6-1.3-5.3c0.8-1,1.9-1.6,3.1-1.8c1.1-0.2,2.2-0.1,3.4-0.1c0.5,0,0.6-0.1,0.5-0.6c-0.3-1.1-1.4-1.7-2.6-1.4
			c-0.5,0.1-1,0.4-1.4,0.7c-0.5,0.4-1.1,0.6-1.7,0.5c-0.9-0.2-1.3-1.1-0.9-1.9c0.4-0.7,0.9-1.2,1.7-1.6c2.2-1.1,4.4-1,6.5,0.4
			c1.3,0.9,1.9,2.2,2,3.8C162.3,41.4,162.3,42.5,162.3,43.6z M157.2,43c-0.4,0-1,0-1.6,0.1c-0.6,0.1-1,0.6-1,1.1
			c0,0.6,0.4,1.1,1,1.2c0.9,0.2,1.9,0.2,2.9,0.1c0.2,0,0.4-0.2,0.4-0.4c0-0.6,0-1.2,0-1.8c0-0.2-0.1-0.3-0.3-0.3
			C158.1,43,157.7,43,157.2,43z"/>
		<path class="st3" d="M143.7,43.3c0,1,0,2,0,3c0,1-0.7,1.6-1.6,1.7c-1.7,0.1-3.4,0.2-5.2,0.2c-2,0.1-3.9-1.1-4.2-3.1
			c-0.3-1.8,0.6-3.3,2.5-4.1c0.9-0.4,1.8-0.5,2.7-0.5c0.7,0,1.4,0,2,0c0.3,0,0.4-0.1,0.4-0.4c-0.2-1.2-1.4-1.9-2.6-1.6
			c-0.6,0.1-1.1,0.5-1.6,0.8c-0.5,0.4-1,0.5-1.6,0.4c-0.9-0.2-1.3-1.1-0.9-2c0.3-0.6,0.7-1,1.3-1.3c2.4-1.3,4.9-1.3,7.1,0.4
			c1.2,0.9,1.7,2.1,1.8,3.6C143.7,41.3,143.7,42.3,143.7,43.3C143.7,43.3,143.7,43.3,143.7,43.3z M140.3,44.2
			C140.3,44.2,140.3,44.2,140.3,44.2c0-0.3,0-0.6,0-0.9c0-0.2-0.1-0.3-0.3-0.3c-0.9,0-1.9-0.1-2.8,0.1c-0.6,0.1-1.1,0.5-1.1,1.1
			c0,0.6,0.3,1.2,1,1.3c0.9,0.2,1.9,0.2,2.8,0.1c0.3,0,0.4-0.2,0.4-0.5C140.3,44.7,140.3,44.5,140.3,44.2z"/>
		<path class="st3" d="M87.2,43c0-1,0-2,0-3c-0.1-2.5,1.7-3.9,3.5-4.1c1.2-0.2,2.4-0.2,3.6,0c2.2,0.3,3.6,1.7,3.9,3.9
			c0,0.3,0.1,0.6,0.1,1c0,1.9,0,3.9,0,5.8c0,0.8-0.4,1.3-1.1,1.6c-0.7,0.3-1.4,0.1-1.9-0.4c-0.3-0.3-0.4-0.7-0.4-1.2
			c0-1.9,0-3.8,0-5.7c0-0.2,0-0.3,0-0.5c-0.2-1.2-0.7-1.6-1.9-1.6c-0.2,0-0.3,0-0.5,0c-1.2,0-1.8,0.7-1.8,1.8c0,1.9,0,3.9,0,5.8
			c0,1.1-0.5,1.7-1.5,1.9c-1,0.2-1.9-0.6-1.9-1.6C87.2,45.4,87.2,44.2,87.2,43z"/>
		<path class="st3" d="M101.3,41.6c0-0.8,0-1.5,0-2.2c0-0.3-0.1-0.4-0.4-0.4c-0.1,0-0.2,0-0.3,0c-0.8-0.1-1.2-0.6-1.2-1.4
			c0-0.8,0.4-1.3,1.2-1.5c0.7-0.1,0.7-0.1,0.7-0.8c0-0.4,0-0.7,0.1-1.1c0.2-0.8,1-1.4,1.8-1.3c1,0.1,1.6,0.7,1.6,1.6
			c0,0.3,0,0.7,0,1c0,0.3,0.1,0.4,0.4,0.4c0.8,0,1.5,0,2.3,0c0.8,0.1,1.4,0.7,1.3,1.5c0,0.8-0.6,1.4-1.4,1.4c-0.8,0.1-1.5,0-2.3,0
			c-0.3,0-0.4,0.1-0.4,0.4c0,1.4,0,2.7,0,4.1c0,0.3,0,0.5,0.1,0.8c0.1,0.6,0.5,0.9,1.2,0.9c0.6,0,1.2,0,1.7,0c0.9,0,1.5,0.6,1.5,1.5
			c0,0.8-0.7,1.5-1.5,1.5c-0.9,0-1.8,0-2.8-0.1c-1.9-0.2-3.6-1.9-3.7-3.8C101.3,43.3,101.4,42.4,101.3,41.6z"/>
		<path class="st3" d="M149.3,43.1c0,1.8,0,3.7,0,5.5c0,1.1-0.3,2.1-1,2.9c-0.7,0.9-1.7,1.3-2.7,1.5c-0.6,0.1-1.2,0.1-1.9,0.1
			c-0.8-0.1-1.4-0.7-1.4-1.5c0-0.8,0.7-1.4,1.5-1.4c0.4,0,0.8,0,1.2-0.1c0.5-0.1,0.8-0.5,0.9-1c0-0.2,0-0.4,0-0.6
			c0-3.6,0-7.2,0-10.8c0-0.6,0.1-1.2,0.6-1.7c1-0.8,2.5-0.3,2.8,1c0.1,0.4,0.1,0.7,0.1,1.1C149.3,39.8,149.3,41.5,149.3,43.1
			C149.3,43.1,149.3,43.1,149.3,43.1z"/>
		<path class="st3" d="M123.7,42c0-1.4,0-2.9,0-4.3c0-0.9,0.4-1.5,1.1-1.7c0.8-0.3,1.5,0,2.1,0.7c0,0,0,0,0,0c0.3,0.5,0.3,0.5,0.7,0
			c0.7-0.7,1.4-1,2.4-1c0.3,0,0.5,0,0.8,0c0.8,0,1.4,0.6,1.4,1.5c0,0.8-0.6,1.4-1.4,1.5c-0.4,0-0.9,0-1.4,0c-1.5,0-2.4,0.9-2.4,2.4
			c0,1.8,0,3.6,0,5.4c0,1-0.7,1.7-1.7,1.7c-1,0-1.7-0.7-1.7-1.7C123.7,45,123.7,43.5,123.7,42z"/>
		<path class="st3" d="M147.6,33.9c-1,0.1-1.8-0.6-1.9-1.6c-0.1-1,0.6-1.8,1.7-1.8c1.1-0.1,1.9,0.6,2,1.7
			C149.5,33.1,148.7,33.8,147.6,33.9z"/>
	</g>
</g>
</svg>
