<?xml version="1.0" encoding="utf-8"?>
<!-- Generator: Adobe Illustrator 22.0.1, SVG Export Plug-In . SVG Version: 6.00 Build 0)  -->
<svg version="1.1" id="Layer_1" xmlns="http://www.w3.org/2000/svg" xmlns:xlink="http://www.w3.org/1999/xlink" x="0px" y="0px"
	 viewBox="0 0 189 75.6" style="enable-background:new 0 0 189 75.6;" xml:space="preserve">
<style type="text/css">
	.st0{fill:#21409A;}
	.st1{fill:#FFFFFF;}
	.st2{fill:#6D6E71;}
	.st3{fill:#F7941D;}
</style>
<path class="st0" d="M184.3,75.6H5.3c-2.8,0-5-2.3-5-5V5c0-2.8,2.3-5,5-5h179c2.8,0,5,2.3,5,5v65.6
	C189.3,73.4,187.1,75.6,184.3,75.6z"/>
<g>
	<path class="st1" d="M83.3,28.9c-0.4,0-0.7,0-1,0c-0.3,0-0.7,0.2-1,0.1c0.2-0.5,0.5-1,0.7-1.4c0.2-0.4,0.4-0.7,0.6-1.1
		c0.1-0.2,0.3-0.5,0.4-0.7c0.1-0.2,0.3-0.5,0.4-0.7c0.1-0.2,0.2-0.5,0.3-0.7c0.1-0.2,0.3-0.5,0.4-0.7c0.5-1,1.1-2,1.6-3.1
		c0.1-0.2,0.3-0.4,0.3-0.6c0.3,0.1,0.6-0.1,0.8,0.1c0.1,0.1,0.2,0,0.3,0c1.4,0,2.9-0.1,4.3,0c1.6,0.1,3.1,0,4.7,0.1
		c0.7,0.2,1.5,0.1,2.2,0.1c0.7,0,1.5-0.1,2.2,0c0.8,0.1,1.6,0,2.4,0.1c0.4,0,0.8,0.1,1.2,0.2c0.4,0.1,0.8,0.2,1.2,0.4
		c0.4,0.2,0.7,0.3,1.1,0.6c0.7,0.5,1.3,1.1,1.8,1.9c0.3,0.5,0.6,1.3,0.7,1.8c0.1,0.5,0.2,0.9,0.2,1.4c0,0.1,0,0.2,0.1,0.3
		c0.1,0.1,0.1,0.2,0,0.3c-0.1,0.2-0.1,0.5-0.1,0.7c0,0.5-0.1,1-0.2,1.5c-0.2,0.8-0.5,1.5-0.9,2.2c-0.3,0.6-0.7,1.2-1.2,1.8
		c-0.2,0.3-0.4,0.5-0.7,0.8c-0.7,0.6-1.4,1.2-2.2,1.6c0,0,0,0-0.1,0.1c0.3,0.3,0.6,0.6,0.8,0.9c0.8,0.9,1.4,1.9,1.8,3
		c0.2,0.5,0.3,1.1,0.4,1.6c0.2,0.7,0.1,1.4,0.1,2.1c0,0.6-0.2,1.2-0.4,1.8c-0.3,0.7-0.5,1.5-1,2.1c-0.4,0.6-0.8,1.2-1.2,1.7
		c-0.4,0.5-0.9,0.9-1.3,1.4c-0.5,0.5-1,0.8-1.6,1.2c-0.5,0.4-1,0.7-1.6,1c-0.6,0.3-1.2,0.6-1.9,0.8c-0.5,0.2-1.1,0.3-1.6,0.5
		c-0.3,0.1-0.5,0.1-0.8,0.1C94.9,54,94.3,54,93.6,54c-0.6,0-1.3,0-1.9,0c-4.7,0-9.4,0-14.1,0c0-0.2-0.1-0.3,0.1-0.4
		c0-0.4,0.2-0.7,0.2-1.1c0-0.3,0.1-0.6,0.2-0.9c0.1-0.2,0-0.5,0.2-0.7c0-0.4,0.1-0.7,0.2-1.1c0.1-0.4,0.1-0.8,0.3-1.1
		c0.1-0.2,0.1-0.5,0.2-0.8c0.1-0.2,0.2-0.5,0.1-0.8c0.2-0.3,0.2-0.6,0.3-0.9c0.1-0.4,0.2-0.7,0.2-1.1c0.1-0.5,0.3-1,0.4-1.5
		c0.1-0.4,0.2-0.8,0.2-1.2c0-0.3,0.2-0.6,0.2-0.9c0.2-0.2,0-0.5,0.2-0.6c-0.1-0.2,0.1-0.4,0.1-0.7c0-0.3,0.1-0.6,0.2-0.9
		c0.1-0.4,0.2-0.7,0.2-1.1c0-0.4,0.2-0.7,0.2-1.1c0.1-0.4,0.2-0.8,0.3-1.1c0.2-0.7,0.2-1.4,0.5-2.1c0-0.6,0.3-1.1,0.3-1.6
		c0.1-0.4,0.2-0.8,0.3-1.3c0-0.1,0.1-0.3,0.1-0.4c0-0.2,0.1-0.3,0.1-0.4C83.1,29.7,83.2,29.4,83.3,28.9z M88.9,46c0.1,0,0.3,0,0.4,0
		c1.8,0,3.6,0,5.4,0c0.7,0,1.2-0.3,1.7-0.7c0.6-0.5,1-1.2,1.3-1.9c0.3-0.6,0.5-1.3,0.5-2c0-0.2,0-0.4,0-0.6c0-0.2-0.1-0.4-0.1-0.6
		c-0.4-1.1-1.4-1.7-2.5-1.7c-1.6,0-3.2,0-4.8,0c-0.1,0.1-0.1,0.2-0.1,0.3c-0.1,0.4-0.2,0.8-0.3,1.1c-0.1,0.4-0.1,0.8-0.3,1.2
		c-0.1,0.9-0.5,1.7-0.6,2.6c-0.3,0.5-0.3,1.1-0.5,1.6C88.9,45.5,88.8,45.7,88.9,46z M92,33.3c0.1,0,0.2,0,0.4,0c1.8,0,3.6,0,5.3,0
		c0.2,0,0.5-0.1,0.7-0.2c0.6-0.3,1-0.7,1.3-1.3c0.4-0.7,0.5-1.4,0.6-2.1c0-0.4,0.1-0.8-0.1-1.2c0.1-0.2-0.1-0.4-0.1-0.7
		c0-0.2-0.2-0.4-0.3-0.6c-0.2-0.3-0.5-0.5-0.8-0.7c-0.2,0.1-0.5-0.1-0.7-0.1c-1.4,0-2.8,0-4.2,0c-0.1,0-0.2,0-0.2,0
		c-0.1,0-0.3,0.2-0.3,0.3c0,0.5-0.2,0.9-0.3,1.3c-0.1,0.8-0.4,1.5-0.5,2.3c-0.2,0.7-0.3,1.5-0.6,2.2C92.1,32.8,91.9,33,92,33.3z"/>
	<path class="st1" d="M145.7,28.8c-0.6,0-1.1,0-1.6,0c0-0.2,0.2-0.4,0.3-0.6c0.1-0.1,0.2-0.3,0.2-0.4c0.4-0.7,0.7-1.4,1.1-2
		c0.3-0.5,0.5-1,0.8-1.6c0.2-0.4,0.4-0.8,0.6-1.2c0.2-0.4,0.4-0.8,0.7-1.2c0.2-0.4,0.5-0.8,0.6-1.2c0-0.1,0.1-0.2,0.3-0.2
		c0.1,0,0.1,0,0.2,0c5,0,10,0,15.1,0c0.1,0,0.1,0,0.2,0c0.1,0.4,0.1,0.9,0.2,1.3c0.1,0.4,0,0.8,0.1,1.1c0.1,0.4,0,0.8,0.1,1.2
		c0.1,0.4,0,0.8,0.1,1.3c0.1,0.4,0,0.7,0.1,1.1c0.1,0.4,0,0.8,0.1,1.2c0.1,0.4,0.1,0.7,0.1,1.1c0,0.2,0.1,0.4,0.1,0.7
		c0,0.2-0.1,0.5,0,0.7c0.1,0.3,0,0.6,0.1,1c0.1,0.5,0,0.9,0.1,1.4c0.1,0.3,0.1,0.6,0.1,0.9c0,0.3,0.1,0.5,0.1,0.7
		c0,0.2-0.1,0.5,0,0.7c0.1,0.3,0.1,0.5,0.1,0.8c0,0.2,0.1,0.4,0.1,0.7c0,0.2-0.1,0.5,0,0.7c0.1,0.4,0.1,0.7,0.1,1.1
		c0,0.3,0.1,0.5,0.1,0.8c0,0.2-0.1,0.5,0.1,0.7c0,0,0,0,0,0c-0.1,0.6,0.1,1.2,0.1,1.8c0,0.5,0.1,1,0.1,1.6c0.2,0.3,0,0.6,0.1,0.9
		c0.1,0.4,0,0.8,0.1,1.1c0.1,0.5,0.1,0.9,0.1,1.4c0,0.2,0.1,0.4,0.1,0.6c0,0.2-0.1,0.4,0.1,0.6c0,0,0,0.1,0,0.1
		c-0.1,0.6,0.2,1.2,0.1,1.8c0,0.3,0.1,0.5,0.1,0.7c0,0.2-0.1,0.5,0,0.7c0.1,0.3,0.1,0.6,0.1,0.9c0,0.2,0.1,0.5,0.1,0.7
		c0,0.2-0.1,0.5,0,0.7c0.1,0.3,0.1,0.6,0.1,0.9c0,0.3,0.2,0.5,0.1,0.8c-3.8,0-7.7,0-11.6,0c0-2.2,0-4.3,0-6.6c-0.2,0-0.3,0-0.4,0
		c-2.6,0-5.2,0-7.8,0c-0.4,0-0.5,0-0.6,0.4c-0.3,0.9-0.6,1.7-0.9,2.6c-0.3,0.7-0.5,1.5-0.9,2.2c-0.1,0.2-0.2,0.5-0.2,0.7
		c0,0.2-0.1,0.3-0.3,0.2c0,0-0.1,0-0.1,0c-3.4,0-6.8,0-10.1,0c-0.1,0-0.1,0-0.2,0c-0.1-0.2,0-0.3,0.1-0.4c0.3-0.6,0.6-1.3,0.9-1.9
		c0.2-0.5,0.5-0.9,0.6-1.4c0.2-0.4,0.4-0.8,0.5-1.3c0.2-0.4,0.4-0.8,0.6-1.2c0.5-1,1-2,1.4-3c0.2-0.5,0.5-0.9,0.6-1.3
		c0.2-0.5,0.4-0.9,0.6-1.4c0.2-0.5,0.5-0.9,0.7-1.4c0.2-0.5,0.4-0.9,0.6-1.3c0.4-0.9,0.8-1.7,1.2-2.6c0.2-0.4,0.4-0.8,0.6-1.3
		c0.2-0.7,0.7-1.3,0.9-1.9c0-0.1,0.1-0.3,0.2-0.4c0.2-0.3,0.3-0.6,0.5-1c0.1-0.3,0.3-0.6,0.4-1c0.2-0.4,0.4-0.9,0.6-1.3
		C145.5,29.5,145.6,29.2,145.7,28.8z M155.7,29.2c-0.3,0.3-0.3,0.6-0.5,0.9c-0.2,0.3-0.3,0.6-0.4,0.9c-0.1,0.3-0.3,0.6-0.5,0.9
		c-0.1,0.3-0.3,0.6-0.5,0.9c-0.2,0.3-0.3,0.6-0.5,0.9c-0.2,0.3-0.3,0.6-0.4,0.9c-0.1,0.3-0.4,0.5-0.4,0.9c-0.3,0.2-0.3,0.6-0.5,0.9
		c-0.2,0.3-0.4,0.6-0.5,0.9c-0.1,0.3-0.3,0.6-0.4,0.9c-0.1,0.3-0.3,0.6-0.4,0.9c-0.2,0.3-0.3,0.6-0.5,0.9c-0.2,0.3-0.3,0.6-0.5,0.9
		c0.1,0.2,0.3,0.2,0.4,0.2c1.8,0,3.6,0,5.3,0c0.1,0,0.1,0,0.2,0C155.8,40.4,155.8,29.7,155.7,29.2z"/>
	<path class="st1" d="M133.2,21.1c0.3-0.7,0.4-1.4,0.7-2c0.1,0.1,0.2,0.1,0.3,0.2c0.8,0.4,1.6,0.9,2.4,1.3c0.9,0.5,1.8,1,2.7,1.5
		c0.5,0.3,1,0.6,1.5,0.9c0.1,0,0.2,0.1,0.2,0.2c0.1,0.1,0.1,0.2,0.1,0.3c-0.4,0.8-0.7,1.6-1,2.3c-0.3,0.6-0.6,1.3-0.8,1.9
		c-0.2,0.3-0.3,0.6-0.4,1c-0.2,0.5-0.5,1-0.6,1.6c-0.1,0.3-0.2,0.5-0.4,0.8c-0.2,0.6-0.5,1.2-0.8,1.8c-0.3-0.3-0.6-0.5-1-0.7
		c-0.3-0.1-0.6-0.3-0.9-0.5c-0.6-0.2-1.1-0.5-1.7-0.6c-0.3-0.1-0.5-0.1-0.8-0.2c0,0-0.1,0-0.1,0c-0.4,0-0.7-0.2-1.1-0.1
		c-0.7-0.2-1.4-0.1-2.1-0.1c-0.3,0-0.5-0.1-0.8,0.1c-0.2,0.1-0.5,0-0.8,0.1c-0.2,0.1-0.5-0.1-0.7,0.1c-0.5,0-0.9,0.2-1.4,0.3
		c-0.3,0.1-0.6,0.2-0.9,0.3c-1,0.4-1.9,0.9-2.7,1.4c-0.8,0.5-1.4,1.2-2.1,1.9c-0.3,0.5-0.7,0.8-0.8,1.4c-0.4,0.7-0.5,1.4-0.5,2.2
		c0,0.3,0,0.6,0,0.9c0,0.4,0.1,0.7,0.2,1.1c0.1,0.6,0.4,1.2,0.6,1.7c0.2,0.4,0.5,0.8,0.8,1.2c0.3,0.3,0.6,0.7,1,0.9
		c0.3,0.2,0.7,0.4,1,0.6c0.2,0.1,0.3,0.1,0.5,0.2c0.3,0.1,0.6,0.2,1,0.3c0.5,0.1,0.9,0.2,1.4,0.2c0.8,0.1,1.7,0,2.5,0.1
		c0.2,0,0.4-0.1,0.7-0.1c0.2,0,0.4,0,0.6-0.1c0.2-0.1,0.5-0.1,0.8-0.1c0.4-0.1,0.7-0.2,1.1-0.2c0.4-0.1,0.7-0.2,1.1-0.3
		c0.2,0,0.4-0.1,0.6-0.1c0.2,0,0.4-0.1,0.6-0.2c0,0,0.1,0,0.1,0c-0.1,0.6-0.4,1.1-0.6,1.7c-0.2,0.6-0.5,1.3-0.7,1.9
		c-0.2,0.4-0.3,0.7-0.4,1.1c-0.2,0.5-0.4,1.1-0.6,1.6c-0.3,1-0.8,1.9-1,2.9c0,0.2-0.1,0.3-0.2,0.5c-0.1,0.2-0.3,0.3-0.4,0.2
		c-0.6,0-1.2,0.1-1.9,0.1c-1.1,0.1-2.2,0.1-3.4,0.1c-0.7,0-1.4-0.1-2.1-0.1c-0.2,0-0.5-0.1-0.8-0.1c-0.2,0-0.5-0.1-0.7-0.1
		c-0.2-0.2-0.6,0-0.8-0.2c-0.3,0.1-0.5-0.1-0.8-0.1c-0.8-0.2-1.5-0.4-2.3-0.7c-0.5-0.2-1-0.4-1.4-0.6c-0.6-0.3-1.2-0.7-1.7-1
		c-0.8-0.5-1.4-1.2-2.1-1.9c-0.8-0.8-1.3-1.8-1.8-2.9c-0.2-0.4-0.4-0.9-0.5-1.4c-0.1-0.4-0.3-0.8-0.2-1.3c0-0.2-0.1-0.3-0.1-0.5
		c0-0.1,0.1-0.3-0.1-0.5c-0.1,0,0-0.2,0-0.3c0-0.8,0-1.7,0-2.5c0-0.2,0.1-0.4,0.1-0.6c0-0.2,0-0.4,0.1-0.6c0.1-0.2,0.1-0.5,0.1-0.7
		c0.1-0.7,0.3-1.3,0.5-2c0.1-0.4,0.3-0.8,0.4-1.2c0.1-0.4,0.3-0.7,0.4-1.1c0.2-0.4,0.4-0.9,0.6-1.3c0.3-0.6,0.5-1.1,0.8-1.7
		c0.5-0.9,1-1.9,1.7-2.8c0.3-0.4,0.5-0.8,0.8-1.2c0.1-0.2,0.3-0.4,0.5-0.6c0.6-0.8,1.4-1.6,2.2-2.2c0.8-0.7,1.7-1.3,2.6-1.8
		c0.3-0.2,0.7-0.4,1.1-0.6c0.6-0.3,1.2-0.5,1.9-0.7c0.6-0.2,1.1-0.3,1.7-0.4c0.4-0.1,0.8-0.1,1.2-0.2c0.4-0.1,0.9,0,1.3-0.1
		c0.8-0.2,1.6,0,2.4-0.1c0.4,0,0.7,0.1,1.1,0.1c0.4,0,0.7-0.1,1.1,0C131.9,21.1,132.6,21,133.2,21.1z"/>
	<path class="st1" d="M70.2,32.9c0.2,2,0.1,4,0.1,6c0,0.3-0.1,0.6-0.1,1c0,0.3,0.1,0.7,0,1c-0.1,0.3-0.1,0.7-0.1,1
		c0,0.2-0.1,0.4-0.1,0.7c0,0.2,0.1,0.5-0.1,0.7c0,0,0,0.1,0,0.1c0.1,0.4-0.1,0.8-0.1,1.2c0,0.3,0,0.6-0.1,0.8
		c-0.1,0.3,0.1,0.6-0.2,0.8c0,0.2-0.1,0.5-0.1,0.7c-0.1,0.6-0.2,1.2-0.3,1.8c0,0.3-0.1,0.6-0.2,0.9c-0.1,0.4-0.2,0.8-0.3,1.1
		c-0.2,0.6-0.3,1.1-0.4,1.7c-0.1,0.6-0.3,1.1-0.5,1.7c-0.1,0.5-0.3,1-0.5,1.5c0,0.1-0.1,0.1-0.1,0.1c-0.7,0.3-1.3,0.6-2,0.9
		c-0.4,0.1-0.8,0.3-1.2,0.5c-0.7,0.2-1.4,0.5-2.1,0.8c-0.7,0.2-1.4,0.4-2.2,0.7c-0.4,0.1-0.9,0.2-1.3,0.3c-0.2,0-0.4,0.1-0.5,0.2
		c-0.2,0.1-0.4-0.1-0.5,0.1c-0.4,0-0.7,0.2-1.1,0.2c-0.4,0.1-0.8,0.2-1.3,0.2c-0.4,0.1-0.9,0.1-1.3,0.3c0,0-0.1,0-0.1,0
		c-0.4-0.1-0.9,0.2-1.3,0.1c-0.2,0-0.3,0.1-0.6,0.1c-0.2,0-0.4-0.1-0.5,0.1c0,0-0.1,0-0.1,0c-0.7-0.1-1.4,0.1-2.1,0.1
		c-1.6,0-3.3,0-4.9,0c-0.5,0-1-0.1-1.6-0.1c-0.2-0.1-0.5-0.1-0.8-0.1c-0.3-0.1-0.5-0.1-0.8-0.1c-0.2,0-0.3-0.1-0.5-0.1
		c-0.2,0-0.4,0.1-0.6,0c-0.2-0.1-0.4,0-0.5-0.1c-0.2-0.1-0.5-0.1-0.8-0.2c-0.3,0-0.5-0.2-0.8-0.1c-0.8-0.2-1.6-0.4-2.4-0.6
		c-0.8-0.2-1.6-0.4-2.4-0.6c-0.9-0.3-1.8-0.6-2.7-0.9c-0.7-0.3-1.4-0.5-2.1-0.8c-0.5-0.2-0.9-0.4-1.4-0.6c-0.2-0.1-0.4-0.3-0.5-0.5
		c-0.2-0.4-0.4-0.8-0.5-1.2c-0.1-0.3-0.2-0.5-0.3-0.8c-0.2-0.4-0.3-0.9-0.5-1.3c-0.2-0.5-0.3-0.9-0.5-1.4c-0.1-0.3-0.2-0.5-0.2-0.8
		c-0.1-0.3-0.2-0.5-0.2-0.8c-0.2-0.5-0.2-1-0.4-1.5c-0.1-0.2-0.1-0.4-0.1-0.6c0-0.4-0.2-0.7-0.3-1.1c-0.1-0.2,0.1-0.5-0.1-0.6
		c0-0.5-0.2-1-0.2-1.5c-0.1-0.2,0-0.4-0.1-0.7c-0.1-0.2-0.1-0.4-0.1-0.7c0-0.2-0.1-0.4-0.1-0.6c0-0.2,0.1-0.4-0.1-0.5
		c0,0,0-0.1,0-0.1c0-0.7-0.2-1.4-0.1-2.2c-0.2-1.2-0.1-2.5-0.1-3.7c0-0.3,0.1-0.7,0.1-1c0-0.3-0.1-0.7,0-1c0.1-0.4,0.1-0.7,0.1-1.1
		c0-0.2,0.2-0.3,0.1-0.5c0-0.2,0-0.3,0.1-0.5c0,0,0-0.1,0-0.1c0-0.2,0-0.5,0.1-0.7c0.1-0.2-0.1-0.5,0.1-0.7c0-0.5,0.2-1,0.2-1.5
		c0-0.5,0.2-0.9,0.3-1.4c0.1-0.4,0.2-0.7,0.3-1.1c0.1-0.4,0.2-0.9,0.4-1.3c0.1-0.3,0.2-0.7,0.3-1c0.1-0.4,0.3-0.9,0.4-1.3
		c0.2-0.4,0.3-0.9,0.5-1.3c0.2-0.5,0.4-1,0.6-1.6c0.2-0.4,0.3-0.9,0.5-1.3c0-0.1,0.1-0.1,0.1-0.2c0.4-0.4,0.8-0.7,1.3-0.9
		c0.2-0.1,0.5-0.2,0.7-0.3c0.8-0.4,1.7-0.7,2.5-1.1c0.9-0.4,1.7-0.6,2.6-0.9c0.5-0.2,1.1-0.3,1.7-0.5c0.2,0.1,0.4,0,0.6-0.1
		c0.2-0.1,0.4,0,0.6-0.2c0.6,0,1.1-0.3,1.6-0.3c0.2-0.2,0.6,0,0.8-0.2c0.3,0.1,0.5-0.1,0.8-0.1c0.2,0,0.4-0.1,0.7-0.1
		c0.2,0,0.3-0.2,0.6-0.1c0.2,0,0.4,0.1,0.6-0.1c0,0,0.1,0,0.1,0c0.5,0,1-0.2,1.5-0.1c0.9-0.2,1.9-0.1,2.9-0.1c0.9,0,1.9,0,2.8,0
		c0.6,0,1.1,0.2,1.7,0.1c0.3,0.1,0.5,0,0.8,0.1c0.3,0.1,0.5,0,0.8,0.1c0.3,0.1,0.7,0,1,0.1c0.3,0.1,0.7,0.1,1,0.2
		c0.2,0,0.4,0.1,0.6,0.1c0.2,0,0.4,0.1,0.6,0.1c0.5,0.1,1,0.2,1.5,0.3c0.2,0.2,0.4-0.1,0.6,0.2c0.2,0,0.4,0.2,0.6,0.1
		c0.1,0,0.2,0.1,0.3,0.1c0.4,0,0.7,0.2,1,0.3c0.4,0.1,0.7,0.2,1,0.3c0.9,0.2,1.8,0.5,2.6,0.8c0.6,0.2,1.3,0.5,1.9,0.7
		c0.6,0.3,1.3,0.6,1.9,0.8c0.3,0.1,0.5,0.3,0.8,0.4c0.2,0.1,0.2,0.3,0.3,0.4c0.2,0.7,0.4,1.3,0.6,2c0.3,0.9,0.5,1.8,0.7,2.6
		c0.2,0.6,0.2,1.3,0.5,1.8c-0.1,0.3,0.1,0.5,0.1,0.8c0,0.2,0.1,0.5,0.1,0.7c0.1,0.2,0,0.5,0.2,0.7c-0.1,0.3,0.1,0.6,0.1,1
		c0,0.5,0.2,1,0.2,1.5c0.2,0.2,0.1,0.4,0.1,0.6c0,0.2,0.1,0.5,0.1,0.7c0,0.2-0.1,0.5,0.1,0.7c0,0,0,0,0,0
		C70.1,31.7,70.3,32.3,70.2,32.9z M68.6,32.4c0.1-0.4-0.1-0.8-0.1-1.2c0-0.4-0.2-0.8-0.1-1.3c0,0,0,0,0,0c-0.2-0.2-0.1-0.4-0.1-0.6
		c0-0.2-0.2-0.4-0.1-0.6c0.1-0.3-0.2-0.7-0.1-1c-0.2-0.5-0.2-1-0.3-1.5c0-0.1-0.1-0.3-0.1-0.4c0-0.1,0-0.3-0.1-0.5
		c0-0.2-0.1-0.3-0.1-0.5c0-0.4-0.3-0.8-0.2-1.2c-0.1-0.1,0-0.3-0.1-0.5c-0.1-0.3-0.2-0.6-0.3-0.9c-0.1-0.3-0.1-0.6-0.2-1
		c-0.1-0.3-0.2-0.7-0.3-1c-0.1-0.4-0.3-0.7-0.3-1.1C66,19.2,66,19,65.9,18.8c0-0.1-0.1-0.2-0.2-0.2c-0.3,0-0.5-0.2-0.7-0.3
		c-0.5-0.1-0.9-0.3-1.3-0.5c-0.5-0.2-1.1-0.4-1.6-0.6c-1.3-0.5-2.7-0.9-4.1-1.3c-0.1,0-0.1-0.1-0.3-0.1c-0.3,0-0.5-0.1-0.7-0.1
		c-0.2-0.1-0.5-0.1-0.7-0.2c-0.2-0.1-0.4,0.1-0.5-0.1c-0.3,0-0.6-0.2-1-0.2c-0.2,0-0.3,0-0.5-0.1C54.2,15,54,15.1,53.8,15
		c-0.4,0-0.8-0.2-1.3-0.2c-0.4,0-0.7-0.2-1.1-0.1c-0.2-0.1-0.4-0.1-0.6-0.1c-0.2,0-0.4-0.1-0.6-0.1c-0.4,0-0.8,0-1.2-0.1
		c-0.3-0.1-0.7,0-1,0c-0.4,0-0.7-0.1-1.1-0.1c-0.5,0-1,0-1.5,0c-0.5,0-1,0.1-1.5,0.1c-0.4,0-0.9,0-1.3,0.1c-0.4,0.1-0.8,0.1-1.2,0.1
		c-0.4,0-0.8,0.2-1.2,0.1c-0.2,0.1-0.4,0.1-0.7,0.1c-0.1,0-0.2,0.1-0.4,0.1c-0.1,0-0.3,0-0.4,0c-0.3,0.2-0.7,0.2-1,0.3
		c-0.5,0.1-0.9,0.2-1.4,0.3c-0.4,0.1-0.7,0.2-1.1,0.3c-0.4,0.1-0.8,0.2-1.2,0.3c-0.3,0.1-0.6,0.1-0.8,0.2c-0.5,0.2-1,0.4-1.4,0.5
		c-0.7,0.2-1.3,0.5-2,0.8c-0.6,0.3-1.3,0.5-1.9,0.9c-0.2,0.1-0.4,0.1-0.5,0.3c-0.2,0.1-0.2,0.4-0.2,0.5c-0.2,0.4-0.4,0.8-0.5,1.2
		c-0.2,0.6-0.5,1.2-0.7,1.9c-0.1,0.3-0.2,0.6-0.3,1c-0.1,0.3-0.2,0.6-0.3,1c-0.1,0.3-0.2,0.6-0.3,1c0,0.2-0.1,0.5-0.2,0.8
		c-0.1,0.3-0.2,0.5-0.2,0.8c-0.2,0.1,0,0.4-0.1,0.5c-0.2,0.3-0.2,0.7-0.3,1.1c-0.1,0.5-0.3,0.9-0.2,1.4c-0.2,0.2,0,0.4-0.1,0.6
		c-0.1,0.2-0.1,0.4-0.1,0.7c0,0,0,0.1,0,0.1c-0.1,0.1-0.1,0.3-0.1,0.5c0,0.2-0.1,0.3-0.1,0.5c0,0.3,0,0.6-0.1,1
		c-0.1,0.3,0,0.6,0,0.9c0,0.3-0.1,0.6-0.1,1c0,0.7,0,1.5,0,2.2c0,0.7-0.1,1.5,0.1,2.2c0.1,0.3-0.1,0.7,0,1C24,40.7,24,41,24,41.2
		c0,0.3,0.1,0.5,0.1,0.7c0,0.3,0.2,0.7,0.1,1c0.2,0.5,0.2,1,0.3,1.4c0.1,0.4,0.2,0.9,0.2,1.3c0.2,0.1,0,0.4,0.2,0.5
		c-0.1,0.2,0.1,0.4,0.1,0.6c0,0.2,0.1,0.4,0.1,0.6c0.1,0.4,0.2,0.8,0.3,1.3c0.2,0.6,0.4,1.1,0.5,1.7c0.1,0.3,0.2,0.6,0.3,0.9
		c0.1,0.3,0.2,0.6,0.3,0.9c0.1,0.4,0.3,0.7,0.4,1.1c0.1,0.4,0.3,0.7,0.4,1.1c0,0.1,0.2,0.2,0.3,0.3c0.6,0.2,1.3,0.5,1.9,0.8
		c0.6,0.2,1.1,0.4,1.7,0.6c0.8,0.3,1.5,0.5,2.3,0.8c0.4,0.1,0.8,0.2,1.1,0.3c0.7,0,1.3,0.4,1.9,0.4c0.7,0.3,1.4,0.3,2.1,0.5
		c0.3,0.1,0.6,0.2,0.9,0.1c0.3,0.2,0.6,0.1,0.9,0.2c0.2,0.1,0.5,0,0.8,0.1c0.3,0.1,0.5,0.1,0.8,0.1c0.4,0.1,0.8,0,1.3,0.1
		c0.6,0.1,1.3,0,2,0.1c0.5,0.1,1,0,1.4,0c0.5,0,1,0,1.5-0.1c0.4-0.1,0.8,0,1.2,0c0.4,0,0.8-0.2,1.2-0.1c0.4,0.1,0.8-0.2,1.2-0.1
		c0,0,0,0,0,0c0.2-0.2,0.4-0.1,0.6-0.1c0.2,0,0.4-0.2,0.6-0.1c0.3,0.1,0.6-0.1,1-0.1c0.3,0,0.6-0.1,1-0.2c0.3-0.1,0.7-0.1,1-0.2
		c0.4-0.1,0.7-0.2,1.1-0.3c0.3-0.1,0.6-0.2,0.8-0.2c0.4-0.1,0.8-0.2,1.2-0.3c0.5-0.2,1.1-0.3,1.6-0.5c0.7-0.2,1.3-0.4,1.9-0.6
		c0.5-0.2,1-0.4,1.6-0.6c0.3-0.1,0.7-0.3,1-0.4c0.3-0.1,0.7-0.2,0.7-0.7c0.2-0.2,0.2-0.5,0.3-0.8c0.2-0.6,0.4-1.2,0.5-1.8
		c0.1-0.6,0.4-1.2,0.4-1.8c0.1-0.4,0.2-0.8,0.3-1.2c0-0.2,0-0.5,0.1-0.6c0.2-0.6,0.2-1.2,0.4-1.8c0-0.2,0-0.4,0.1-0.6
		c0.1-0.2,0.1-0.4,0.1-0.6c0.1-0.5,0.1-1,0.2-1.6c0-0.3,0-0.6,0.1-0.9c0.1-0.3,0-0.7,0.1-1.1c0.1-0.5,0-0.9,0.1-1.4
		c0-1-0.1-2.1,0.1-3.1c0.1-0.3-0.1-0.6-0.1-0.9C68.7,34.7,68.8,33.6,68.6,32.4z"/>
	<path class="st1" d="M46.7,49.2c0.1-0.8-0.2-1.6-0.1-2.4c0-0.2,0-0.4,0-0.6c0-0.4-0.1-0.8-0.1-1.2c0-0.4,0.1-0.8,0-1.2
		c-0.1-0.4,0-0.9-0.1-1.3c-0.1-0.4,0-0.8-0.1-1.3c0-0.3-0.1-0.5-0.1-0.8c0-0.2-0.2-0.3-0.1-0.5c0-0.2,0.1-0.4-0.1-0.5
		c0-0.3-0.1-0.5-0.1-0.8c-0.1-0.5-0.2-1.1-0.4-1.6c-0.1-0.5-0.3-0.9-0.4-1.4c-0.1-0.4-0.3-0.7-0.5-1.1c-0.2-0.4-0.4-0.7-0.6-1
		c-0.2-0.3-0.5-0.7-0.8-1c-0.4-0.5-0.8-1-1.3-1.5c-0.5-0.6-1-1.2-1.4-1.8c-0.4-0.6-0.8-1.2-1-1.8c-0.1-0.3-0.2-0.7-0.3-1
		c-0.1-0.2-0.1-0.4-0.1-0.6c-0.1-0.5-0.1-1.1,0-1.6c0.1-0.7,0.3-1.4,0.6-2.1c0.3-0.6,0.6-1.1,0.9-1.6c0.4-0.5,0.9-1,1.4-1.4
		c0.4-0.3,0.7-0.5,1.1-0.7c0.5-0.2,1-0.4,1.5-0.6c0.2-0.1,0.5,0,0.7-0.1c0.5,0,1-0.1,1.5-0.1c0.2,0,0.4,0.1,0.7,0.1
		c0.2,0,0.5-0.1,0.7,0.1c0.6,0,1,0.2,1.5,0.4c0.6,0.2,1.1,0.5,1.6,0.8c0.2,0.2,0.4,0.3,0.6,0.4c0.1,0.2,0.3,0.4,0.5,0.4
		c0.3,0.4,0.6,0.8,0.9,1.3c0.5,0.7,0.7,1.5,1,2.2c0.1,0.2,0,0.4,0.1,0.6c-0.1,0.3,0.1,0.6,0.1,0.9c0,0.3,0,0.6,0,0.8
		c-0.1,0.7-0.3,1.3-0.5,1.9c-0.3,0.6-0.6,1.2-1.1,1.8c-0.3,0.4-0.5,0.8-0.9,1.1c-0.2,0.2-0.4,0.4-0.5,0.6c-0.1,0.2-0.4,0.4-0.5,0.6
		c-0.1,0.3-0.4,0.5-0.6,0.7c-0.6,0.7-1,1.4-1.5,2.2c-0.3,0.4-0.4,0.9-0.6,1.3c-0.2,0.3-0.3,0.7-0.3,1.1c-0.1,0.5-0.3,0.9-0.3,1.4
		c0,0.1-0.1,0.2-0.1,0.4c0.1,0.2-0.1,0.4-0.1,0.6c0,0.2,0,0.4-0.1,0.6c-0.1,0.2-0.1,0.5-0.1,0.8c0,0.7-0.2,1.5-0.1,2.2
		c0,0.4-0.1,0.8-0.1,1.2c0,0.4,0.1,0.8,0,1.2c-0.1,0.6-0.1,1.1-0.1,1.7c0,0.4-0.1,0.7-0.1,1.1c0,0.3,0,0.7,0,1
		C46.7,49.2,46.7,49.2,46.7,49.2z"/>
	<path class="st1" d="M51.9,43.4c4.3-0.4,8.1-1.9,11.2-4.8c0,0.5,0.1,0.9,0.1,1.4c0.1,0.6,0,1.1,0.1,1.7c0,0.2,0.1,0.4-0.1,0.6
		c-0.1,0.2,0.1,0.4-0.1,0.6c0,0.3-0.1,0.5-0.2,0.8c-0.2,0.4-0.4,0.7-0.7,1c-0.4,0.3-0.9,0.5-1.4,0.7c-0.3,0.1-0.7,0.2-1,0.2
		c-0.3,0-0.7,0.2-1,0.1c-0.3,0-0.7,0-1,0c-0.4,0-0.8-0.1-1.2-0.1c-0.4,0-0.8,0-1.1,0c-0.3,0-0.6,0.2-1,0.1c-0.3,0-0.6,0.1-0.9,0.2
		c-0.3,0.1-0.6,0.2-0.9,0.3c-0.6,0.2-1.1,0.5-1.7,0.9c-0.7,0.4-1.4,0.8-2.1,1.3c-0.2,0-0.2,0.2-0.4,0.2c0,0,0-0.1,0-0.1
		c0.1-0.6-0.1-1.2-0.1-1.8c0-0.6,0-1.2,0-1.8c0-0.3,0-0.7,0-1c0-0.6,0.2-1.2,0.1-1.9c0.2-0.3,0-0.7,0.1-1.1c0.1-0.4,0.1-0.9,0.3-1.3
		c0.1-0.3,0.1-0.6,0.2-1c0.2-0.6,0.4-1.3,0.6-1.9c0.2-0.6,0.5-1.3,0.8-1.8c0.4-0.7,0.9-1.5,1.4-2.1c0.4-0.5,0.8-0.9,1.3-1.3
		c0.7-0.6,1.5-1.1,2.3-1.5c0.5-0.2,1.1-0.3,1.6-0.6c0.3,0.1,0.6-0.2,0.9-0.1c0.6,0.1,1.2,0.2,1.7,0.5c0.8,0.4,1.5,0.8,2.1,1.5
		c0.3,0.3,0.9,1.1,1,1.7c0.2,0.5,0.3,1.1,0.3,1.6c-0.1,0.4-0.2,0.9-0.3,1.3c-0.2,0.4-0.4,0.9-0.6,1.3c-0.1,0.2-0.3,0.2-0.3,0.5
		c-0.4,0.5-0.8,1-1.4,1.4c-0.5,0.4-1,0.7-1.5,1c-0.6,0.3-1.3,0.5-1.9,0.7c-0.5,0.1-0.9,0.2-1.4,0.2c-0.2,0-0.3,0.1-0.5,0.1
		c-0.5,0.2-0.9,0.4-1.3,0.8C53.1,42.2,52.6,42.8,51.9,43.4z"/>
	<path class="st1" d="M41.5,43.3c-0.3-0.2-0.5-0.4-0.7-0.7c-0.2-0.2-0.4-0.5-0.7-0.7c-0.4-0.3-0.7-0.6-1.1-0.8
		c-0.3-0.2-0.7-0.4-1.1-0.4c-0.5,0-1-0.1-1.5-0.2c-0.3-0.1-0.7-0.2-1-0.3c-0.3-0.1-0.6-0.2-0.9-0.4c-0.5-0.3-1-0.5-1.4-0.9
		c-0.2-0.2-0.4-0.3-0.6-0.5c-0.5-0.5-0.9-1-1.3-1.6c-0.4-0.7-0.7-1.5-0.8-2.2c0-0.3-0.1-0.5-0.1-0.8c0-0.2,0.1-0.5,0.1-0.7
		c0-0.2,0.1-0.4,0.2-0.6c0.1-0.2,0.2-0.4,0.3-0.6c0.1-0.2,0.3-0.4,0.4-0.5c0.7-0.9,1.6-1.5,2.6-2c0.2-0.1,0.5-0.2,0.7-0.2
		c0.4,0,0.8-0.3,1.3,0c1.3,0.2,1.8,0.5,2.7,1c0.4,0.2,0.8,0.5,1.2,0.9c0.4,0.3,0.8,0.7,1.2,1.1c0.6,0.6,1.1,1.3,1.5,2
		c0.2,0.4,0.4,0.7,0.6,1.1c0.3,0.7,0.6,1.4,0.8,2.1c0.1,0.3,0.2,0.6,0.3,0.8c0.1,0.3,0.2,0.6,0.2,0.9c0.1,0.3,0.2,0.5,0.1,0.8
		c0,0.2,0.1,0.3,0.1,0.5c0,0.2-0.1,0.4,0.1,0.5c0,0,0,0,0,0c-0.1,0.5,0.2,0.9,0.1,1.4c-0.1,0.5,0.1,1,0.1,1.5c0,0.5,0,1,0,1.4
		c0,0.5,0,1,0,1.5c0,0.3-0.1,0.5-0.1,0.8c0,0.3,0,0.6,0,0.8c-0.2,0-0.4-0.1-0.5-0.2c-0.7-0.4-1.4-0.8-2-1.3c-0.7-0.4-1.4-0.8-2.1-1
		c-0.5-0.2-1.1-0.2-1.7-0.3c-0.6-0.1-1.2,0-1.9-0.1c-0.4,0-0.7,0.1-1.1,0.1c-0.4,0-0.8,0-1.1,0c-0.5-0.1-1-0.1-1.5-0.3
		c-0.9-0.3-1.2-0.4-1.8-0.8c-0.4-0.3-0.6-0.7-0.8-1.2c-0.1-0.3-0.3-0.7-0.2-1.1c-0.2-0.6,0-1.3-0.1-2c0-0.2,0.1-0.4,0.1-0.6
		c0-0.2,0-0.4,0.1-0.6c0.1-0.1,0-0.3,0-0.5c0.2,0,0.3,0.3,0.5,0.3c0.2,0.3,0.5,0.4,0.8,0.7c0.3,0.4,0.8,0.5,1.2,0.9
		c0.7,0.3,1.4,0.8,2.1,1.1c0.9,0.4,1.8,0.7,2.7,1.1c0.5,0,1,0.3,1.5,0.3c0.2,0,0.3,0.2,0.5,0.1c0.2-0.1,0.3,0.1,0.4,0.1
		c0.2,0,0.3-0.1,0.5,0.1C40.7,43.2,41.1,43.5,41.5,43.3z"/>
	<path class="st1" d="M49.4,56.7c-0.1-0.2-0.2-0.3-0.1-0.5c0-0.5-0.2-1.1-0.1-1.6c-0.2-0.4-0.1-0.8-0.1-1.3c0-0.3,0-0.3,0.2-0.3
		c0.6,0.1,1.2-0.2,1.8-0.1c0.4,0,0.7,0.2,0.8,0.5c0.1,0.3,0.2,0.7-0.2,1c0,0,0,0.1,0,0.1c0,0.2,0.1,0.1,0.2,0.2
		c0.3,0.1,0.4,0.4,0.5,0.7c0.1,0.2-0.1,0.4-0.1,0.6c0,0.1-0.2,0.3-0.4,0.4c-0.2,0.1-0.5,0.2-0.8,0.2c-0.5-0.1-1,0.2-1.5,0.1
		C49.5,56.6,49.5,56.6,49.4,56.7z M50,56c0.2,0,0.4,0,0.6,0c0.2,0,0.3-0.1,0.5-0.1c0.2,0,0.5-0.2,0.5-0.4c0-0.1-0.2-0.3-0.3-0.5
		c-0.1-0.1-0.2-0.1-0.3-0.1c-0.4-0.1-0.7,0.2-1,0.1C49.8,55.3,50,55.6,50,56z M49.8,54.4c0.3,0,0.6,0,0.9,0c0.2,0,0.4-0.1,0.5-0.2
		c0.1-0.1,0.2-0.3,0.1-0.4c-0.1-0.1-0.2-0.3-0.4-0.3c-0.3,0-0.6,0-0.9,0c-0.1,0-0.2,0.1-0.2,0.2C49.8,53.9,49.8,54.1,49.8,54.4z"/>
	<path class="st1" d="M39.4,54.4c0.4,0.4,0.4,0.4,0.9,1.7c-0.2,0.2-0.4-0.1-0.6-0.1c-0.2,0-0.3-0.2-0.3-0.4c-0.1-0.4-0.3-0.7-0.5-1
		c-0.1-0.2-0.4-0.5-0.8-0.3c-0.1,0.1,0,0.4-0.1,0.6c-0.1,0.2,0,0.5-0.1,0.7c-0.2,0-0.4,0-0.7,0c-0.1-0.4,0.1-0.7,0.1-1
		c0.1-0.1,0.1-0.3,0.1-0.4c0-0.2,0.1-0.2,0.1-0.4c0-0.5,0.2-1,0.2-1.5c0-0.2,0.1-0.3,0.3-0.2c0.6,0.2,1.3,0.2,1.9,0.4
		c0.3,0.1,0.6,0.4,0.6,0.7c0,0.4,0,0.7-0.3,1C39.9,54.3,39.7,54.4,39.4,54.4z M38.3,52.8c0,0.2,0,0.5-0.1,0.7c0,0,0,0.2,0.1,0.2
		c0.1,0,0.2,0.1,0.4,0.1c0.2,0,0.3-0.1,0.5,0.1c0.1,0.1,0.5-0.1,0.6-0.2c0.1-0.2,0.1-0.4,0-0.5c0-0.2-0.3-0.3-0.4-0.2
		C39,52.9,38.7,52.7,38.3,52.8z"/>
	<path class="st1" d="M37.1,52.8c-0.2,0-0.4,0-0.6,0c0-0.2-0.1-0.4-0.3-0.6c-0.2-0.1-0.4-0.3-0.6-0.2c-0.2,0-0.4-0.1-0.5,0.1
		c-0.3,0.2-0.4,0.4-0.6,0.7c-0.2,0.3-0.1,0.7-0.1,1c0.1,0.4,0.5,0.7,0.8,0.7c0.3,0,0.5,0,0.8,0c0.1-0.2,0.2-0.3,0.1-0.6
		c-0.2,0-0.4-0.2-0.6-0.1c0,0-0.2-0.1-0.1-0.2c0.1-0.1,0-0.2,0-0.4c0.5,0,0.9,0.3,1.5,0.3c0,0.2,0,0.4-0.1,0.6
		c-0.1,0.2-0.2,0.5-0.2,0.7c0,0.2-0.2,0.2-0.3,0.3c-0.2,0.1-0.4,0-0.6,0.1c-0.6-0.1-1.2-0.1-1.6-0.6c-0.5-0.5-0.6-1.1-0.4-1.7
		c0.1-0.4,0.3-0.9,0.7-1.2c0.2-0.2,0.5-0.3,0.8-0.4c0.5-0.1,0.9,0.1,1.3,0.2c0.3,0.1,0.5,0.4,0.6,0.7C37,52.4,37.2,52.6,37.1,52.8z"
		/>
	<path class="st1" d="M59.7,54.7c-0.1,0-0.2,0.1-0.2,0.1c-0.3,0.1-0.6,0.1-0.7-0.2c-0.1-0.2-0.3-0.3-0.4-0.5
		c-0.2,0.2-0.4,0.1-0.6,0.2c-0.1,0.1-0.3,0.2-0.5,0.1c-0.1,0-0.2,0.1-0.2,0.2c0,0.3-0.2,0.5-0.1,0.8c-0.3,0-0.4,0.1-0.7,0.1
		c0-0.2-0.1-0.5,0.1-0.7c0,0,0-0.1,0-0.1c-0.1-0.4,0.2-0.8,0.1-1.2c0-0.2,0.1-0.3,0.1-0.6c0-0.2,0-0.4,0.1-0.6c0.1-0.1,0-0.3,0-0.4
		c0-0.3,0.2-0.5,0.4-0.5c0.1,0,0.2,0,0.2,0c0.1-0.1,0.1-0.1,0.1,0c0.1,0.2,0.2,0.3,0.3,0.5c0.3,0.5,0.7,1,1.1,1.5
		C59.1,53.9,59.4,54.3,59.7,54.7z M58.1,53.8c-0.1-0.5-0.5-0.9-0.8-1.3c-0.1,0.5-0.2,1-0.1,1.5C57.5,53.9,57.7,53.8,58.1,53.8z"/>
	<path class="st1" d="M41.1,52.7c0.2,0,0.4,0,0.5,0c0.1,0,0.2,0.1,0.2,0.2c0,0.1,0.1,0.3,0,0.4c-0.1,0.2-0.1,0.3-0.1,0.5
		c0.1,0.5-0.1,0.9-0.1,1.4c0,0.5,0.2,0.7,0.7,0.7c0,0,0.1,0,0.1,0c0.1,0,0.3,0,0.4-0.1c0.1-0.2,0.3-0.3,0.2-0.6
		c0-0.6,0.2-1.1,0.1-1.7c0-0.2,0.1-0.4,0.1-0.7c0.2,0,0.4,0,0.6,0c0,0,0.2,0.1,0.1,0.2c-0.1,0.3,0,0.5-0.1,0.8c0,0.2,0.1,0.4,0,0.6
		c-0.1,0.2-0.1,0.4-0.1,0.6c0,0.2-0.1,0.4-0.1,0.6c-0.1,0.5-0.5,0.8-1,0.8c-0.3,0-0.6,0-0.9-0.1c-0.2-0.1-0.4-0.2-0.6-0.4
		c-0.2-0.1-0.3-0.4-0.3-0.5c0-0.3-0.1-0.7,0.1-1.1c0,0,0-0.1,0-0.1C40.9,53.8,41.2,53.2,41.1,52.7z"/>
	<path class="st1" d="M45.2,55.3c0,0.5,0,0.9,0,1.4c-0.2-0.1-0.5-0.1-0.7-0.1c0-0.8,0-1.6,0-2.4c0-0.4,0.1-0.8,0.1-1.2
		c0.4,0.1,0.7-0.1,1.1,0.1c0.2,0.1,0.5,0,0.7,0c0.4,0,0.9,0.5,0.8,0.9c0,0.2,0,0.4-0.1,0.6c-0.1,0.3-0.2,0.4-0.4,0.5
		c-0.2,0.1-0.5,0.2-0.8,0.2C45.7,55.3,45.5,55.3,45.2,55.3z M46.6,54.3c-0.1-0.1,0.1-0.3-0.1-0.5c-0.2-0.1-0.4-0.3-0.6-0.2
		c-0.2,0-0.5-0.1-0.6,0.1c-0.2,0.2-0.1,0.5-0.1,0.8c0,0.1,0.1,0.2,0.2,0.2c0.2,0,0.4,0,0.6,0c0.1,0,0.3,0,0.3-0.1
		C46.4,54.5,46.5,54.4,46.6,54.3z"/>
	<path class="st1" d="M54.8,53.4c-0.1-0.1-0.2-0.2-0.4-0.3c-0.3-0.2-0.7-0.2-0.9,0c-0.3,0.2-0.4,0.5-0.4,0.8c0,0.4,0.1,0.8,0.3,1.2
		c0.1,0.2,0.3,0.3,0.5,0.4c0.3,0.1,0.7-0.1,0.9-0.4c0.1-0.1,0.2-0.3,0.2-0.5c0.1,0,0.3,0,0.4,0c0.2,0,0.2,0,0.2,0.3
		c0,0.2-0.1,0.4-0.2,0.6c-0.2,0.4-0.6,0.5-1,0.6c-0.7,0.1-1.5-0.3-1.8-1c-0.2-0.5-0.3-1.1-0.1-1.7c0.2-0.5,0.5-0.8,0.9-1
		c0.4-0.1,0.8-0.2,1.2,0c0.3,0.1,0.4,0.3,0.6,0.5c0,0,0.1,0.2-0.1,0.3C55.1,53.3,54.9,53.2,54.8,53.4z"/>
</g>
</svg>
