<svg xmlns="http://www.w3.org/2000/svg" viewBox="0 0 360 130"><title>icon marketplace home lengkap</title><rect width="360" height="130" rx="15.3333" ry="15.3333" style="fill:#e8154f"/><rect x="20" y="17.7706" width="96" height="94.4587" rx="16.7292" ry="16.7292" transform="translate(-7.831 9.3343) rotate(-7.4263)" style="fill:#fff"/><path d="M108.3451,27.0062,116.7516,91.5a2.3646,2.3646,0,0,0-.1,1.0425,14.0249,14.0249,0,0,1-11.9391,12.9681q-30.7291,4.0056-61.4582,8.012a17.2589,17.2589,0,0,1-1.9073.1452A14.0111,14.0111,0,0,1,27.496,101.7644q-4.0213-30.8479-8.0419-61.6959a13.9687,13.9687,0,0,1,8.4548-14.6517c.6509-.27,1.3192-.4987,1.98-.7465l64.6129-8.422c.0573.1155.1621.081.2575.0846a13.8712,13.8712,0,0,1,12.5838,8.0251C107.779,25.2029,107.9762,26.1367,108.3451,27.0062ZM100.7876,62.53c-.1819-1.0811-.3807-2.1382-.65-3.1824a24.6092,24.6092,0,0,0-9.8936-14.43,25.31,25.31,0,0,0-18.9927-4.27,23.6465,23.6465,0,0,0-5.4462,1.3444,2.4994,2.4994,0,0,0-1.4994,3.4569q1.65,4.6149,3.3037,9.2284a2.5805,2.5805,0,0,0,3.3952,1.6884,15.6033,15.6033,0,0,1,2.0235-.5244,11.6556,11.6556,0,0,1,6.3652.2769,10.1692,10.1692,0,0,1,6.3513,9.0135,8.8139,8.8139,0,0,1-3.5794,7.7458,17.9068,17.9068,0,0,1-3.171,1.778,4.85,4.85,0,0,0-2.3362,6.43c.81,1.7735,1.6838,3.52,2.59,5.2471a4.64,4.64,0,0,0,5.8709,2.204,21.2206,21.2206,0,0,0,4.3243-2.2825C97.9019,80.5808,101.7531,72.7019,100.7876,62.53ZM56.4827,79.3657a6.18,6.18,0,0,0,1.6482-.4893c1.5216-.7836,3.0619-1.5323,4.5648-2.35a5.2839,5.2839,0,0,0,2.6424-6.0455,51.772,51.772,0,0,0-1.9014-5.2137Q58.0859,51.0694,52.7135,36.88a5.4248,5.4248,0,0,0-7.8418-3.0768q-5.0014,2.48-9.9995,4.9666A5.4358,5.4358,0,0,0,32.59,46.88q5.2846,8.5263,10.5823,17.0446c2.6771,4.3115,5.3318,8.6371,8.04,12.9289A5.2852,5.2852,0,0,0,56.4827,79.3657Zm8.7254,2.2434a8.1059,8.1059,0,1,0,9.0728,7.01A8.1258,8.1258,0,0,0,65.2081,81.6091Z" style="fill:#e1004d"/><path d="M100.7876,62.53c.9655,10.1717-2.8857,18.0506-11.3451,23.7244a21.2206,21.2206,0,0,1-4.3243,2.2825,4.64,4.64,0,0,1-5.8709-2.204c-.906-1.7268-1.7795-3.4736-2.59-5.2471a4.85,4.85,0,0,1,2.3362-6.43,17.9068,17.9068,0,0,0,3.171-1.778,8.8139,8.8139,0,0,0,3.5794-7.7458,10.1692,10.1692,0,0,0-6.3513-9.0135,11.6556,11.6556,0,0,0-6.3652-.2769,15.6033,15.6033,0,0,0-2.0235.5244,2.5805,2.5805,0,0,1-3.3952-1.6884q-1.6566-4.6125-3.3037-9.2284a2.4994,2.4994,0,0,1,1.4994-3.4569,23.6465,23.6465,0,0,1,5.4462-1.3444,25.31,25.31,0,0,1,18.9927,4.27,24.6092,24.6092,0,0,1,9.8936,14.43C100.4069,60.392,100.6057,61.4491,100.7876,62.53Z" style="fill:#fefdfe"/><path d="M56.4827,79.3657a5.2852,5.2852,0,0,1-5.2707-2.512c-2.7083-4.2918-5.363-8.6174-8.04-12.9289Q37.8805,55.4027,32.59,46.88A5.4358,5.4358,0,0,1,34.8722,38.77q4.9954-2.4921,9.9995-4.9666A5.4248,5.4248,0,0,1,52.7135,36.88q5.3641,14.1929,10.7232,28.3876a51.772,51.772,0,0,1,1.9014,5.2137,5.2839,5.2839,0,0,1-2.6424,6.0455c-1.5029.8176-3.0432,1.5663-4.5648,2.35A6.18,6.18,0,0,1,56.4827,79.3657Z" style="fill:#fefdfe"/><path d="M65.2081,81.6091a8.1059,8.1059,0,1,1-7.0222,8.9548A8.1278,8.1278,0,0,1,65.2081,81.6091Z" style="fill:#fefdfd"/><path d="M181.3379,69.8119c.0016-5.5276.0218-11.0554-.015-16.5828-.0076-1.1412.3727-1.6106,1.5461-1.5519,1.5575.0779,3.1227.08,4.6815.0264,1.1222-.0389,1.4881.4629,1.4815,1.5126-.0359,5.6966-.043,11.3934-.0605,17.09-.0006.211-.0144.4222-.007.6328.0162.4639-.02.991.5363,1.1672.573.1813.96-.1748,1.265-.6135q1.6592-2.3876,3.31-4.781,1.1118-1.6137,2.2087-3.2374a2.1679,2.1679,0,0,1,1.9595-.9484c1.4342.0139,2.8683.0485,4.3025.0662,1.6913.0209,2.1244-.2773,2.7208-1.8531a7.9423,7.9423,0,0,0,.3864-1.07c.4808-2.1825,1.5586-3.56,4.038-3.6722,3.0279-.1375,6.0365-.782,9.0809-.546,5.5109.4272,8.0966,3.2931,8.4251,8.9952.2131,3.7015.0465,7.4247.06,11.1381a4.5157,4.5157,0,0,0,.1162,1.2492,1.1635,1.1635,0,0,0,1.2792.8221c.6331-.027.8712-.4856.8926-1.0335.0361-.9268.0189-1.8557.0185-2.7838q-.0042-10.1911-.0091-20.3824c0-1.67.1473-1.79,1.8191-1.7638,1.4345.0226,2.8709.0522,4.3037.0008,1.1694-.0419,1.6529.3544,1.6417,1.6073-.0738,8.2684-.087,16.5374-.1109,24.8062-.0022.7584.0732,1.5168.0871,2.2756.02,1.0728.6095,1.5025,1.6182,1.4964q1.2645-.0078,2.5292-.0039c.4223.0018.883.0708,1.1465-.3515.3136-.5024-.0692-.8593-.3277-1.2418a10.9666,10.9666,0,0,1-1.0636-10.3891c1.0451-2.8683,3.5622-4.027,6.3459-4.64a32.6888,32.6888,0,0,1,5.7872-.5639c.9454-.037,2.2085.2013,2.2884-1.3245.0573-1.0934-.9128-1.8668-2.4248-1.848a93.2522,93.2522,0,0,0-9.34.6c-1.7633.2-1.9135.0568-1.9106-1.68.0022-1.3081.0136-2.6167-.0188-3.9241-.0215-.8637.3228-1.3723,1.2038-1.4577,3.6919-.358,7.3547-1.0649,11.0832-.9794a10.2089,10.2089,0,0,1,6.0683,1.8743,7.9235,7.9235,0,0,1,3.0551,6.5289c.0808,3.8792-.0219,7.7623-.0461,11.6438a4.6047,4.6047,0,0,0,.0063.6318c.1175.883.5245,1.5761,1.4944,1.5763,1.0525,0,.9825-.8688.9838-1.5765q.0154-8.1656.0019-16.3312c-.0009-1.2237-.0086-2.4476-.0305-3.671-.0131-.734.2682-1.2759,1.027-1.353,4.317-.4386,8.5239-1.6355,12.9017-1.7055,6.0913-.0974,8.8465,3.5184,9.783,8.4308a31.26,31.26,0,0,1,.2255,9.3365c-.4886,4.3559-2.4454,7.8126-6.8161,9.36a18.3717,18.3717,0,0,1-7.634.6924c-1.49-.1157-1.82.1676-1.7907,1.6467q.0507,2.5934.0715,5.187c.01,1.3307-.3431,1.6836-1.6162,1.6719-1.56-.0143-3.1222-.0659-4.6813-.0229-1.0105.0279-1.4472-.3234-1.4738-1.3758-.076-3.01-.1068-3.0022-3.0944-3.2983a10.4163,10.4163,0,0,1-4.3764-1.1316,2.0931,2.0931,0,0,0-1.7151-.1122c-1.0521.3064-2.1092.6069-3.18.8342a1.74,1.74,0,0,0-1.5717,2.0554c.2406,3.4135-.012,2.9856-2.9559,2.9946-5.9495.0183-11.8991.0047-17.8485.0346-1.0188.0051-1.4544-.3762-1.4531-1.4131.0019-1.6609-.2669-1.938-1.914-1.8858a10.9926,10.9926,0,0,1-5.6317-1.17,2.115,2.115,0,0,0-1.82-.05,22.4333,22.4333,0,0,1-6.9443,1.2367c-5.0708.1023-8.0313-2.2674-8.8347-7.2782-.512-3.1937-.1981-6.2572,2.3206-8.668a9.18,9.18,0,0,1,5.2636-2.25,50.2,50.2,0,0,1,5.6655-.5465c.7887-.0229,1.7356-.0565,1.7838-1.1705.0458-1.0573-.6967-1.5939-1.6176-1.8269a5.4109,5.4109,0,0,0-1.7558-.1573c-3.1936.2734-6.4058.3087-9.5851.7818a2.8211,2.8211,0,0,0-2.0889,1.2471q-3.3375,4.9946-6.6831,9.9836a1.8712,1.8712,0,0,0,.0693,2.2314c1.9112,3.1311,3.79,6.2823,5.6749,9.4293.21.3512.5958.7.3635,1.1426-.2618.4989-.8073.3692-1.2559.37-1.8144.0048-3.6314-.0727-5.4422.0037a2.6365,2.6365,0,0,1-2.6052-1.4035c-1.1328-1.8764-2.3114-3.7251-3.46-5.5918-.3374-.5481-.6462-1.1965-1.432-.9526-.7928.246-.6484,1.0013-.6492,1.6136-.0022,1.6034.0116,3.2075.0572,4.81.03,1.0627-.3992,1.5462-1.5,1.511q-2.4021-.0768-4.808-.0089c-1.067.0293-1.3948-.4653-1.3909-1.4611C181.3476,80.9521,181.3362,75.382,181.3379,69.8119Zm92.1263-4.0442h.0385c0,.97.002,1.94,0,2.91-.0088,3.6186.0558,3.683,3.6423,3.5983,2.9043-.0686,4.5532-1.5143,4.8857-4.4071a17.44,17.44,0,0,0-.3605-6.2839,3.714,3.714,0,0,0-4.7159-2.8477c-.6977.1648-1.396.3294-2.0863.5219a1.7574,1.7574,0,0,0-1.415,1.9539C273.4981,62.73,273.4642,64.25,273.4642,65.7677Zm-20.2384,5.4869-.0067-.057c-1.0828.13-2.1822.1833-3.2444.41-1.3934.2972-1.9446,1.3-1.7363,2.8823a1.9853,1.9853,0,0,0,2.346,1.8906,14.8357,14.8357,0,0,0,4.0791-.7332,1.382,1.382,0,0,0,1.1119-1.3625c-.0247-.9733.3488-2.0378-.4676-2.88a1.0245,1.0245,0,0,0-.8252-.24C254.0633,71.1894,253.6447,71.2244,253.2258,71.2546Zm-36.287,1.32c-.5042.0225-1.0118.0162-1.5117.0752a10.9966,10.9966,0,0,0-1.6114.2943,2.3994,2.3994,0,0,0-1.8465,2.8673c.2445,1.3685.994,1.9413,2.5165,1.8586.7118-.0386,1.4212-.1458,2.128-.2476,2.8689-.4131,3.1675-.8174,2.8782-3.6964a1.1592,1.1592,0,0,0-1.2935-1.2166C217.7784,72.5137,217.3587,72.5537,216.9388,72.5746Z" style="fill:#fff"/><path d="M315.0829,66.9845c0-4.64.0205-9.2807-.0152-13.9207-.0083-1.0891.4142-1.545,1.486-1.5253,1.56.0286,3.1224.05,4.6811-.0039,1.088-.0376,1.52.3912,1.5114,1.48-.042,5.315-.0452,10.63-.0621,15.9453-.001.2953-.0053.5906-.0023.8858a.982.982,0,0,0,.5892,1.0259c.5031.1922.796-.1657,1.0421-.5092a65.6393,65.6393,0,0,0,4.3419-6.2075,5.1665,5.1665,0,0,1,5.7929-2.8955,31.43,31.43,0,0,0,3.533-.0332c1.0874.0133,1.2854.414.6856,1.33-2.3533,3.5948-4.6949,7.1975-7.09,10.7639a2.0063,2.0063,0,0,0-.0519,2.4362c2.08,3.4691,4.1161,6.9648,6.1586,10.4564.25.4276.6117.8961.3149,1.4023-.2759.4706-.8182.3258-1.2745.3226-1.687-.0118-3.3759-.077-5.06-.0166a2.4864,2.4864,0,0,1-2.4064-1.2852c-1.4814-2.35-2.9989-4.6771-4.5128-7.0063-.3187-.49-.64-1.1087-1.36-.9048-.7481.212-.8086.9481-.8184,1.5663-.0312,1.9814-.01,3.9639.0178,5.9457.0183,1.3225-.3,1.61-1.6216,1.6077q-8.9818-.0135-17.9639.0232c-3.1609.01-6.3229.1037-9.4821.0406-1.2175-.0244-1.819-1.1471-2.3936-2.0389a9.9265,9.9265,0,0,1-1.3707-5.8234c.0737-2.5544.5027-4.9789,2.6749-6.6841a10.9065,10.9065,0,0,1,5.7422-2.1071c1.7606-.1891,3.5281-.3129,5.2918-.4738.6-.0547,1.2305-.1376,1.4276-.8274a1.6117,1.6117,0,0,0-.7392-1.7483,2.7894,2.7894,0,0,0-1.9169-.4916c-2.9112.0559-5.8171.1779-8.712.5241-1.4831.1773-1.77-.1174-1.6167-1.5673a14.9547,14.9547,0,0,0-.13-3.9077c-.12-.7632.0923-1.2538.8836-1.38,3.9126-.6242,7.8237-1.3566,11.8115-1.0041,5.0884.45,7.8933,3.3185,8.1121,8.44.16,3.7476.0953,7.5048.1314,11.2577.0037.379-.0078.76.0224,1.1368.0651.8149.4269,1.38,1.3313,1.3589.925-.022,1.0547-.6852,1.0548-1.4142q.0009-6.138-.0042-12.276,0-.9492,0-1.8984ZM304.9757,79.552c.0228-1.7227-.2037-2.2617-1.1505-2.2244a34.7051,34.7051,0,0,0-4.6436.4507,2.4075,2.4075,0,0,0-1.7762,2.9243,2.1615,2.1615,0,0,0,2.5494,1.873,16.1238,16.1238,0,0,0,2.873-.4026C304.9438,81.6558,304.9477,81.6721,304.9757,79.552Z" style="fill:#fff"/><path d="M127.0122,69.762c0-5.4857.0132-10.9715-.0121-16.4571-.0046-.9976.18-1.5936,1.3783-1.5778,4.5991.0607,9.2.0171,13.7984.0878,2.6865.0412,5.3082.4492,7.5253,2.1718,3.0634,2.38,3.5174,5.6952,3.215,9.2326a8.4717,8.4717,0,0,1-1.7859,4.9206,1.2373,1.2373,0,0,0,.07,1.9059c2.7358,2.4619,2.91,5.6837,2.5353,8.9866-.6642,5.8581-4.77,8.6842-11.4277,8.8932-3.7943.1191-7.5953.0248-11.3932.0282-.76.0007-1.5189.0093-2.2784.0132-1.3617.0071-1.62-.2426-1.62-1.62-.0011-2.7852.01-5.57.0126-8.3556q.0037-4.1145.0006-8.229Zm12.2,11.1544a26.06,26.06,0,0,0,3.6575-.1614,3.6028,3.6028,0,0,0,3.2963-3.7775,3.4691,3.4691,0,0,0-3.1411-3.64,36.2457,36.2457,0,0,0-7.2948-.1938c-.876.0037-1.19.633-1.1852,1.472.0089,1.5976-.0116,3.1954-.033,4.793-.0143,1.0643.5174,1.53,1.5564,1.5113C136.9934,80.9032,137.9188,80.9164,139.2125,80.9164Zm-.4442-14.72v.0168c.6316,0,1.2644.0236,1.8946-.0064a12.91,12.91,0,0,0,2.0047-.1877c1.6331-.3392,2.585-1.8111,2.5592-3.8522-.0237-1.88-.7658-2.8206-2.56-3.1809-2.2887-.4595-4.6116-.1735-6.9174-.2559-.8305-.03-1.2623.5794-1.2541,1.4344.0147,1.5157.05,3.0318.0318,4.5471a1.2968,1.2968,0,0,0,1.4623,1.4809C136.9153,66.2106,137.8419,66.1965,138.7683,66.1965Z" style="fill:#fff"/><path d="M179.1952,68.1281c0,3.6279-.0147,7.2558.0114,10.8835.0057.8032-.1757,1.4393-.99,1.7-3.0116.9645-5.8844,2.317-8.9443,3.1507a15.6176,15.6176,0,0,1-6.893.247,7.8275,7.8275,0,0,1-5.92-6.2356,43.8784,43.8784,0,0,1-.7881-8.0382c-.0414-4.2179-.0028-8.4367-.0553-12.6543-.014-1.1233.5006-1.5229,1.5133-1.5311,1.6025-.0129,3.2056-.0055,4.8074-.0466,1.0825-.0278,1.4816.4363,1.4743,1.5258-.034,5.1039-.0424,10.2085.0033,15.3123.04,4.405,1.3185,5.3784,5.6611,4.4488,2.2637-.4846,2.4915-.8146,2.4854-3.1509q-.0213-8.1611.015-16.322c.0049-1.6386.1743-1.7856,1.841-1.787,1.4339-.0011,2.8691.0476,4.3012-.0006,1.088-.0366,1.4989.384,1.4852,1.4882-.0456,3.6695-.0173,7.34-.0173,11.01Z" style="fill:#fff"/><path d="M137.7813,38.4546a4.5,4.5,0,0,1-4.7364,4.814,4.3692,4.3692,0,0,1-4.7226-4.691h2c0,1.8457.8916,2.7837,2.7226,2.7837a2.5979,2.5979,0,0,0,2.7071-2.9067V34.1782h-3.2461V32.2866h5.2754Z" style="fill:#fff"/><path d="M141.3018,35.47V39.439a1.8086,1.8086,0,0,0,1.83,2.03,1.9956,1.9956,0,0,0,1.9385-2.123V35.47h1.86v7.5986h-1.6768l-.123-1.0307a3.3785,3.3785,0,0,1-2.5684,1.1382c-1.8145,0-3.1377-1.3692-3.1377-3.7222V35.47Z" style="fill:#fff"/><path d="M150.3281,35.47l.1387.877a2.2343,2.2343,0,0,1,2.1377-1.0767,2.88,2.88,0,0,1,1.9541.7232l-.8467,1.63a1.8748,1.8748,0,0,0-1.3535-.4922,1.75,1.75,0,0,0-1.8916,1.9229v3.999H148.59V35.47Z" style="fill:#fff"/><path d="M161.2773,35.47h1.8v7.583h-1.7685l-.0928-1.1074a2.88,2.88,0,0,1-2.4609,1.3379,3.6683,3.6683,0,0,1-3.9063-4.0293,3.6918,3.6918,0,0,1,3.9522-3.9688,2.7838,2.7838,0,0,1,2.415,1.23Zm-4.5527,3.7842a2.1721,2.1721,0,0,0,2.2461,2.3066c2.9531,0,2.9531-4.5986,0-4.5986A2.16,2.16,0,0,0,156.7246,39.2544Z" style="fill:#fff"/><path d="M170.6113,34.7017l1.3848,1.0459-.8457,1.0761a3.2344,3.2344,0,0,1,.7988,2.2461,3.0088,3.0088,0,0,1-1.6,2.83,2.5507,2.5507,0,0,1,1.5693,2.5068c0,2.0918-1.6,3.3838-3.7988,3.3838s-3.8457-1.3379-3.8457-3.3838h1.8613a1.7892,1.7892,0,0,0,1.9844,1.63c1.0762,0,1.9229-.5845,1.9229-1.63s-.9844-1.5224-1.9229-1.5224a3.5477,3.5477,0,0,1-3.8457-3.8145,3.6984,3.6984,0,0,1,3.8457-3.8457,3.02,3.02,0,0,1,1.7373.4307ZM166.1357,39.07a1.9806,1.9806,0,1,0,3.9532,0,1.9827,1.9827,0,1,0-3.9532,0Z" style="fill:#fff"/><path d="M179.1611,35.47h1.8v7.583h-1.7685L179.1,41.9458a2.8809,2.8809,0,0,1-2.4609,1.3379,3.6683,3.6683,0,0,1-3.9063-4.0293,3.6925,3.6925,0,0,1,3.9531-3.9688,2.7835,2.7835,0,0,1,2.4141,1.23Zm-4.5527,3.7842a2.1721,2.1721,0,0,0,2.2461,2.3066c2.9531,0,2.9531-4.5986,0-4.5986A2.16,2.16,0,0,0,174.6084,39.2544Z" style="fill:#fff"/><path d="M188.126,43.0532V39.085a1.8085,1.8085,0,0,0-1.83-2.03,1.9955,1.9955,0,0,0-1.9385,2.1225v3.876h-1.86V35.4551h1.6767l.1231,1.0307a3.4167,3.4167,0,0,1,2.4912-1.1386c1.7842,0,3.2148,1.3383,3.2148,3.7226v3.9834Z" style="fill:#fff"/></svg>