<?xml version="1.0" encoding="utf-8"?>
<!-- Generator: Adobe Illustrator 22.0.1, SVG Export Plug-In . SVG Version: 6.00 Build 0)  -->
<svg version="1.1" id="Layer_1" xmlns="http://www.w3.org/2000/svg" xmlns:xlink="http://www.w3.org/1999/xlink" x="0px" y="0px"
	 viewBox="0 0 189 75.6" style="enable-background:new 0 0 189 75.6;" xml:space="preserve">
<style type="text/css">
	.st0{fill-rule:evenodd;clip-rule:evenodd;fill:#8CC53F;}
	.st1{fill-rule:evenodd;clip-rule:evenodd;fill:#FFFFFF;}
	.st2{fill-rule:evenodd;clip-rule:evenodd;fill:#ED2A7B;}
	.st3{fill:#FFFFFF;}
	.st4{fill-rule:evenodd;clip-rule:evenodd;fill:#39B44A;}
	.st5{fill-rule:evenodd;clip-rule:evenodd;fill:#25387B;}
	.st6{fill-rule:evenodd;clip-rule:evenodd;fill:#DE2128;}
	.st7{fill-rule:evenodd;clip-rule:evenodd;fill:#D3232B;}
</style>
<g>
	<path class="st0" d="M184,75.6H5c-2.8,0-5-2.3-5-5V5c0-2.8,2.3-5,5-5h179c2.8,0,5,2.3,5,5v65.6C189,73.4,186.8,75.6,184,75.6z"/>
	<g>
		<path class="st1" d="M130.2,27.1c0,3.1-0.2,20.5,0.1,22.1c1.2,0.3,2.6,0.1,3.8,0.1c1.3,0,1-1.2,1-2.5V35.8
			c0.4,0.3,2.7,4.3,3.2,5.3l4.2,7.3c0.9,1.3,2.1,1,4.5,1c0.8,0,1.5-0.6,1.5-1.5V27.1c0-1.4-1.7-1-4.1-1c-1.2,0-0.9,1-0.9,2.8v11.2
			c-0.4-0.1-0.5-0.4-0.7-0.7L136.9,29c-2-3.3-1.1-3-5.2-3C131.1,26.1,130.2,26.5,130.2,27.1"/>
		<path class="st1" d="M152.9,27.1v21.2c0,0.8,1.6,1,2.4,1c3,0.2,6.5,0.6,9.3-0.4c3.4-1.2,5.7-4.4,5.7-8c0-4.2,0.6-8.5-1.7-11.6
			c-0.9-1.3-2.3-2.4-4-2.9c-2.8-0.9-6.2-0.6-9.2-0.4C154.6,26.1,152.9,26.2,152.9,27.1 M160.8,44.9h-2.7V30.5c3.7,0,6.8-0.5,6.8,5.3
			C165,39.9,165.7,44.9,160.8,44.9z"/>
		<path class="st1" d="M38.7,37.7c0,5.5,1,10.1,6.4,11.6c3.1,0.8,7.5,0.2,9.8-2.4c2.4-2.7,2.3-6.6,2.3-10.2c0-3-0.4-5.9-2.3-8.1
			c-3.3-3.9-14.2-4.7-16,4.1C38.8,34.1,38.7,36.1,38.7,37.7 M44.3,40.7c0-2.6-0.4-7,0.8-8.8c0.9-1.4,2.1-1.2,3.5-1.2
			c4,0,3.2,6.1,3.2,9.4c0,2.6-0.8,4.5-3.5,4.8C45.8,45.1,44.3,43.3,44.3,40.7z"/>
		<path class="st1" d="M18.7,40.4c0.1,2,0.5,3.9,1.5,5.4c0.9,1.4,2.1,2.4,3.7,3.1c2.7,1.1,6.1,0.8,8.9,0.4c1.3-0.2,2.4-0.1,2.4-1.2
			V37.7c0-0.3-0.2-0.6-0.6-0.6c-5.6,0-4.7-0.8-4.7,3.5c0,1.4,0,2.8,0,4.1c-3.4,0.8-5.8-0.6-5.8-4.4c0-2.8-0.4-6.5,0.8-8.4
			c1-1.6,3.3-1.3,5.5-1.3l3.8,0.2c1.2,0,0.9,0.1,0.9-3.7c0-0.5-0.5-0.5-1-0.6c-1.4-0.3-4.7-0.7-6.1-0.6c-0.2,0-1.2,0.1-1.6,0.1
			c-4.6,0.4-7.8,3.8-7.8,9.1V40.4z"/>
		<path class="st1" d="M112,31.8v11.5c0,3,1.6,5.5,4.5,6c2.7,0.5,7.2,0.4,9.7-0.2c0.3-1.1,0.3-2.9,0-4c-2.8-0.7-7.3,0.4-8.4-0.6
			c-0.6-0.6-0.5-3.7-0.5-4.8h7.8c1.3,0,0.9-0.9,0.9-3.7c0-0.3-0.2-0.6-0.6-0.6h-8.1c0-4.7-0.1-4.9,2.9-4.9c1.9,0,4.3,0.2,5.9-0.1
			c0.3-1.1,0.3-2.9,0-4c-2.7-0.6-10.4-1.4-12.8,1.5C112.7,28.7,112,30.3,112,31.8"/>
		<path class="st1" d="M102.9,42.6c0,3.2-2.2,2.2-5.8,2.2c-0.9,0-1-0.1-1.8-0.2l-1.6,0c-0.3,1.1-0.1,2.2-0.1,3.5
			c0,1.6,7.8,1.6,9.5,1.1c0.8-0.2,1.4-0.4,2-0.8c0.6-0.3,1.3-0.8,1.8-1.2c2.2-2.1,2.3-6.6,0.4-8.8c-1.6-1.9-5.3-3.2-7.7-4.8
			c-0.9-0.6-1.1-0.7-1.1-1.7c0-1,1-1.5,1.9-1.5c2.7,0,4.8,0.3,7.5,0.3c0.3-1.1,0.1-2.3,0.1-3.7c0-0.9-3.1-1-4.2-1.1
			c-1.2-0.2-3.9-0.2-5.1,0c-3,0.4-5.5,1.9-5.8,5.1c-0.4,4.6,2.2,6,5.3,7.8c0.6,0.4,1.2,0.7,1.8,1C100.9,40.5,102.9,41.4,102.9,42.6"
			/>
		<path class="st1" d="M75.8,34.6v15.6c0.6,0,2.4-0.8,3.1-1.1c1-0.4,2.1-0.8,3.1-1.2l6.2-2.2V30.2L75.8,34.6z M83.3,38.7l0.1,0.1
			c0.5,0,1.1-0.3,1.4-0.4l0.4-0.2L85,38.5c-0.7,1-3.9,6.9-4.4,7.3c0.2-0.9,1-3.3,1-4c-0.8,0.2-1.3,0.6-2.1,0.7l2-6.4
			c0.3-0.6,2.3-1,3.6-1.6l0.3-0.1l-0.2,0.3C85.1,35.1,83.4,38.4,83.3,38.7z"/>
		<path class="st1" d="M62.9,45.8c0.9,0.2,3.6,1.4,4.6,1.6V31.8L62.9,30L62.9,45.8z"/>
		<polygon class="st1" points="80.3,26.9 75.9,25.3 63.2,29.6 67.5,31.3 		"/>
		<polygon class="st1" points="83.4,38.9 83.3,38.7 83.1,39 		"/>
		<polygon class="st1" points="85,38.5 85.2,38.3 84.8,38.4 		"/>
		<polygon class="st1" points="85.3,34.7 85.5,34.5 85.2,34.6 		"/>
		<polygon class="st1" points="87.7,29.8 83.5,28.2 70.9,32.6 75.2,34.3 		"/>
		<path class="st1" d="M70.6,48.7c0.9,0.2,3.6,1.4,4.6,1.6V34.7l-4.6-1.8L70.6,48.7z"/>
	</g>
</g>
</svg>
