<?xml version="1.0" encoding="utf-8"?>
<!-- Generator: Adobe Illustrator 22.0.1, SVG Export Plug-In . SVG Version: 6.00 Build 0)  -->
<svg version="1.1" id="Layer_1" xmlns="http://www.w3.org/2000/svg" xmlns:xlink="http://www.w3.org/1999/xlink" x="0px" y="0px"
	 viewBox="0 0 189 75.6" style="enable-background:new 0 0 189 75.6;" xml:space="preserve">
<style type="text/css">
	.st0{fill-rule:evenodd;clip-rule:evenodd;fill:#8CC53F;}
	.st1{fill-rule:evenodd;clip-rule:evenodd;fill:#FFFFFF;}
	.st2{fill-rule:evenodd;clip-rule:evenodd;fill:#ED2A7B;}
	.st3{fill:#FFFFFF;}
	.st4{fill-rule:evenodd;clip-rule:evenodd;fill:#39B44A;}
	.st5{fill-rule:evenodd;clip-rule:evenodd;fill:#25387B;}
	.st6{fill-rule:evenodd;clip-rule:evenodd;fill:#DE2128;}
	.st7{fill-rule:evenodd;clip-rule:evenodd;fill:#D3232B;}
</style>
<g>
	<path class="st4" d="M184,75.6H5c-2.8,0-5-2.3-5-5V5c0-2.8,2.3-5,5-5h179c2.8,0,5,2.3,5,5v65.6C189,73.4,186.8,75.6,184,75.6z"/>
	<g>
		<g>
			<path class="st3" d="M156,45.3c-0.1,0.7-0.2,1.4-0.4,2c-1,4.4-3.5,7.7-7.4,10c-2.5,1.5-5.3,2.2-8.3,1.9
				c-5.1-0.4-9.2-2.6-11.8-7.2c-1-1.7-1-1.7,0.3-3.2c0.3-0.3,0.5-0.6,0.8-1c0.2-0.3,0.4-0.3,0.5,0.1c1.2,3.7,3.6,6.2,7.2,7.5
				c4.5,1.6,8.6,0.7,12.1-2.5c2.1-1.9,3.5-4.3,3.8-7.2c0.3-2.8,0.4-5.7-0.6-8.5c-1.5-4.3-5.8-7.6-10.4-7.9c-3.5-0.2-6.4,0.9-9,3.2
				c-3.6,3.1-6.6,6.7-9.5,10.4c-0.2,0.2-0.4,0.5-0.5,0.7c0,0.1-0.1,0.1-0.2,0.1c-0.1,0-0.1-0.1-0.1-0.2c0-1.4,0-2.7,0-4.1
				c0-0.2,0.1-0.3,0.2-0.5c1.8-2.3,3.7-4.6,5.8-6.6c1.7-1.6,3.4-3.2,5.5-4.3c4.2-2.3,8.6-2.6,13-0.6c5.1,2.3,8.1,6.4,9,11.9
				c0,0.2,0,0.5,0.1,0.7C156,41.9,156,43.6,156,45.3z"/>
		</g>
		<g>
			<path class="st3" d="M67.5,45.9c0,2.5,0,5,0,7.5c0,0.5-0.2,0.9-0.5,1.3c-2.1,2.2-4.7,3.6-7.6,4.5c-4.4,1.3-8.8,1.4-13.2-0.1
				c-6.3-2.2-10.4-6.6-12.3-13c-1.2-3.9-1.2-8,0-11.9c1.1-3.4,3-6.3,5.7-8.6c3.1-2.8,6.7-4.5,10.8-5.2c2.2-0.4,4.4-0.3,6.6-0.2
				c2,0.1,4,0.5,6,1.2c0.7,0.3,0.7,0.3,0.7,1.1c0,0.8,0,1.5,0,2.3c0,0.3-0.1,0.4-0.4,0.2c-2.1-1.2-4.5-1.6-6.9-1.8
				C54.2,23,52,23,49.8,23.5c-3.4,0.8-6.3,2.4-8.7,4.9c-2.6,2.6-4.3,5.7-4.7,9.4c-0.5,4.9,0.4,9.5,3.7,13.4c2.6,3.1,5.9,5,9.9,5.6
				c3.5,0.5,7,0.2,10.4-1.1c1.4-0.5,2.6-1.3,3.7-2.2c0.3-0.2,0.4-0.5,0.4-0.9c0-3.7,0-7.5,0-11.2c0-0.5-0.1-0.6-0.6-0.6
				c-3.7,0-7.5,0-11.2,0c-0.7,0-0.7,0-0.7-0.7c0-0.6,0-1.3,0-1.9c0-0.4,0.1-0.5,0.5-0.5c0.9,0,1.9,0,2.8,0c3.9,0,7.8,0,11.6,0
				c0.8,0,0.8,0,0.8,0.7C67.5,40.9,67.5,43.4,67.5,45.9z"/>
		</g>
		<g>
			<path class="st3" d="M120.4,49.5c0,3,0,6,0,9c0,0.5-0.1,0.7-0.6,0.6c-0.7,0-1.4,0-2.1,0c-0.3,0-0.4-0.1-0.4-0.4
				c0-0.2,0-0.3,0-0.5c0-5.6,0-11.2,0-16.8c0-2.1-0.4-4.1-1.5-6c-2.1-3.7-5.3-5.8-9.5-6.1c-6.4-0.6-12,4.2-12.8,10
				c-0.4,3-0.6,6.1,0.7,9c1.9,4.4,5.3,7,10.1,7.6c1.8,0.2,3.5-0.1,5.1-0.7c0.5-0.2,0.5-0.2,0.5,0.4c0,0.7,0,1.3,0,2
				c0,0.5-0.2,0.7-0.6,0.8c-1.7,0.6-3.5,0.8-5.3,0.7c-3.9-0.4-7.1-2-9.8-4.8c-2.6-2.8-4.1-6.1-4.1-10c0-1.6-0.1-3.2,0.1-4.8
				c0.3-2.9,1.5-5.5,3.3-7.8c2.5-3,5.7-4.9,9.5-5.4c4.5-0.6,8.5,0.6,11.9,3.5c2.9,2.5,4.6,5.6,5.2,9.4c0.1,0.6,0.1,1.2,0.1,1.8
				C120.4,43.9,120.4,46.7,120.4,49.5z"/>
		</g>
		<g>
			<path class="st3" d="M57.1,42.9c1.5,0,3.1,0,4.6,0c0.4,0,0.6,0.1,0.6,0.6c0,2.7,0,5.5,0,8.2c0,0.4-0.2,0.6-0.5,0.8
				c-1.2,0.9-2.6,1.5-4.1,1.8c-3,0.7-6,0.9-8.9,0c-5.6-1.8-9-5.7-10.1-11.4c-0.6-3-0.3-6.1,1-8.9c2.1-4.3,5.5-7,10.1-8.2
				c4.5-1.1,9-0.7,13.3,1.3c0.5,0.2,0.6,0.5,0.6,1c0,0.8,0,1.7,0,2.5c0,0.1,0,0.2-0.1,0.3c-0.1,0.1-0.2-0.1-0.3-0.1
				c-2.2-1.6-4.7-2.2-7.3-2.4c-2-0.1-4-0.1-5.9,0.5c-4.1,1.4-7.1,3.9-8.2,8.2c-0.9,3.7-0.4,7.4,2.1,10.5c1.9,2.4,4.4,3.8,7.5,4.1
				c2.5,0.2,4.9-0.1,7.3-0.9c0.3-0.1,0.5-0.3,0.5-0.7c0-1.2,0-2.4,0-3.6c0-0.4-0.2-0.5-0.5-0.5c-2.1,0-4.2,0-6.3,0
				c-0.5,0-0.7-0.2-0.6-0.6c0-0.6,0-1.3,0-1.9c0-0.5,0.2-0.6,0.6-0.6C54,42.9,55.5,42.9,57.1,42.9z"/>
		</g>
		<g>
			<path class="st3" d="M147.5,42.7c0-1.4,0.1-2.8-0.6-4.1c-1.2-2.4-3-3.7-5.7-3.9c-2.1-0.1-3.8,0.7-5.3,2.1
				c-2.5,2.3-4.6,4.9-6.9,7.5c-2.2,2.5-4.3,5.2-6.4,7.8c-0.1,0.1-0.1,0.3-0.3,0.2c-0.2,0-0.1-0.2-0.1-0.3c0-1.3,0-2.6,0-3.9
				c0-0.3,0.1-0.5,0.3-0.7c1.8-2.4,3.7-4.6,5.7-6.9c1.6-1.8,3.3-3.7,5.1-5.4c1.3-1.3,2.8-2.3,4.5-2.9c3.5-1.3,6.6-0.4,9.4,1.9
				c2.4,2,3.4,4.7,3.4,7.8c0,1.5,0.1,3-0.3,4.5c-0.9,3.9-4.4,7-8.3,7.5c-3.9,0.5-7.7-1.6-9.7-5.3c-0.5-0.9-0.8-1.8-1.1-2.8
				c-0.1-0.3,0-0.5,0.2-0.7c0.6-0.7,1.2-1.5,1.9-2.3c0.1-0.1,0.2-0.3,0.3-0.3c0.2,0,0.1,0.3,0.2,0.5c0.2,1.8,0.9,3.5,2,5
				c0.8,1.1,1.7,1.9,2.9,2.5c2.5,1.1,5.6,0.2,7.3-2c1-1.2,1.5-2.6,1.5-4.2C147.5,43.7,147.5,43.2,147.5,42.7z"/>
		</g>
		<g>
			<path class="st3" d="M111.9,49.6c0-2.8,0-5.5,0-8.3c0-3.4-2.2-6-5.5-6.6c-4.2-0.7-7.3,2.2-7.7,5.6c-0.2,1.7-0.2,3.4,0.1,5
				c0.5,3,3,5.1,6,5.3c1.7,0.1,3.3-0.3,4.7-1.2c0.1-0.1,0.2-0.2,0.4-0.2c0.1,0.1,0.1,0.3,0.1,0.4c0,0.7,0,1.4,0,2.2
				c0,0.5-0.2,0.8-0.6,1c-2.1,1.1-4.4,1.3-6.6,0.6c-4.2-1.3-6.7-4.2-7.2-8.5c-0.2-2.1-0.3-4.3,0.3-6.4c1.1-3.7,4.5-6.6,8.3-7
				c5.3-0.6,10,3,10.8,8.3c0.1,0.5,0.1,1.1,0.1,1.6c0,5.7,0,11.3,0,17c0,0.7,0,0.7-0.8,0.7c-0.6,0-1.2,0-1.8,0
				c-0.5,0-0.6-0.2-0.6-0.6C111.9,55.6,111.9,52.6,111.9,49.6z"/>
		</g>
		<g>
			<path class="st3" d="M74,49.5c0,3,0,6,0,9c0,0.8,0,0.8-0.8,0.8c-0.6,0-1.2,0-1.8,0c-0.5,0-0.6-0.2-0.6-0.6c0-2.5,0-5,0-7.5
				c0-3.2,0-6.4,0-9.6c0-3.6,0.9-6.8,3.1-9.7c2.4-3.1,5.6-4.9,9.5-5.5c2.7-0.4,5.3-0.2,7.8,0.7c0.7,0.3,1.4,0.6,2,1
				c0.3,0.2,0.4,0.3,0.1,0.6c-0.5,0.5-1,1.1-1.5,1.7c-0.2,0.3-0.4,0.3-0.7,0.2c-4.5-1.9-8.8-1.5-12.8,1.4c-2.5,1.8-3.8,4.5-4.2,7.6
				c-0.3,2-0.1,4-0.1,6C74,46.8,74,48.1,74,49.5z"/>
		</g>
		<g>
			<path class="st3" d="M79.3,49.7c0,2.9,0,5.9,0,8.8c0,0.7,0,0.7-0.7,0.7c-0.6,0-1.3,0-1.9,0c-0.4,0-0.6-0.1-0.6-0.6
				c0-1.2,0-2.3,0-3.5c0-4.4,0-8.8,0-13.3c0-1.5,0.1-2.9,0.7-4.3c1.5-3.5,4.2-5.5,8-6c1.7-0.2,3.3,0,4.8,0.6
				c0.7,0.2,0.6,0.3,0.3,0.9c-0.3,0.5-0.6,1.1-0.8,1.6c-0.2,0.4-0.3,0.5-0.8,0.4c-1.8-0.6-3.7-0.6-5.4,0.2c-2.4,1.1-3.6,3.1-3.7,5.6
				C79.3,43.8,79.3,46.8,79.3,49.7C79.3,49.7,79.3,49.7,79.3,49.7z"/>
		</g>
		<g>
			<path class="st3" d="M125.5,22.5c0-2.9,0-5.7,0-8.6c0-1.1,0-1.1,1.1-1.1c0.5,0,1,0,1.5,0c0.4,0,0.5,0.2,0.5,0.5
				c0,0.7,0,1.4,0,2.1c0,4.3,0,8.6,0,12.9c0,0.4-0.1,0.8-0.5,1.1c-0.8,0.7-1.5,1.5-2.2,2.3c-0.1,0.1-0.2,0.3-0.3,0.3
				c-0.2-0.1-0.1-0.3-0.1-0.5c0-0.2,0-0.4,0-0.6C125.5,28.2,125.5,25.3,125.5,22.5z"/>
		</g>
		<g>
			<path class="st3" d="M130.8,20.3c0-2.3,0-4.5,0-6.8c0-0.5,0.1-0.6,0.6-0.6c0.7,0,1.3,0,2,0c0.5,0,0.5,0.2,0.5,0.6
				c0,3.7,0,7.3,0,11c0,0.9-0.2,1.5-1.1,1.9c-0.6,0.3-1.1,0.8-1.6,1.2c-0.1,0.1-0.2,0.2-0.3,0.2c-0.2-0.1-0.1-0.2-0.1-0.4
				C130.8,24.9,130.8,22.6,130.8,20.3z"/>
		</g>
	</g>
</g>
</svg>
