<svg xmlns="http://www.w3.org/2000/svg" viewBox="0 0 360 130"><title>icon marketplace home lengkap</title><rect width="360" height="130" rx="15.3333" ry="15.3333" style="fill:#eb1e1e"/><path d="M182.6465,64.9448c0-10.0675.0423-20.1353-.044-30.202-.0135-1.5679.4574-1.8421,1.88-1.7994,6.2709.1882,12.5558-.2759,18.8179.3843a39.113,39.113,0,0,1,15.008,4.4c6.7946,3.7435,10.8793,9.5564,12.7259,16.9747a41.8074,41.8074,0,0,1-.0237,20.6465c-2.8019,11.0321-10.2049,17.3324-20.9594,20.1108a58.7133,58.7133,0,0,1-14.2885,1.57c-3.8458.0323-7.693-.0437-11.5374.0356-1.2441.0257-1.6193-.2748-1.6117-1.58C182.673,85.306,182.6465,75.1253,182.6465,64.9448Zm10.5574.0258c0,6.9595.0137,13.9191-.0162,20.8785-.004.9443.1242,1.4247,1.2617,1.4135a70.4384,70.4384,0,0,0,10.3182-.63c8.7542-1.38,14.2276-6.2633,16.109-14.5225a34.5008,34.5008,0,0,0,.4559-11.8077c-1.0381-8.7669-5.9458-14.3569-14.4917-16.48a50.6444,50.6444,0,0,0-11.794-1.0368c-1.4258-.0153-1.9112.2463-1.8873,1.8161C193.2631,51.39,193.2038,58.1809,193.2039,64.9706Z" style="fill:#fff"/><path d="M281.7938,64.8621c0-10.0674.0351-20.1351-.0388-30.202-.0108-1.4689.423-1.7573,1.7879-1.7163,6.2709.1883,12.5546-.2676,18.8183.3754a41.7547,41.7547,0,0,1,12.4377,3.094,25.5184,25.5184,0,0,1,15.1392,17.3889,41.0834,41.0834,0,0,1-.0221,22.4443C326.7456,87.4431,318.7633,93.338,307.8,95.792A61.5159,61.5159,0,0,1,294.8273,97.03c-3.7891.0325-7.58-.0481-11.3675.0368-1.3074.0293-1.7083-.2924-1.7-1.6636C281.8223,85.2234,281.7938,75.0426,281.7938,64.8621Zm10.5573.06c0,6.96.0215,13.9191-.0227,20.8782-.0068,1.0737.2281,1.4769,1.3891,1.4633a70.8942,70.8942,0,0,0,10.1487-.6247c8.824-1.3779,14.3682-6.3432,16.188-14.6453a35.1919,35.1919,0,0,0,.4315-11.6428c-1.0077-8.7561-5.9168-14.3857-14.45-16.519a51.2517,51.2517,0,0,0-12.1328-1.0437c-1.2792-.0108-1.5954.3286-1.5832,1.5955C292.3858,51.2291,292.3511,58.0757,292.3511,64.9219Z" style="fill:#fff"/><path d="M174.053,57.3593c-.1424,5.6983.3121,12.7216-.1988,19.7252-.7729,10.5959-6.5384,16.967-17.0089,19.0349a60.6812,60.6812,0,0,1-9.9524.9194c-1.1021.0337-1.478-.3037-1.4375-1.4344.0831-2.3168.0739-4.64.003-6.9578-.0325-1.0621.21-1.452,1.3768-1.4579a27.8305,27.8305,0,0,0,8.7064-1.1425c5.0957-1.6883,7.2084-4.3151,7.4059-9.6835.4993-13.5735.1092-27.1542.218-40.7314.0213-2.658.0031-2.6581,2.6554-2.6581,2.2066,0,4.419.0969,6.6177-.0348,1.4169-.0849,1.6518.448,1.6417,1.719C174.0236,41.786,174.053,48.9153,174.053,57.3593Z" style="fill:#fff"/><path d="M261.5341,65.0724c0-10.1295.0318-20.2591-.0357-30.3881-.01-1.4478.4109-1.8024,1.7935-1.7432,2.5983.1113,5.2058.0724,7.8074.0111.9546-.0225,1.24.245,1.239,1.2215q-.0408,30.8127-.0025,61.6254c.0011.9534-.2589,1.28-1.2389,1.2583-2.6584-.06-5.3214-.0882-7.9775.0091-1.2736.0466-1.6214-.3261-1.6147-1.606C261.5575,85.3314,261.5341,75.2018,261.5341,65.0724Z" style="fill:#fff"/><path d="M245.7628,82.1525a6.3839,6.3839,0,1,1-6.4656,6.2A6.2935,6.2935,0,0,1,245.7628,82.1525Z" style="fill:#fff"/><circle cx="77.8952" cy="65" r="49.3847" style="fill:#fff"/><path d="M83.0244,18.2313A39.1878,39.1878,0,0,1,98.881,22.7484c17.6118,9.3723,26.6533,24.069,26.6,44.0778A40.996,40.996,0,0,1,121.7412,83.98c-.6051-.08-.8627-.5419-1.1386-1.005q-5.3449-8.972-10.7-17.9379c.0331-.6238.0246-1.2532.1061-1.8706a22.4638,22.4638,0,0,0-2.1712-12.902c-2.73-5.6665-7.498-8.98-13.2766-11.0288a2.0232,2.0232,0,0,0-.3508-1.5027C91.29,32.8424,88.3046,27.99,85.4933,23.0377,84.61,21.4816,83.2956,20.1118,83.0244,18.2313Z" style="fill:#f82a09"/><path d="M83.0244,18.2313c.2712,1.88,1.5854,3.25,2.4689,4.8064C88.3046,27.99,91.29,32.8424,94.21,37.7329a2.0232,2.0232,0,0,1,.3508,1.5027,32.0884,32.0884,0,0,0-10.94-1.3173l-.1148-.8729c.0076-1.1083.0348-2.2168.0192-3.3247-.06-4.24-1.0494-5.0567-5.2832-4.383-.0951.0151-.1883.0419-.2829.06-9.8953,1.9048-17.7843,6.8684-23.3352,15.3609-.3738.5718-.648.6794-1.2426.3766A16.65,16.65,0,0,0,49.824,43.56a2.7491,2.7491,0,0,0-3.2659,3.0892c.84,3.3814,1.3792,6.88,3.4966,9.8092.1189,2.0308-.397,4.0566-.0474,6.0892-.6781.0039-.8254-.5577-1.0922-1.0072-2.7-4.5486-5.46-9.0627-8.0866-13.6533-1.2821-2.2408-2.9621-4.2873-3.6047-6.868a27.324,27.324,0,0,1,4.76-6.751A47.8428,47.8428,0,0,1,64.2355,19.881,49.3577,49.3577,0,0,1,81.75,18.0025,10.8258,10.8258,0,0,1,83.0244,18.2313Z" style="fill:#f41f10"/><path d="M37.2238,41.0186c.6426,2.5807,2.3226,4.6272,3.6047,6.868,2.6265,4.5906,5.3866,9.1047,8.0866,13.6533.2668.45.4141,1.0111,1.0922,1.0072a10.1994,10.1994,0,0,0,.1116,1.1132c1.4236,6.8189,4.4586,12.9577,7.9383,18.9183.4031.69,1.0969,1.3305.9208,2.2812a62.6776,62.6776,0,0,1-6.6069-6.0212c-.663-.6323-1.2894-1.303-1.9414-1.947-1.8669-1.844-4-2.9485-6.6489-1.9379-2.8056,1.07-4.16,3.3171-4.4961,6.2058a8.8472,8.8472,0,0,0,2.054,6.7332,33.0255,33.0255,0,0,0,5.42,5.3919c.265.2712.51.5665.798.81a65.2175,65.2175,0,0,0,13.6227,9.0532c.9125.4411,1.1753.8874.8217,1.8727-.5485,1.5281-.946,3.11-1.4075,4.67C45.1147,103.2591,35.2971,91.898,31.53,75.5911c-2.7373-11.8479-.7968-23.161,5.1-33.7961A2.1475,2.1475,0,0,1,37.2238,41.0186Z" style="fill:#eb1e1e"/><path d="M109.9024,65.037q5.3516,8.9682,10.7,17.9379c.2759.4631.5335.925,1.1386,1.005a47.11,47.11,0,0,1-24.4961,24.95c-.7816.36-1.0936.3644-1.0425-.6507a43.4128,43.4128,0,0,0-.4309-6.6239,55.3944,55.3944,0,0,0,14.55-9.9469,9.0511,9.0511,0,0,0,3.0021-5.7717c.4361-3.8877-3.4837-7.6154-7.12-5.5011a24.142,24.142,0,0,0-2.6212,1.7187,58.9468,58.9468,0,0,1-10.3687,6.5345c-.9005.4337-1.5469.5629-2.0589-.4306.0614-1.1695-1.082-1.8627-1.1747-2.9712a16.4462,16.4462,0,0,0,4.9229-1.8789,24.0905,24.0905,0,0,0,7.6987-5.15A25.4692,25.4692,0,0,0,109.9024,65.037Z" style="fill:#f41f10"/><path d="M91.155,88.2578c.5118.9935,1.1582.8643,2.0587.4306a58.9468,58.9468,0,0,0,10.3687-6.5345,24.142,24.142,0,0,1,2.6212-1.7187c3.6364-2.1143,7.5562,1.6134,7.12,5.5011a9.0511,9.0511,0,0,1-3.0021,5.7717,55.3944,55.3944,0,0,1-14.55,9.9469c-.3-1.3967-.5892-2.7958-.905-4.1889-.1552-.6845-.2747-1.0691-1.3159-1.1443a34.57,34.57,0,0,1-18.2256-6.1871,2.9115,2.9115,0,0,1-1.3218-1.451,52.0471,52.0471,0,0,1,7.9893-.9388A53.1658,53.1658,0,0,1,91.155,88.2578Z" style="fill:#f1e6e3"/><path d="M60.5934,109.69c.4615-1.5593.859-3.1415,1.4075-4.67.3536-.9853.0908-1.4316-.8217-1.8727a65.2175,65.2175,0,0,1-13.6227-9.0532c-.2885-.2434-.533-.5387-.798-.81.503-.384,1.0123-.1721,1.5015.0118,6.3818,2.3984,12.6926,5.0161,19.1742,7.1035,2.5509.8214,2.7358,2.3752,2.8209,4.3222.0841,1.9239-.05,3.8575.0421,5.7807.0643,1.3494-.5481,1.7837-1.7256,1.545A32.6555,32.6555,0,0,1,60.5934,109.69Z" style="fill:#f1e6e3"/><path d="M58.978,84.86c.1761-.9507-.5177-1.5908-.9208-2.2812-3.48-5.9606-6.5147-12.0994-7.9383-18.9183a10.1994,10.1994,0,0,1-.1116-1.1132c-.35-2.0326.1663-4.0584.0474-6.0892,1.6171,1.0089,3.2155,2.05,4.8584,3.0149a2.4648,2.4648,0,0,1,1.2,2.5108,29.7032,29.7032,0,0,0,.1074,5.1765c.5213,3.3762,2.081,6.3429,3.4978,9.3927,1.73,3.7249,3.6416,7.41,4.2127,11.5684l-.0619.497a25.3392,25.3392,0,0,1-4.5879-3.3131c-.0316-.206.0531-.4918-.3186-.4641Z" style="fill:#f1e6e3"/><path d="M63.8691,88.6182l.0619-.497c1.3653-.7934,2.7026-1.6407,4.1029-2.3666,1.7982-.9322,3.6171-1.6789,5.7033-.6422a10.6163,10.6163,0,0,0,2.6164.5626A36.2434,36.2434,0,0,0,89.98,85.2866c.0927,1.1085,1.2361,1.8017,1.1747,2.9712a53.1624,53.1624,0,0,0-9.1621-.513,52.0471,52.0471,0,0,0-7.9893.9388A27.4277,27.4277,0,0,0,68.3176,90.01C66.38,90.7358,65.0407,90.0738,63.8691,88.6182Z" style="fill:#eb1e1e"/><path d="M58.9626,84.841c.3717-.0277.287.2581.3186.4641Q59.1219,85.0732,58.9626,84.841Z" style="fill:#eb1e1e"/><path d="M76.3536,85.675a10.6163,10.6163,0,0,1-2.6164-.5626c-2.0862-1.0367-3.9051-.29-5.7033.6422-1.4.7259-2.7376,1.5732-4.1029,2.3666-.5711-4.1579-2.4822-7.8435-4.2127-11.5684-1.4168-3.05-2.9765-6.0165-3.4978-9.3927a29.7032,29.7032,0,0,1-.1074-5.1765,2.4648,2.4648,0,0,0-1.2-2.5108c-1.6429-.9651-3.2413-2.006-4.8584-3.0149-2.1174-2.9294-2.6568-6.4278-3.4966-9.8092A2.7491,2.7491,0,0,1,49.824,43.56a16.65,16.65,0,0,1,3.5569,1.5759c.5946.3028.8688.1952,1.2426-.3766,5.5509-8.4925,13.44-13.4561,23.3352-15.3609.0946-.0183.1878-.0451.2829-.06,4.2338-.6737,5.2234.1427,5.2832,4.383.0156,1.1079-.0116,2.2164-.0192,3.3247-1.1212.1885-2.1806-.3342-3.2919-.2819a30.4386,30.4386,0,0,0-11.4558,2.518A25.9962,25.9962,0,0,0,59.404,46.33c-.2961.3584-.5424.7145-.34,1.17.3835.8636,2.5849,1.2505,3.2582.5389a30.2452,30.2452,0,0,1,7.5219-5.7763A34.4572,34.4572,0,0,1,83.62,37.9183a32.0884,32.0884,0,0,1,10.94,1.3173c5.7786,2.0484,10.5465,5.3623,13.2766,11.0288a22.4638,22.4638,0,0,1,2.1712,12.902c-.0815.6174-.073,1.2468-.1061,1.8706a25.4692,25.4692,0,0,1-7.3007,13.2212,24.0905,24.0905,0,0,1-7.6987,5.15c-.0865-.729-1.036-.7311-1.1726-1.5179-.27-1.5522-1.461-1.7053-2.7381-1.4679a41.2136,41.2136,0,0,0-6.57,1.3786c-2.12.7709-4.7017.7644-6.1455,2.9928-.2276.3512-.6589.3595-1.0547.3488C76.8188,85.1311,76.4323,85.1537,76.3536,85.675Zm30.6819-22.1944a20.4448,20.4448,0,0,1-3.9235,1.4171,37.0074,37.0074,0,0,1-12.7984.2036c-1.1265-.1432-2.6093-1.0675-3.25-.443-.7548.7351-.0625,2.2832.041,3.4727.3687,4.2347,3.1537,7.6075,6.6623,7.9746a10.7293,10.7293,0,0,0,10.04-4.216,23.0764,23.0764,0,0,0,2.4053-4.413c1.3954-.4362,1.9429-1.6046,2.3908-2.8291.2556-.6986.9147-1.6415.2893-2.109C108.4061,62.1754,107.5886,62.9775,107.0355,63.4806ZM74.2236,55.043a7.8262,7.8262,0,0,0-.6252-2.7178,4.1884,4.1884,0,0,0-7.1194-1.1959,7.1473,7.1473,0,0,0-1.1613,8.1565A4.1081,4.1081,0,0,0,72,60.4182,7.1644,7.1644,0,0,0,74.2236,55.043ZM57.528,54.651a1.96,1.96,0,0,0-.405-1.6535c-2.1775-2.1781-4.5816-4.0995-6.9069-6.1094-.331-.2861-.7173-.7661-1.2631-.4093-.55.36-.4077.92-.2991,1.4429a16.4458,16.4458,0,0,0,4.706,8.2525c.824.8351,2.1338,1.7843,2.9617,1.4715C57.304,57.2746,57.32,55.6352,57.528,54.651Z" style="fill:#fefefe"/><path d="M83.62,37.9183a34.4572,34.4572,0,0,0-13.7763,4.344,30.2452,30.2452,0,0,0-7.5219,5.7763c-.6733.7116-2.8747.3247-3.2582-.5389-.2024-.4557.0439-.8118.34-1.17a25.9962,25.9962,0,0,1,9.3539-7.048,30.4386,30.4386,0,0,1,11.4558-2.518c1.1113-.0523,2.1707.47,3.2919.2819Z" style="fill:#f1e6e3"/><path d="M76.3536,85.675c.0787-.5213.4652-.5439.8689-.5329.3958.0107.8271.0024,1.0547-.3488,1.4438-2.2284,4.0254-2.2219,6.1455-2.9928a41.2136,41.2136,0,0,1,6.57-1.3786c1.2771-.2374,2.4685-.0843,2.7381,1.4679.1366.7868,1.0861.7889,1.1726,1.5179A16.4462,16.4462,0,0,1,89.98,85.2866,36.2434,36.2434,0,0,1,76.3536,85.675Z" style="fill:#f1e6e3"/><path d="M106.2117,67.4766a23.0764,23.0764,0,0,1-2.4053,4.413,10.7293,10.7293,0,0,1-10.04,4.216c-3.5086-.3671-6.2936-3.74-6.6623-7.9746-.1035-1.1895-.7958-2.7376-.041-3.4727.6411-.6245,2.1239.3,3.25.443a37.0074,37.0074,0,0,0,12.7984-.2036,20.4448,20.4448,0,0,0,3.9235-1.4171A26.9693,26.9693,0,0,1,106.2117,67.4766Z" style="fill:#eb1e1e"/><path d="M74.2236,55.043A7.1644,7.1644,0,0,1,72,60.4182a4.1081,4.1081,0,0,1-6.6824-1.1324,7.1473,7.1473,0,0,1,1.1613-8.1565,4.1884,4.1884,0,0,1,7.1194,1.1959A7.8262,7.8262,0,0,1,74.2236,55.043Zm-5.4212-1.1073a.9734.9734,0,0,0-.99-.9691.9646.9646,0,1,0-.0836,1.9268A1.0167,1.0167,0,0,0,68.8024,53.9357Z" style="fill:#303030"/><path d="M57.528,54.651c-.2078.9842-.224,2.6236-1.2064,2.9947-.8279.3128-2.1377-.6364-2.9617-1.4715a16.4458,16.4458,0,0,1-4.706-8.2525c-.1086-.523-.251-1.0832.2991-1.4429.5458-.3568.9321.1232,1.2631.4093,2.3253,2.01,4.7294,3.9313,6.9069,6.1094A1.96,1.96,0,0,1,57.528,54.651Z" style="fill:#f1e6e3"/><path d="M106.2117,67.4766a26.9693,26.9693,0,0,0,.8238-3.996c.5531-.5031,1.3706-1.3052,1.8563-.9421.6254.4675-.0337,1.41-.2893,2.109C108.1546,65.872,107.6071,67.04,106.2117,67.4766Z" style="fill:#f1e6e3"/><path d="M68.8024,53.9357a1.0167,1.0167,0,0,1-1.0732.9577.9646.9646,0,1,1,.0836-1.9268A.9734.9734,0,0,1,68.8024,53.9357Z" style="fill:#f1e6e3"/></svg>