<?xml version="1.0" encoding="utf-8"?>
<!-- Generator: Adobe Illustrator 22.0.1, SVG Export Plug-In . SVG Version: 6.00 Build 0)  -->
<svg version="1.1" id="Layer_1" xmlns="http://www.w3.org/2000/svg" xmlns:xlink="http://www.w3.org/1999/xlink" x="0px" y="0px"
	 viewBox="0 0 189 75.6" style="enable-background:new 0 0 189 75.6;" xml:space="preserve">
<style type="text/css">
	.st0{fill-rule:evenodd;clip-rule:evenodd;fill:#8CC53F;}
	.st1{fill-rule:evenodd;clip-rule:evenodd;fill:#FFFFFF;}
	.st2{fill-rule:evenodd;clip-rule:evenodd;fill:#ED2A7B;}
	.st3{fill:#FFFFFF;}
	.st4{fill-rule:evenodd;clip-rule:evenodd;fill:#39B44A;}
	.st5{fill-rule:evenodd;clip-rule:evenodd;fill:#25387B;}
	.st6{fill-rule:evenodd;clip-rule:evenodd;fill:#DE2128;}
	.st7{fill-rule:evenodd;clip-rule:evenodd;fill:#D3232B;}
</style>
<g>
	<path class="st5" d="M184,75.6H5c-2.8,0-5-2.3-5-5V5c0-2.8,2.3-5,5-5h179c2.8,0,5,2.3,5,5v65.6C189,73.4,186.8,75.6,184,75.6z"/>
	<g>
		<polygon class="st1" points="115.5,49.9 123.9,10.1 155.1,10.1 153,20 137.4,20 136.3,25 149.6,25 147.5,35 134.3,35 133.2,39.9 
			148.8,39.9 146.7,49.9 		"/>
		<path class="st6" d="M28.2,49.9C55.9,36.6,93.5,28.2,127.7,25c9.3-0.9,18.4-1.3,31.2-1.3c0.5,0,1.3-0.2,2-0.3l-2.6,12.3
			c-0.1,0.7-1.2,1-2.1,1C78,36.6,31.2,49.9,31.2,49.9L28.2,49.9z"/>
		<polygon class="st1" points="70.2,49.9 78.5,10.1 93.5,10.1 102.3,28.2 106.1,10.1 121.1,10.1 112.7,49.9 97.8,49.9 89,31.2 
			85.1,49.9 		"/>
		<path class="st1" d="M55.9,33.3l4.9-23.2h14.9L69.9,38c-1.8,8.6-8.5,11.9-17.4,11.9h-11L43.9,38h5C52.6,38,55.2,36.6,55.9,33.3"/>
		<polygon class="st3" points="103.8,63.1 104.1,61 107.4,61 107.7,58.8 104.4,58.8 104.6,57.1 108.1,57.1 108.4,54.9 103,54.9 
			101.6,65.4 107.2,65.4 107.5,63.1 		"/>
		<path class="st3" d="M115.5,54.9h-2.3l-1.1,1.9c-0.2,0.3-0.4,0.6-0.6,1c-0.2-0.5-0.3-0.8-0.3-0.9l-0.7-2.1h-2l1.7,5.2l-3,5.3h2.4
			l1-1.7c0.2-0.4,0.4-0.7,0.5-1c0.1,0.3,0.2,0.6,0.3,1l0.5,1.7h2.1l-1.7-5L115.5,54.9z"/>
		<path class="st3" d="M120.8,57.6c0-0.6-0.1-1.1-0.3-1.5c-0.2-0.4-0.4-0.8-0.8-1c-0.3-0.2-0.7-0.3-1.3-0.3h-2.9l-1.4,10.5h1.9
			l0.5-3.8h0.6c0.6,0,1,0,1.2-0.1c0.4-0.1,0.7-0.2,1-0.4c0.2-0.2,0.5-0.4,0.7-0.7c0.2-0.3,0.4-0.7,0.5-1.2
			C120.8,58.7,120.8,58.2,120.8,57.6 M117.3,57.1h0.7c0.5,0,0.7,0.1,0.7,0.1c0.1,0,0.1,0.1,0.2,0.2c0.1,0.1,0.1,0.3,0.1,0.5
			c0,0.3-0.1,0.6-0.2,0.9c-0.1,0.2-0.3,0.4-0.4,0.5c-0.1,0.1-0.4,0.2-1.2,0.2H117L117.3,57.1z"/>
		<path class="st3" d="M125.9,61.7c-0.1-0.2-0.2-0.5-0.3-0.6c0.5-0.2,1-0.5,1.3-1c0.4-0.6,0.5-1.3,0.5-2.2c0-0.6-0.1-1.2-0.3-1.6
			c-0.2-0.5-0.5-0.8-0.8-1c-0.3-0.2-0.7-0.3-1.3-0.3H122l-1.4,10.5h1.9l0.6-4.1h0.3c0.3,0,0.4,0.1,0.4,0.1c0.1,0.1,0.3,0.4,0.5,1.2
			c0.3,1.2,0.6,2,0.7,2.6l0,0.2h2l-0.1-0.4C126.5,63.6,126.2,62.5,125.9,61.7 M123.6,57.1h1.2c0.5,0,0.6,0.1,0.6,0.1
			c0.1,0.1,0.2,0.3,0.2,0.6c0,0.3-0.1,0.5-0.2,0.8c-0.1,0.2-0.2,0.4-0.4,0.5c-0.1,0.1-0.4,0.2-1.3,0.2h-0.4L123.6,57.1z"/>
		<polygon class="st3" points="133.1,61 133.4,58.8 130.1,58.8 130.3,57.1 133.8,57.1 134.1,54.9 128.7,54.9 127.3,65.4 132.9,65.4 
			133.2,63.1 129.5,63.1 129.8,61 		"/>
		<path class="st3" d="M137.1,56.9c0.3,0,0.5,0.1,0.6,0.3c0.2,0.2,0.2,0.5,0.3,0.9l0,0.3l1.8-0.1l0-0.3c0-1-0.3-1.7-0.7-2.3
			c-0.5-0.6-1.1-0.9-2-0.9c-0.8,0-1.5,0.3-1.9,0.9c-0.4,0.6-0.6,1.4-0.6,2.2c0,0.5,0.1,1,0.2,1.4c0.1,0.4,0.3,0.7,0.6,1
			c0.2,0.2,0.6,0.5,1.1,0.9c0.6,0.4,0.8,0.6,0.8,0.7c0.1,0.2,0.2,0.3,0.2,0.6c0,0.3-0.1,0.5-0.2,0.7c-0.1,0.2-0.4,0.3-0.7,0.3
			c-0.5,0-0.7-0.2-0.8-0.4c-0.1-0.1-0.1-0.4-0.2-1.1l0-0.3l-1.8,0.1l0,0.3c0,0.7,0.1,1.3,0.2,1.9c0.2,0.6,0.5,1,1,1.3
			c0.5,0.3,1,0.5,1.6,0.5c0.9,0,1.6-0.4,2.1-1.1c0.5-0.7,0.7-1.5,0.7-2.4c0-0.8-0.2-1.4-0.5-1.9c-0.2-0.3-0.7-0.8-1.5-1.3
			c-0.6-0.4-0.8-0.6-0.9-0.7c-0.1-0.1-0.2-0.3-0.2-0.5c0-0.2,0.1-0.4,0.2-0.6C136.6,56.9,136.8,56.9,137.1,56.9"/>
		<path class="st3" d="M143.6,58.9c-0.6-0.4-0.8-0.6-0.9-0.7c-0.1-0.1-0.2-0.3-0.2-0.5c0-0.2,0.1-0.4,0.2-0.6
			c0.1-0.1,0.3-0.2,0.6-0.2c0.3,0,0.5,0.1,0.6,0.3c0.2,0.2,0.2,0.5,0.3,0.9l0,0.3l1.8-0.1l0-0.3c0-1-0.3-1.7-0.7-2.3
			c-0.5-0.6-1.1-0.9-2-0.9c-0.8,0-1.5,0.3-1.9,0.9c-0.4,0.6-0.6,1.4-0.6,2.2c0,0.5,0.1,1,0.2,1.4c0.1,0.4,0.3,0.7,0.6,1
			c0.2,0.2,0.6,0.5,1.1,0.9c0.6,0.4,0.8,0.6,0.8,0.7c0.1,0.2,0.2,0.3,0.2,0.6c0,0.3-0.1,0.5-0.2,0.7c-0.1,0.2-0.4,0.3-0.7,0.3
			c-0.5,0-0.7-0.2-0.8-0.4c-0.1-0.1-0.1-0.4-0.2-1.1l0-0.3l-1.8,0.1l0,0.3c0,0.7,0.1,1.3,0.2,1.9c0.2,0.6,0.5,1,1,1.3
			c0.5,0.3,1,0.5,1.6,0.5c0.9,0,1.6-0.4,2.1-1.1c0.5-0.7,0.7-1.5,0.7-2.4c0-0.8-0.2-1.4-0.5-1.9C144.8,59.8,144.3,59.4,143.6,58.9"
			/>
	</g>
</g>
</svg>
