<svg xmlns="http://www.w3.org/2000/svg" xmlns:xlink="http://www.w3.org/1999/xlink" viewBox="0 0 360 130"><defs><linearGradient id="a" x1="23.5" y1="64.8551" x2="131.5" y2="64.8551" gradientUnits="userSpaceOnUse"><stop offset="0" stop-color="#f7931e"/><stop offset="0.3648" stop-color="#f2584c"/><stop offset="0.6243" stop-color="#ef3369"/><stop offset="0.805" stop-color="#f718b8"/><stop offset="0.9359" stop-color="#fd07eb"/><stop offset="1" stop-color="#f0f"/></linearGradient></defs><title>icon marketplace home lengkap</title><rect width="360" height="130" rx="15.3333" ry="15.3333" style="fill:blue"/><path d="M23.5,38.4346V74.9028A2.5782,2.5782,0,0,0,24.7138,77.09l49.6456,30.59a6.1265,6.1265,0,0,0,5.2967.0256l49.2852-30.1711A5.27,5.27,0,0,0,131.5,73.0161V38.96a6.9946,6.9946,0,0,0-3.3958-5.9977l-17.3119-9.9871c-2.0281-1.2169-4.56-2.2232-6.5944-1.0165L84.216,35.4058C80,38.5,74.0031,37.3019,70.8,35.38L49.19,22.6373a4.3653,4.3653,0,0,0-4.2935.1523L25.5323,34.66A4.5224,4.5224,0,0,0,23.5,38.4346Z" style="fill:url(#a)"/><path d="M74.9777,64.3733c-9.2493-5.153-47.4514-26.402-50.8214-28.2795A4.2857,4.2857,0,0,0,23.5,38.2656V74.6235a2.574,2.574,0,0,0,1.3765,2.5647l49.7277,30.666c.4939.295,2.3833.596,2.375.0208-.0884-6.107-.1719-32.4654-.0814-40.1763A3.7452,3.7452,0,0,0,74.9777,64.3733Z" style="fill:#f15a24"/><path d="M129.5385,36.009,77.2917,65.3363A.5712.5712,0,0,0,77,65.8345v41.82c0,.3722.1183.7865.4375.5953l.8542-.0833a9.8047,9.8047,0,0,0,1.1666-.3542L129.8715,76.83a.5715.5715,0,0,0,.2009-.2122l1.3578-2.4894a.5711.5711,0,0,0,.07-.2736V38.173a.5709.5709,0,0,0-.096-.3169l-1.11-1.6658A.5715.5715,0,0,0,129.5385,36.009Z" style="fill:#f0f"/><path d="M51.1742,49.6537h4.2931a.5713.5713,0,0,1,.5713.5713V72.4893a.5713.5713,0,0,0,.5714.5713h7.2429a.5714.5714,0,0,1,.5714.5714v3.4774a.5714.5714,0,0,1-.5714.5714H51.7653a.5713.5713,0,0,1-.5713-.571l-.02-27.4561Z" style="fill:#fff"/><path d="M75.69,56.6756a8.2447,8.2447,0,0,1,5.6615,2.155.5676.5676,0,0,0,.9438-.4285v-.7377a.5714.5714,0,0,1,.5714-.5714h3.3957a.5714.5714,0,0,1,.5713.5714V77.15a.5713.5713,0,0,1-.5713.5714H82.8668a.5714.5714,0,0,1-.5714-.5714v-.7378a.5676.5676,0,0,0-.9438-.4285,8.2443,8.2443,0,0,1-5.6615,2.155c-5.6581,0-9.9529-4.8341-9.9529-10.7368S70.032,56.6756,75.69,56.6756Zm.8248,4.1318h0c-3.674,0-6.1068,2.89-6.1068,6.5947s2.4731,6.6048,6.1068,6.6048,6.106-2.89,6.106-6.6048-2.4326-6.5947-6.106-6.5947Z" style="fill:#fff"/><path d="M90.3654,74.1393l10.0329-11.9866a.5713.5713,0,0,0-.4381-.938H91.0993a.5714.5714,0,0,1-.5714-.5714V57.6644a.5714.5714,0,0,1,.5714-.5714h15.3746a.5714.5714,0,0,1,.5714.5714v2.8541a.5711.5711,0,0,1-.1333.3667L97.0535,72.6618a.5714.5714,0,0,0,.4381.9381h9.2267a.5713.5713,0,0,1,.5713.5714V77.15a.5713.5713,0,0,1-.5713.5714H90.9368a.5714.5714,0,0,1-.5714-.5714V74.1393Z" style="fill:#fff"/><path d="M186.54,46.534v1.4411h-6.0484V46.8745l.1309-.1571.1534-.1834,3.6327-4.3559h-3.7861V40.77h5.7866v1.18l-.1872.2282L182.64,46.534Z" style="fill:#fff"/><path d="M171.4748,46.3812V47.975h-4.6506V38.15h1.66v8.2314Z" style="fill:#fff"/><path d="M209.3345,47.9751h-1.572V37.593h1.572Z" style="fill:#fff"/><path d="M212.2165,47.9751h-1.572V37.593h1.572Z" style="fill:#fff"/><path d="M193.1545,42.1781l1.048-1.4084,1.5364-2.0662-2.8012,3.7545.0042.0058Z" style="fill:#fff"/><path d="M196.5673,37.593l-.8284,1.1106L194.2025,40.77l-1.0481,1.4084-.2125.2857-.0042-.0058-.0113.0148.0113-.0148-.212-.28L191.6608,40.77l-2.2712-3.001-.1338-.1757h-1.5693V47.9751H189.39V40.5734l.148.1963,1.0687,1.4084,2.3176,3.0562,2.2925-3.0562,1.056-1.4084.1256-.1676v7.373h1.7029V37.593Z" style="fill:#fff"/><path d="M156.578,42.2025c0,.8042-.0154,1.5393-.0156,2.3439,0,.2828.03.2647-.2615.2643-.4244-.0009-.7661-.0027-1.19.0012-.1095.0011-.1516-.0277-.1513-.1448.0033-2.1337.0022-4.181.0029-6.3151,0-.05-.02-.1134.0427-.14.07-.0292.104.0344.1421.0727.9718.9731,1.824,1.9592,2.7945,2.9337.3651.3666.7307.7328,1.0925,1.1025.0752.0767.1242.09.2088.005q1.8756-1.8951,3.7575-3.7836c.088-.0886.1761-.1763.2657-.2628.033-.0321.0613-.0813.1205-.0531.0538.0248.0509.0746.0509.1231q0,.4574,0,.9143c0,.3812-.0022.7623.0019,1.1433a.2839.2839,0,0,1-.0919.2255q-2.0388,2.0076-4.071,4.0218c-.1021.1011-.1608.1071-.2655.0027-.779-.7794-1.5126-1.5833-2.2953-2.3591-.0367-.0369-.0676-.0786-.1013-.118l-.0359.0221" style="fill:#fff"/><path d="M151.6278,43.0951v-4.713c0-.1968,0-.1972.1991-.1972q.6273,0,1.2552,0c.2315,0,.2317,0,.2317.2232v6.35c0,.4793.0054.9587-.0031,1.4382-.0025.1344.0288.1749.1717.1742,1.1062-.006,2.6663-.0031,3.7723-.0031.0384,0,.0772,0,.1155,0s.0821-.005.1009.0371a.0981.0981,0,0,1-.0344.1144q-.74.729-1.4791,1.46a.1838.1838,0,0,1-.1465.0413c-1.1877.0008-2.83,0-4.0174.0048-.1363,0-.1688-.0465-.1684-.1743q.0057-2.3783.0025-4.756" style="fill:#fff"/><path d="M163.3934,45.3754c0,.8255-.0027,1.6518.0029,2.4775.0009.1313-.0383.1744-.1715.1719-.452-.0069-.7083-.0077-1.16-.0017-.13.0017-.1636-.0443-.1631-.165.0031-1.1485.0029-2.0584.0006-3.2074a.2736.2736,0,0,1,.09-.2127c.4679-.4579.7365-.9193,1.2031-1.3782.0421-.0419.08-.1107.154-.0769.065.0294.044.0988.044.1536.0008.8261.0006,1.4125.0006,2.2389" style="fill:#fff"/><path d="M177.73,44.95a2.2573,2.2573,0,0,1-1.2694,1.5839,2.0234,2.0234,0,0,1-.2359.0834,1.901,1.901,0,0,1-1.319-.0834,2.0689,2.0689,0,0,1-.4521-.2718,2.4312,2.4312,0,0,1,0-3.749,2.04,2.04,0,0,1,.6209-.3353,1.9175,1.9175,0,0,1,1.15-.0191l0,0c.0223.0062.0446.0118.0665.0189a2.2342,2.2342,0,0,1,1.4384,1.65,2.4418,2.4418,0,0,1,0,1.1227m0-4.1806v.97a3.3119,3.3119,0,0,0-1.5049-.97v0a3.07,3.07,0,0,0-1.7719,0h0a3.3969,3.3969,0,0,0-1.8431,1.4084,4.058,4.058,0,0,0-.021,4.3561,3.4043,3.4043,0,0,0,1.8641,1.4411,3.0609,3.0609,0,0,0,1.7711,0,3.3133,3.3133,0,0,0,1.5053-.97v.97h1.6049V40.77Z" style="fill:#fff"/><path d="M204.8477,44.95a2.2585,2.2585,0,0,1-1.2692,1.5839,2.0664,2.0664,0,0,1-.2361.0834,1.9021,1.9021,0,0,1-1.3194-.0834,2.07,2.07,0,0,1-.4516-.2718,2.4312,2.4312,0,0,1,0-3.749,2.0381,2.0381,0,0,1,.6208-.3353,1.9175,1.9175,0,0,1,1.15-.0191l0,0c.0223.0062.0446.0118.0663.0189a2.2343,2.2343,0,0,1,1.4386,1.65,2.4418,2.4418,0,0,1,0,1.1227m0-4.1806v.97a3.3114,3.3114,0,0,0-1.5049-.97v0a3.07,3.07,0,0,0-1.7718,0h0a3.3979,3.3979,0,0,0-1.8434,1.4084,4.0585,4.0585,0,0,0-.0208,4.3561,3.4035,3.4035,0,0,0,1.8642,1.4411,3.0605,3.0605,0,0,0,1.771,0,3.3149,3.3149,0,0,0,1.5053-.97v.97h1.6047V40.77Z" style="fill:#fff"/><path d="M298.7742,68.248c-.0006,6.9559-.0441,13.9124.0286,20.8675.0193,1.8434-.5559,2.7046-2.4795,2.5131a19.716,19.716,0,0,0-2.9508-.0079c-1.475.0756-2.4876-.1241-2.5833-2.0318-.0758-1.5119-1.0284-.4277-1.4391-.1115a13.5318,13.5318,0,0,1-12.6623,2.2476c-6.3152-1.8318-9.7637-6.4318-11.21-12.5467A17.1537,17.1537,0,0,1,274.71,59.4432a13.8492,13.8492,0,0,1,14.3753,1.277c.4592.3111.893,1.0346,1.4994.6484.5292-.3371.269-1.0928.2713-1.6627.0176-4.2654.0555-8.5315-.0086-12.7959-.0256-1.704.6586-2.3312,2.3364-2.3067,6.3851.0932,5.5466-.6572,5.5824,5.3362C298.8031,56.0421,298.7747,62.1451,298.7742,68.248ZM282.1327,85.2152c5.25.0387,9.3868-4.263,9.43-9.8073.0448-5.721-3.94-10.1024-9.2553-10.1756-5.3485-.0736-9.458,4.2885-9.4162,9.9948C272.9329,80.8757,276.9123,85.1767,282.1327,85.2152Z" style="fill:#fff"/><path d="M253.0848,88.3046c-4.532,3.9766-9.5166,5.1428-14.9746,3.1448-6.3362-2.3195-9.6161-7.2071-10.59-13.709-1.1683-7.7968,2.6418-15.224,9.352-18.2736A13.6437,13.6437,0,0,1,251.3705,60.82c1.188.8607,1.8129.9377,1.9531-.7138a.6989.6989,0,0,1,.0913-.3781c1.7454-1.9854,4.0193-.6948,6.0406-.9085,1.3381-.1414,1.4773,1.0317,1.478,2.0679.0058,9.5034-.0088,19.0068.0184,28.51.0045,1.5616-.5848,2.3446-2.2094,2.2185-.5862-.0455-1.18.0129-1.7689-.0064C253.2311,91.4872,253.7951,92.1227,253.0848,88.3046Zm.7466-13.1438c-.022-5.6532-4.1828-10.004-9.4932-9.9267-5.3088.0772-9.24,4.31-9.24,9.9486,0,5.7032,4.0475,10.04,9.3622,10.0312C249.77,85.2053,253.8535,80.824,253.8314,75.1608Z" style="fill:#fff"/><path d="M185.3766,62.0289c.613-3.2879.613-3.2879,4.06-3.287,3.8881.0011,3.8883.0011,3.8884,3.7977q0,13.0845-.0013,26.1691c-.0013,2.8942-.009,2.8944-2.9993,2.9034q-.6886.0021-1.3773,0c-3.09-.003-3.09-.003-3.4463-2.9627a.4716.4716,0,0,0-.6847.1133c-4.1086,4.529-13.3557,4.8643-18.7255.22a17.3039,17.3039,0,0,1-6.23-15.7664c.7435-6.7668,4.18-11.8388,10.73-14.2733C175.9755,56.9415,180.8991,58.1223,185.3766,62.0289Zm.7758,13.1625c-.0025-5.9-3.8995-10.0352-9.37-9.9425-5.3623.0907-9.1011,4.0935-9.1362,9.7811-.0359,5.8407,3.8626,10.1642,9.1849,10.1863C182.2431,85.2386,186.1549,81.0318,186.1524,75.1914Z" style="fill:#fff"/><path d="M328.3787,88.4171c-6.83,6.3638-16.3315,4.2866-21.3763-1.3959-5.6426-6.3559-5.6615-17.3417.2641-23.86,4.4228-4.8652,13.1077-8.0223,20.9661-1.335.1-.0659.2842-.1261.29-.2009.2839-3.4412.5435-2.844,3.5409-2.8691,4.6986-.0392,4.207-.3613,4.2157,4.2329.0166,8.7179-.0366,17.4362.0374,26.1535.0159,1.8725-.5907,2.6948-2.4812,2.4774-.5175-.0595-1.0487.0124-1.572-.0115C328.8092,91.4508,329.0745,92.3428,328.3787,88.4171ZM310.6,75.1874c-.011,5.6649,4.0729,10.0259,9.3882,10.0255,5.2875-.0005,9.4149-4.4351,9.3709-10.0685-.0446-5.702-4.0907-9.909-9.52-9.8986C314.6133,65.2558,310.6114,69.5621,310.6,75.1874Z" style="fill:#fff"/><path d="M214.8091,65.9105c-4.8739,0-9.1262.006-13.3784-.0022-2.7149-.0053-2.8177-.0932-2.8086-2.721.017-4.917-.4879-4.43,4.4181-4.4417q9.6394-.0233,19.279,0c2.5053.0037,2.4856.2684,2.8256,2.636.5476,3.8128-2.11,5.8862-4.0925,8.3081C217.4,74.1506,213.62,78.5064,209.9,82.9113c-.2815.3333-.7666.6508-.4764,1.1716.2648.4752.81.3581,1.25.36,4,.0136,8,.0029,12,.0149,2.6679.0081,2.8321.1614,2.8352,2.746.0059,4.9149.3329,4.3935-4.27,4.405q-10.1313.0252-20.2627.0012c-2.624-.003-2.5247-.0982-2.7617-2.5973-.2542-2.68.8723-4.5679,2.5444-6.4868C205.3909,77.21,209.8759,71.7665,214.8091,65.9105Z" style="fill:#fff"/><path d="M136.9275,69.4812c0-6.4935-.01-12.9869.0049-19.48.0065-2.8117.202-3.0045,3.0412-2.9888,5.7466.0318,5.1634-.6459,5.1743,5.1377.0182,9.6417.0008,19.2835.0092,28.9252.0022,2.4671.12,2.58,2.5295,2.593,2.82.0156,5.6409.0325,8.4609.0023,1.41-.015,2.0206.6087,2.0069,2.0164-.0693,7.1459.7922,5.8124-5.5077,5.9132-4.1967.0672-8.3954.0159-12.5931.0113-3.0478-.0033-3.12-.0658-3.1237-3.0434Q136.9175,79.0245,136.9275,69.4812Z" style="fill:#fff"/></svg>