<?xml version="1.0" encoding="utf-8"?>
<!-- Generator: Adobe Illustrator 22.0.1, SVG Export Plug-In . SVG Version: 6.00 Build 0)  -->
<svg version="1.1" id="Layer_1" xmlns="http://www.w3.org/2000/svg" xmlns:xlink="http://www.w3.org/1999/xlink" x="0px" y="0px"
	 viewBox="0 0 189 75.6" style="enable-background:new 0 0 189 75.6;" xml:space="preserve">
<style type="text/css">
	.st0{fill-rule:evenodd;clip-rule:evenodd;fill:#8CC53F;}
	.st1{fill-rule:evenodd;clip-rule:evenodd;fill:#FFFFFF;}
	.st2{fill-rule:evenodd;clip-rule:evenodd;fill:#ED2A7B;}
	.st3{fill:#FFFFFF;}
	.st4{fill-rule:evenodd;clip-rule:evenodd;fill:#39B44A;}
	.st5{fill-rule:evenodd;clip-rule:evenodd;fill:#25387B;}
	.st6{fill-rule:evenodd;clip-rule:evenodd;fill:#DE2128;}
	.st7{fill-rule:evenodd;clip-rule:evenodd;fill:#D3232B;}
</style>
<g>
	<path class="st7" d="M184,75.5H5c-2.8,0-5-2.3-5-5V4.9c0-2.7,2.3-5,5-5h179c2.8,0,5,2.3,5,5v65.6C189,73.3,186.8,75.5,184,75.5z"/>
	<g>
		<path class="st3" d="M75.8,9c-0.1,2.4-0.5,4.8-0.8,7.1c-0.5,4-1,8.1-1.6,12.1c-0.5,4-1,8-1.5,12c-0.3,2.2-0.6,4.4-0.9,6.6
			c-3.5,0-7,0-10.6,0c1-7.7,2-15.4,3-23c-0.1,0-0.1,0-0.2-0.1c-3,7.7-6,15.4-9,23.1c-3.2,0-6.3,0-9.5,0c-1-7.7-2-15.5-3-23.2
			c-0.1,0-0.1,0-0.2,0c-1,7.7-2,15.5-3,23.2c-3.5,0-7,0-10.6,0c0-1.7,0.4-3.3,0.6-5c0.6-4.8,1.2-9.5,1.8-14.2
			c0.6-4.6,1.2-9.3,1.8-13.9c0.2-1.6,0.4-3.2,0.6-4.8c5.4,0,10.9,0,16.3,0c0.9,6.8,1.8,13.5,2.7,20.6c0.2-0.5,0.3-0.8,0.4-1
			c1.9-5,3.9-9.9,5.8-14.9c0.6-1.5,1.4-3,1.7-4.7C64.9,9,70.4,9,75.8,9z"/>
		<path class="st3" d="M114.2,9c-0.4,2.9-0.7,5.8-1.1,8.7c-6.7,0-13.3,0-19.9,0c-0.2,1.7-0.4,3.3-0.6,5c6.2,0,12.2,0,18.4,0
			c-0.4,2.8-0.7,5.5-1.1,8.4c-6.1,0-12.2,0-18.4,0c-0.4,2.2-0.6,4.2-0.9,6.5c6.8,0,13.5,0,20.4,0c-0.4,3.1-0.8,6.1-1.2,9.2
			c-11.2,0-22.3,0-33.5,0c0.2-1.5,0.4-3.1,0.6-4.6c0.6-4.6,1.2-9.2,1.8-13.8c0.6-4.5,1.2-9.1,1.8-13.6c0.3-1.9,0.4-3.9,0.8-5.8
			C92.3,9,103.2,9,114.2,9z"/>
		<path class="st3" d="M158.1,9c-0.5,1.2-1.4,2.1-2.2,3c-4,5.1-8.1,10.2-12.2,15.3c3.5,6.4,7.1,12.9,10.7,19.4c-4.9,0-9.6,0-14.6,0
			c-1.8-3.6-3.7-7.4-5.7-11.2c-2.9,3.8-5.8,7.5-8.7,11.3c-4.8,0-9.6,0-14.6,0c5.4-6.6,10.8-13.2,16.1-19.7c-3.3-6-6.6-12.1-9.8-18.1
			c4.8,0,9.6,0,14.4,0c1.5,3.6,3.2,7,4.9,10.7c2.6-3.7,5.1-7.2,7.6-10.7C148.7,9,153.4,9,158.1,9z"/>
		<g>
			<path class="st3" d="M10.5,56.3c0.7-1.7,0.9-3.6,1.4-5.3c0.1-0.3,0.1-0.6,0.4-0.9c1.9,0,3.8,0,5.7,0c0.9,0,1.7,0.1,2.1,1
				c0.3,0.7-0.2,1.4-1.3,2c-0.1,0-0.1,0.1-0.2,0.2c0.6,0.3,1.3,0.5,1.3,1.3c0,0.8-0.5,1.3-1.1,1.7c-1.1,0.7-2.4,0.6-3.6,0.6
				c-1.5,0.1-3.1-0.1-4.7,0.1C10.5,56.8,10.5,56.5,10.5,56.3z M13.9,55.3c1.9,0.4,2.6,0.2,3.1-0.9c-0.9-0.4-1.8-0.2-2.8-0.2
				C14.1,54.5,14,54.9,13.9,55.3z M17.3,51.8c-0.8-0.6-1.6-0.3-2.3-0.4c-0.3,0.4-0.4,0.7-0.3,1.2C15.6,52.6,16.6,53.2,17.3,51.8z"/>
			<path class="st3" d="M168.7,51.5c-0.2,1.4-1.2,2-2.5,2.3c1.1,0.8,1.4,1.9,2,3.1c1.7-2.3,3.4-4.5,5.1-6.6c1.2,0,2.3,0,3.5,0
				c0.6,2.2,1.2,4.4,1.8,6.6c-1,0-2,0-3,0c-0.2-0.3-0.1-0.7-0.4-1c-1,0-2.1,0-3.2,0c-0.2,0.3-0.5,0.7-0.8,1c-2.1,0-4.1,0-6.2,0
				c-1-0.8-0.7-2.6-2.5-2.8c-0.4,0.9-0.4,1.9-0.8,2.8c-0.9,0-1.8,0-2.9,0c0.6-2.3,1.1-4.5,1.6-6.8c2.2,0,4.3,0,6.5,0
				C167.9,50.1,168.2,50.4,168.7,51.5z M162.7,52.7c2.2,0.2,2.6,0,2.7-1.1c-0.8-0.4-1.6-0.2-2.4-0.2
				C162.9,51.9,162.8,52.3,162.7,52.7z M175,54.3c-0.2-0.9-0.3-1.6-0.5-2.5c-0.5,1-1.4,1.6-1.5,2.9C173.7,54.4,174.2,54.3,175,54.3z
				"/>
			<path class="st3" d="M33,63.1c-1,2.8-2,3.3-5.8,3c0-2.3,0-4.6,0-6.9c3.6-0.5,5,0.2,5.8,2.9c0.8-2.3,2.4-3.5,4.4-3.2
				c2.1,0.3,3.4,1.7,3.4,3.6c0,1.9-1.2,3.3-3.1,3.6C35.4,66.7,33.9,65.6,33,63.1z M39.2,62.8c0-1.5-0.9-2.5-2.3-2.5
				c-1.3,0-2.3,1.1-2.3,2.4c0,1.4,1,2.4,2.3,2.5C38.3,65.1,39.2,64.2,39.2,62.8z M28.8,64.9c1.7,0,2.6-0.9,2.6-2.3
				c0-1.4-1-2.2-2.6-2.1C28.8,61.9,28.8,63.4,28.8,64.9z"/>
			<path class="st3" d="M135.6,53.8c0.3-1.4,0.6-2.5,0.9-3.7c0.9,0,1.8,0,2.8,0c-0.5,2.3-1.1,4.5-1.6,6.8c-0.9,0-1.9,0-2.8,0
				c-0.8-1.2-1.7-2.4-2.6-3.7c-0.3,1.3-0.6,2.5-0.9,3.7c-0.9,0-1.8,0-2.8,0c0.5-2.2,1-4.3,1.6-6.5c0.9-0.6,1.9-0.2,2.9-0.3
				C133.8,51.2,134.7,52.4,135.6,53.8z"/>
			<path class="st3" d="M69.8,53.2c-0.3,1.4-0.6,2.5-0.9,3.7c-0.9,0-1.8,0-2.8,0c0.5-2.3,1.1-4.5,1.6-6.6c1,0,2,0,3,0
				c0.8,1.2,1.6,2.3,2.5,3.5c0.3-1.2,0.6-2.3,0.9-3.4c0.9-0.1,1.8-0.1,2.8,0c-0.5,2.2-1,4.4-1.6,6.5c-0.9,0.2-1.8,0-2.8,0.1
				C71.6,55.8,70.8,54.6,69.8,53.2z"/>
			<path class="st3" d="M35,54.1c-0.3,1-0.5,1.9-0.7,2.8c-1,0-1.9,0-2.9,0c0.5-2.3,1.1-4.5,1.6-6.8c2.2,0,4.3,0,6.5,0
				c0.8,0,1.5,0.3,1.7,1.2c0.1,0.8-0.3,1.4-1,1.9c-0.4,0.3-0.8,0.4-1.4,0.6c1,0.8,1.4,1.9,1.9,3c-1.1,0-2.1,0-3.2,0
				C36.5,56.1,36.8,54.2,35,54.1z M38.3,51.8c-1-0.5-1.9-0.4-2.8-0.3c0.1,0.5-0.3,0.8-0.1,1.3C36.3,52.7,37.4,53.1,38.3,51.8z"/>
			<path class="st3" d="M98.6,50.1c2,0,4,0,5.9,0c1.4,0,2.2,0.4,2.3,1.3c0.2,1-0.4,1.8-1.7,2.3c-0.2,0.1-0.4,0.1-0.7,0.2
				c1.1,0.8,1.4,1.9,1.9,3.1c-1.2,0-2.2,0-3.2,0c-1-0.8-0.7-2.7-2.5-2.8c-0.2,0.9-0.5,1.8-0.7,2.7c-1,0.1-1.9,0.1-3,0
				C97.5,54.6,98.1,52.3,98.6,50.1z M101.3,51.4c-0.1,0.5-0.4,0.9-0.2,1.4c1-0.1,2.1,0.3,2.8-1C103,51.3,102.2,51.5,101.3,51.4z"/>
			<path class="st3" d="M134.4,62.5c0.9-2.7,2-3.4,4.9-3.3c0.2,0.1,0.1,0.4,0.1,0.5c0,0.2,0.1,0.4-0.2,0.6c-0.8,0-1.6-0.1-2.3,0.5
				c-0.3,0.2-0.7,0.4-0.7,1c1,0,2,0,3,0c0.3,0.5,0.1,0.8,0.2,1.2c-1.1,0.2-2.1,0-3.1,0.2c0.3,1.4,0.8,1.7,3,1.8
				c0.2,0.4,0.2,0.7-0.1,1.1c-2.6,0.3-4.1-0.7-4.8-3.1c-0.5,1.2-0.9,2.3-2.1,2.9c-1.2,0.5-2.4,0.3-3.8,0.3c0-2.3,0-4.6,0-6.9
				C132,58.7,133.3,59.4,134.4,62.5z M130,64.9c1.1,0.2,1.8-0.2,2.3-1c0.5-0.9,0.4-1.9-0.2-2.7c-0.5-0.7-1.2-0.9-2.1-0.7
				C130,62,130,63.4,130,64.9z"/>
			<path class="st3" d="M117.4,53c-0.2,1-0.5,1.9-0.7,2.9c-2.3,1.1-4.6,1.5-7.1,0.9c-1.8-0.4-2.5-1.9-1.9-3.7c0.6-1.8,2-2.6,3.7-3
				c1.4-0.3,2.9-0.3,4.3,0c1,0.2,1.4,0.6,1.8,1.8c-0.9,0.1-1.8,0.3-2.7,0.4c-0.7-1-1.8-0.9-2.8-0.6c-1,0.3-1.4,1.3-1.6,2.2
				c-0.1,0.7,0.2,1.2,0.9,1.5c1.1,0.4,2.6,0,3.1-0.9c-0.6-0.2-1.2,0-1.8-0.2c-0.1-0.5,0.2-0.9,0.2-1.3C114.4,53,115.8,53,117.4,53z"
				/>
			<path class="st3" d="M83.1,50.1c1.9,0,3.7-0.1,5.5,0c1,0,2,0.4,2.4,1.5c0.5,1.3,0,2.5-0.7,3.6c-0.8,1-1.8,1.5-3.1,1.6
				c-1.8,0.2-3.7,0.1-5.7,0.1C81.9,54.6,82.6,52.4,83.1,50.1z M86.1,55.6c2-1.2,2.4-2.1,1.7-3.7c-0.7-0.3-1.4-0.4-2.2-0.3
				c-0.3,1.3-0.7,2.5-0.9,3.7C85.3,55.7,85.7,55.5,86.1,55.6z"/>
			<path class="st3" d="M145.3,59.6c0,2.3,0,4.4,0,6.6c-1.3,0-2.4,0.1-3.5,0c-1.2-0.1-1.9-0.8-1.9-2.1c0-1.6,0-3.2,0-4.8
				c0.4-0.3,0.9-0.1,1.4-0.2c0.4,1.9-0.3,3.9,0.4,5.7c0.7,0.2,1.3,0.1,2.1,0.2c0-1.9,0-3.8,0-5.8c1.1,0,2.2,0,3.3,0
				c0.5,1.5,1.1,3,1.8,4.8c0.5-1.7,1-3.1,1.4-4.5c0.6-0.1,1.1-0.1,1.6,0c-0.6,1.9-1.3,3.9-1.9,5.8c-0.2,0.6-0.5,1-1.2,1
				c-0.7,0-1-0.4-1.2-1c-0.6-1.6-1.2-3.1-1.7-4.7C145.8,60.3,145.7,60,145.3,59.6z"/>
			<path class="st3" d="M51.8,59.2c0.2,0.4,0.1,0.7,0.1,1.2c-1.2,0.1-2.6,0-3.2,1.6c1.1,0,2.2,0,3.1,0c0.3,0.4,0.2,0.8,0.2,1.2
				c-1.1,0.3-2.2,0-3.3,0.2c0.3,0.9,0.8,1.5,1.6,1.6c1.7,0.3,3.5,0.1,5.2,0c0.3-0.8-0.1-1.1-0.6-1.4c-0.6-0.3-1.3-0.6-1.9-1
				c-0.7-0.6-1-1.3-0.7-2.1c0.3-0.8,0.9-1.2,1.7-1.2c0.9,0,1.8,0,2.6,0c0.3,0.4,0.1,0.7,0.1,1.1c-1,0.3-2-0.2-2.9,0.3
				c-0.2,0.1-0.2,0.3-0.2,0.6c0.4,0.5,1.1,0.7,1.7,1c0.5,0.2,0.9,0.5,1.3,0.9c0.6,0.6,0.5,1.3,0.3,2c-0.2,0.6-0.8,1-1.5,1.1
				c-1.2,0-2.4,0.2-3.5-0.1c-0.3-0.1-0.3,0.1-0.5,0.1c-2.1,0.5-4.2-0.9-4.5-2.9c-0.3-2.1,1.1-3.9,3.4-4
				C50.9,59.1,51.4,59.2,51.8,59.2z"/>
			<path class="st3" d="M122.4,50.1c1.1,0,2.1,0,3.3,0c0.6,2.2,1.3,4.5,1.9,6.8c-1.1,0-2,0-3,0c-0.1-0.3-0.2-0.7-0.3-1
				c-1.1,0-2.2,0-3.3,0c-0.3,0.3-0.5,0.7-0.8,1c-0.9,0-1.8,0-3,0C119,54.6,120.7,52.3,122.4,50.1z M123.6,52.1
				c-0.6,0.8-1.4,1.4-1.6,2.6c0.7-0.4,1.3-0.4,2-0.5C123.9,53.5,123.8,52.8,123.6,52.1z"/>
			<path class="st3" d="M157.8,56.9c-1.1,0-2,0-2.9,0c-0.4-0.2-0.2-0.7-0.5-1.1c-1,0-2.1,0-3.1,0c-0.4,0.2-0.5,0.8-0.9,1
				c-0.9,0-1.8,0-2.9,0c1.8-2.4,3.5-4.6,5.2-6.8c1.1,0,2.2,0,3.3,0C156.5,52.3,157.1,54.5,157.8,56.9z M154.2,54.5
				c-0.1-0.9-0.1-1.7-0.5-2.6c-0.5,0.9-1.3,1.6-1.5,2.6C152.9,54.5,153.4,54.5,154.2,54.5z"/>
			<path class="st3" d="M28.4,50c0.6,2.3,1.2,4.5,1.9,6.8c-1.1,0-2,0-2.9,0c-0.3-0.3-0.2-0.7-0.3-1c-1.1,0-2.2,0-3.4,0
				c-0.2,0.3-0.5,0.7-0.7,1c-0.9,0-1.8,0-2.7,0c-0.2-0.4,0.2-0.5,0.3-0.8c1.3-1.8,2.6-3.5,4-5.2c0.4-0.6,1-0.9,1.7-0.8
				C26.9,50.1,27.6,50,28.4,50z M24.7,54.5c0.7,0,1.3,0,1.8,0c0.3-0.9-0.1-1.7-0.3-2.6C25.7,52.8,25.1,53.5,24.7,54.5z"/>
			<path class="st3" d="M65.1,56.9c-1.1,0-2,0-2.9,0c-0.4-0.3-0.2-0.7-0.4-1c-1.1,0-2.1,0-3.3,0c-0.2,0.3-0.5,0.7-0.8,1.1
				c-0.9,0-1.8,0-2.8,0c0.1-0.5,0.4-0.8,0.7-1.1c1.2-1.5,2.4-3,3.5-4.6c0.6-0.9,1.3-1.3,2.4-1.2c0.6,0.1,1.2,0,1.8,0
				C63.9,52.3,64.5,54.5,65.1,56.9z M61.4,54.5c0.1-0.9-0.1-1.7-0.3-2.5c-0.9,1.1-1.3,1.6-1.5,2.5C60.2,54.5,60.7,54.5,61.4,54.5z"
				/>
			<path class="st3" d="M26.7,65.9c-1.1,0.7-1.6,0.6-2.1-0.4c-0.6-1.1-1.1-2.2-1.8-3.3c0,1.3,0,2.5,0,3.8c-0.5,0.3-1,0.1-1.5,0.2
				c-0.4-2.8-0.2-6.1,0.5-7c0.3,0,0.7,0.3,1.1-0.1c1.1,1.1,1.4,2.6,2.3,4c0-1.4,0-2.7,0-3.9c0.6-0.2,1-0.1,1.6-0.1
				C26.7,61.4,26.7,63.7,26.7,65.9z"/>
			<path class="st3" d="M144.9,56.9c-1,0-1.9,0-2.9,0c0.4-1.7,0.8-3.4,1.2-5.1c-1,0-1.9,0-2.9,0c-0.1-0.7,0.2-1.1,0.3-1.7
				c3,0,5.9,0,8.8,0c0.1,0.6-0.2,1.1-0.3,1.7c-1,0-2,0-3,0C145.8,53.5,145.3,55.2,144.9,56.9z"/>
			<path class="st3" d="M45,55.2c1.6,0,3,0,4.4,0c0.1,0.6-0.1,1.1-0.3,1.7c-2.4,0-4.8,0-7.5,0c0.5-2.3,1.1-4.5,1.6-6.6
				c1,0,1.9,0,2.8,0C45.9,52,45.3,53.5,45,55.2z"/>
			<path class="st3" d="M45,59.2c0.6,0,1,0,1.5,0c0,2.2,0,4.5,0,6.7c-0.9,0.8-1.6,0.7-2.1-0.4c-0.6-1.1-1.1-2.2-1.8-3.3
				c0,1.3,0,2.6,0,4c-0.5,0-1,0-1.5,0c0-2.1,0-4.2,0-6.4c0.3-0.6,0.9-0.7,1.6-0.5c1,1.1,1.3,2.6,2.3,4.1C45,61.8,45,60.5,45,59.2z"
				/>
			<path class="st3" d="M99.7,59.2c0.9,0,1.7,0,2.6,0c1.6,0.1,3.1,1.5,3.2,3c0.1,2-1.1,3.7-2.8,4c-0.9,0.1-1.9,0.1-2.9,0
				C99.7,63.9,99.7,61.6,99.7,59.2z M101.3,64.9c1.7,0.1,2.6-0.8,2.6-2.4c-0.1-1.4-1-2.2-2.6-2C101.3,62,101.3,63.4,101.3,64.9z"/>
			<path class="st3" d="M64.5,66.2c-0.5,0-0.9,0-1.4,0c0-1,0-1.9,0-2.9c-0.8,0-1.5,0-2.4,0c0,1,0,1.9,0,2.9c-0.5,0-0.9,0-1.5,0
				c0-1.7-0.1-3.3,0-5c0.1-1.3,1.2-2.2,2.6-2.2c1.4,0,2.6,0.9,2.6,2.3C64.6,62.9,64.5,64.5,64.5,66.2z M63.1,61.8
				c-0.3-1.6-0.7-1.8-2-1.2c-0.2,0.3-0.4,0.7-0.3,1.2C61.5,61.8,62.2,61.8,63.1,61.8z"/>
			<path class="st3" d="M162.1,66.2c-0.4,0-0.8,0-1.3,0c-0.3-0.8,0.1-1.7-0.2-2.5c-0.5-0.6-1.2-0.4-2-0.4c0,1,0,1.9,0,2.9
				c-0.5,0-0.9,0-1.4,0c-0.1-1.7-0.1-3.5,0-5.3c0.1-1,0.9-1.7,1.9-1.8c1-0.2,1.9,0.1,2.6,0.9c0.2,0.3,0.4,0.6,0.3,0.9
				C161.3,62.6,162.7,64.3,162.1,66.2z M160.3,60.5c-0.4-0.2-0.8-0.2-1.2-0.1c-0.6,0.4-0.7,0.9-0.5,1.6c0.6,0,1.3,0.2,1.8-0.4
				C160.6,61.3,160.6,61,160.3,60.5z"/>
			<path class="st3" d="M89.5,63.2c0.6,1.6,1.8,1.9,3.2,1.8c0.3,0.4,0.2,0.8,0.1,1.2c-1.7,0.2-3.3-0.1-4.3-1.6
				c-0.8-1.2-0.8-2.5,0-3.7c1-1.6,2.6-1.7,4.3-1.6c0.2,0.4,0.1,0.7,0.1,1.1c-1.2,0.1-2.6,0-3.3,1.5c1.1,0,2.2,0,3.2,0
				c0.3,0.5,0.2,0.8,0.1,1.3C91.7,63.2,90.6,63.2,89.5,63.2z"/>
			<path class="st3" d="M153.6,63.2c0.7,1.6,0.9,1.7,3.2,1.9c0.2,0.2,0.1,0.5,0.1,0.7c0,0.1-0.1,0.3-0.2,0.4
				c-2.7,0.5-4.7-1.3-4.7-3.4c0-2.5,1.7-3.8,4.8-3.5c0.2,0.3,0.1,0.7,0.1,1.1c-0.6,0.2-1.3,0-1.9,0.2c-0.6,0.2-1.1,0.6-1.4,1.3
				c1.2,0,2.2,0,3.2,0c0.3,0.5,0.1,0.8,0.1,1.3C155.8,63.2,154.8,63.2,153.6,63.2z"/>
			<path class="st3" d="M113.5,59.2c0,0.4,0,0.7,0,1.1c-1.2,0.1-2.6,0-3.2,1.5c1.1,0.3,2.1,0,3.2,0.2c0.2,0.4,0.1,0.8,0.1,1.2
				c-1.1,0-2.1,0-3.2,0c0.4,1.5,1,1.8,3,1.8c0.3,0.3,0.2,0.7,0.1,1.2c-1.7,0.2-3.3-0.1-4.3-1.6c-0.8-1.2-0.8-2.5-0.1-3.6
				C110,59.3,111.6,59.1,113.5,59.2z"/>
			<path class="st3" d="M83.4,63.7c-0.3,0.9,0.1,1.7-0.3,2.4c-0.4,0.2-0.8,0.1-1.3,0c0-1.6-0.1-3.2,0-4.8c0.1-1.1,0.7-1.8,1.8-2.2
				c1.1-0.3,2,0,2.7,0.7c0.7,0.7,0.9,1.5,0.5,2.4c-0.4,1-1.2,1.4-2.1,1.5C84.3,63.8,83.9,63.7,83.4,63.7z M85.3,62.1
				c0.2-0.7,0.3-1.2-0.4-1.6c-0.4-0.1-0.9-0.2-1.3,0.2c-0.3,0.5-0.4,1.1-0.3,1.8C84.1,62.5,84.7,62.5,85.3,62.1z"/>
			<path class="st3" d="M94.8,56.9c-1,0-1.9,0-2.9,0c0.5-2.2,1-4.3,1.5-6.5c1-0.2,2,0,3-0.1C95.9,52.6,95.4,54.7,94.8,56.9z"/>
			<path class="st3" d="M71.4,59.2c0,0.4,0,0.7,0,1.1c-0.9,0.6-2.4-0.5-3.2,0.7c0.3,0.7,0.9,0.8,1.3,1.1c0.5,0.3,1.1,0.5,1.5,0.9
				c0.6,0.6,0.8,1.3,0.5,2.1c-0.3,0.7-0.8,1.2-1.6,1.2c-1.1,0-2.1,0-3.2,0c-0.2-0.4-0.1-0.7,0-1.1c1.1-0.2,2.4,0.2,3.5-0.3
				c0-0.8-0.4-1.1-0.9-1.3c-0.6-0.3-1.2-0.6-1.8-1c-0.7-0.5-1-1.1-0.8-2c0.3-0.9,0.9-1.3,1.8-1.3C69.5,59.2,70.4,59.2,71.4,59.2z"/>
			<path class="st3" d="M50.6,56.9c0.6-2.3,1.1-4.4,1.6-6.6c1-0.1,2-0.1,3,0c-0.5,2.2-1,4.3-1.6,6.5C52.7,57,51.7,56.9,50.6,56.9z"
				/>
			<path class="st3" d="M114.1,66.2c-0.1-0.4-0.1-0.8,0.1-1.2c1.1,0,2.2,0,3.2,0c0.4-0.8,0-1.1-0.6-1.4c-0.6-0.3-1.2-0.6-1.8-1
				c-0.8-0.5-1.1-1.3-0.8-2.2c0.3-0.9,1-1.2,1.8-1.2c0.9,0,1.7,0,2.6,0c0.2,0.4,0.1,0.7,0.1,1.1c-1,0.6-2.4-0.5-3.2,0.8
				c0.4,0.7,1,0.8,1.5,1.1c0.5,0.3,1,0.5,1.4,0.9c0.6,0.6,0.7,1.4,0.5,2.1c-0.2,0.7-0.8,1.1-1.6,1.1
				C116.3,66.2,115.2,66.2,114.1,66.2z"/>
			<path class="st3" d="M75.8,66.2c-0.1-0.5-0.1-0.8,0-1.2c1.1-0.2,2.2,0.1,3.3-0.2c0.3-0.7-0.1-1.1-0.6-1.3
				c-0.5-0.3-1.2-0.5-1.7-0.9c-0.9-0.6-1.3-1.4-1-2.2c0.3-0.9,1-1.3,2-1.3c0.7,0,1.4,0,2.2,0c0.1,0,0.2,0,0.4,0
				c0.2,0.3,0.1,0.7,0.1,1c-1,0.6-2.4-0.5-3.2,0.8c0.6,0.7,1.4,0.9,2,1.3c0.6,0.3,1.2,0.7,1.4,1.5c0.3,1.1-0.3,2.2-1.5,2.3
				c-0.2,0-0.5,0-0.7,0C77.6,66.2,76.7,66.2,75.8,66.2z"/>
			<path class="st3" d="M95.5,63.2c0.2,1.4,1.2,2,3,2c0.1,0.3,0.1,0.7,0,1c-3,0.5-4.7-1.6-4.7-3.3c0-2,1.2-3.9,4.8-3.6
				c0.3,0.3,0.1,0.7,0.1,1.2c-1.3,0.1-2.7-0.1-3.3,1.6c1.1,0,2.1,0,3.1,0c0,0.4,0,0.8,0.1,1.2C97.6,63.2,96.6,63.2,95.5,63.2z"/>
			<path class="st3" d="M163.8,61.8c0.6,0.8,1.2,0.6,1.9,0.3c0.3-0.9,0-1.8,0.2-2.8c0.5-0.1,0.9-0.1,1.4,0c-0.1,1.7,0.6,3.6-1.7,4.4
				c0,0.8,0,1.6,0,2.4c-0.5,0.4-1,0.1-1.5,0.2c0-0.9,0-1.8,0-2.7c-2.4-0.7-1.7-2.7-1.8-4.3c0.5-0.2,0.9-0.1,1.5-0.1
				C163.8,60.1,163.8,61,163.8,61.8z"/>
			<path class="st3" d="M123.1,60.4c0,2,0,3.8,0,5.7c-0.5,0.3-1,0-1.5,0.2c0-2,0-3.9,0-5.7c-0.6-0.4-1.1-0.1-1.5-0.3
				c-0.2-0.3,0-0.7-0.3-1.1c1.7,0,3.3,0,5,0c0.3,0.3,0,0.7,0.2,1.1C124.2,60.4,123.7,60.4,123.1,60.4z"/>
			<path class="st3" d="M106.4,59.2c0.5,0,0.9,0,1.4,0c0,2.3,0,4.6,0,6.9c-0.4,0.3-0.9,0.1-1.4,0.1
				C106.4,63.9,106.4,61.6,106.4,59.2z"/>
			<path class="st3" d="M57.5,66.1c0-2.3,0-4.6,0-6.9c0.5-0.2,0.9-0.1,1.4-0.1c0,2.3,0,4.6,0,6.9C58.4,66.3,58,66.2,57.5,66.1z"/>
			<path class="st3" d="M19.4,59.2c0.5-0.1,0.9-0.1,1.4,0c0,2.3,0,4.5,0,6.8c-0.4,0.2-0.9,0.1-1.4,0.1
				C19.4,63.8,19.4,61.6,19.4,59.2z"/>
			<path class="st3" d="M65.1,59.5c0.5-0.1,0.9-0.1,1.4,0c0,0.7-0.2,1.3-0.4,2c-0.4,0.1-0.7,0.1-1.2,0C64.9,60.8,65,60.2,65.1,59.5z
				"/>
		</g>
	</g>
</g>
</svg>
