<svg xmlns="http://www.w3.org/2000/svg" viewBox="0 0 200 200"><title>Printer</title><circle cx="100" cy="100" r="95" style="fill:#f06400"/><path d="M43.1428,106.8061V88.2832q.093-.39.1863-.7808a7.6532,7.6532,0,0,1,7.53-6.0591c1.4959.0663,3.0015-.1022,4.5033-.14.55-.0137.84-.1595.7968-.7971a22.2677,22.2677,0,0,1,.1233-2.973,8.3737,8.3737,0,0,1,7.7294-7.6308c1.6348-.0761,3.273-.0989,4.9042-.22.7829-.0581,1.0667.1659,1.0122.9633-.1244,1.82-.1777,3.6437-.2866,5.4644-.0777,1.2983.0192,1.4146,1.2894,1.3029.294-.0259.5881-.0611.8828-.068,6.8676-.1626,13.7347-.3534,20.603-.4735,7.73-.1352,15.4591.0761,23.1884.1507.2414.0023.4824.0252.7238.0329,4.3711.1406,8.7425.2725,13.1131.428.7379.0263,1.0078-.2524.9724-.9887-.0939-1.9561-.1116-3.9162-.2238-5.871-.0426-.7428.2244-.9494.9136-.9q2.5281.1817,5.06.303a8.3212,8.3212,0,0,1,7.5125,7.1184c.1078,1.147.1535,2.3031.158,3.4552.0021.5162.1239.7156.6629.7247,1.475.0251,2.9487.1221,4.4237.1518a7.7155,7.7155,0,0,1,7.8413,7.9428,36.9529,36.9529,0,0,0,.0945,4.34v6.9259c-.03.346-.0863.692-.086,1.038.0052,4.536-.1551,9.0672-.3089,13.6-.2,5.8989-.556,11.7889-.8545,17.6822a8.1278,8.1278,0,0,1-7.2378,7.6276c-5.9125.4268-11.83.7871-17.7457,1.1656-1.1232.0719-1.1949-.0123-1.1236-1.1334.1328-2.0888.2854-4.1756.3293-6.27a6.2646,6.2646,0,0,0-5.4217-6.4455,12.22,12.22,0,0,0-2.6485-.1379c-3.91.2721-7.8286.3378-11.7429.3957-9.4725.14-18.9467.194-28.4164-.2239-1.527-.0673-3.0626-.1051-4.5875-.0257a6.6187,6.6187,0,0,0-6.0915,6.6264c.0839,1.8217.1484,3.6471.323,5.4612.1993,2.07.3,1.99-1.935,1.8636-4.1509-.2355-8.3018-.4857-12.4462-.8122a49.5571,49.5571,0,0,1-6.4043-.5856,8.2188,8.2188,0,0,1-6.0962-7.1854c-.1412-3.0272-.3192-6.0529-.4977-9.0783-.3145-5.33-.5407-10.6634-.6282-16.0024C43.229,107.7655,43.1752,107.286,43.1428,106.8061ZM99.9977,96.2775c5.9308.0287,11.8616-.0116,17.7929.0531,9.1513.1,18.3041-.7,27.4564-.6818,1.3676.0026,2.1018-1.4355,2.1162-2.6429a1.9608,1.9608,0,0,0-2.1282-2.0906c-6.5466-.1077-13.0931-.23-19.64-.3112-5.9573-.0741-11.9152-.062-17.873-.1345q-9.78-.1189-19.5639.0387c-7.8887.1326-15.7792.1552-23.6688.2388-3.2467.0344-6.493.1029-9.7394.159a3.3548,3.3548,0,0,0-.64.0552A1.9884,1.9884,0,0,0,52.55,93.1c.0774.9477.803,2.4316,1.7965,2.5147.3468.029.6974.0185,1.0461.0154,8.722-.0765,17.4444.772,26.1667.6622C87.7044,96.2152,93.8515,96.2775,99.9977,96.2775ZM146.43,105.16c.5615.0109.875-.3722.89-1.3792q.0319-2.1342.0341-4.27c.0008-.9191-.2584-1.39-.7974-1.3845q-4.9524.0483-9.9047.07c-.511.0016-.7049.4691-.7746,1.29a41.7186,41.7186,0,0,0-.0691,4.4049c.0234,1.1322.3149,1.58.9621,1.5587,1.5822-.0508,3.1652-.0165,4.7479-.0165Zm-14.1248.1558c.4075.0015.6715-.285.6964-1.0341.0549-1.6564.1283-3.3118.0224-4.9724-.047-.7371-.2748-1.0523-.69-1.05q-2.2084.01-4.417.0078c-.4191-.0009-.6428.32-.6808,1.0579-.0876,1.7039-.0862,3.4051-.0143,5.1107.0317.7511.23,1.052.6672,1.0289.6951-.0367,1.3913-.01,2.087-.01Z" style="fill:#fff"/><path d="M101.45,46.7275a8.1994,8.1994,0,0,0,.8778.0833c5.5029-.0478,11,.1653,16.4972.3651,2.6.0944,5.196.274,7.7948.3961.6518.0306.9362.2851.9734.9723.2411,4.446.5326,8.8893.7793,13.3351.229,4.1245.4238,8.251.63,12.3768.0161.3214.005.644.0081.9661.0051.534-.2343.77-.7908.7516-3.0571-.1-6.1149-.1816-9.1726-.2687-3.1109-.0887-6.2216-.2356-9.333-.2525-7.0051-.038-14.0112-.07-21.0157.0076-5.3649.0592-10.7277.2945-16.0918.44-1.59.0432-1.5707.0263-1.495-1.5289.1812-3.7243.3235-7.4506.516-11.1743.2547-4.9289.5474-9.8559.8095-14.7845a.8432.8432,0,0,1,.9391-.9322c4.2085-.1584,8.414-.379,12.6241-.512,3.5152-.1112,7.0294-.1315,10.5447-.1582a6.4938,6.4938,0,0,0,.7168-.0827Z" style="fill:#fff"/><path d="M99.4944,153.2394c-6.5542.1-12.8828-.16-19.2128-.341a8.466,8.466,0,0,1-2.2321-.26,3.9229,3.9229,0,0,1-2.8436-3.863c-.2175-3.4524-.3679-6.9091-.5447-10.3641-.0576-1.1248-.1423-2.25-.1572-3.375a3.2909,3.2909,0,0,1,3.5147-3.6172c2.7624.02,5.524.1548,8.2859.2424.268.0085.5353.0447.8032.0488,3.5687.0543,7.1381.1722,10.7062.1424,6.3859-.0533,12.7713-.1835,19.1564-.31,1.769-.0349,3.5366-.1592,5.3039-.259,2.6435-.1494,4.2791,1.3826,4.1475,4.0292q-.3437,6.9111-.8063,13.8161a4.0217,4.0217,0,0,1-3.97,3.624c-2.6532.1156-5.3064.2481-7.9611.3051C108.8818,153.1613,104.08,153.3486,99.4944,153.2394Z" style="fill:#fff"/></svg>