<svg xmlns="http://www.w3.org/2000/svg" viewBox="0 0 360 130"><title>icon marketplace home lengkap</title><rect width="360" height="130" rx="15.3333" ry="15.3333" style="fill:#ff6e3b"/><path d="M111.446,31.7355l1.9091,65.0117a2.3642,2.3642,0,0,0-.2041,1.0272,14.0249,14.0249,0,0,1-13.1771,11.708q-30.9757.91-61.9515,1.82a17.2425,17.2425,0,0,1-1.9122-.0464,14.0111,14.0111,0,0,1-12.59-13.23q-.9136-31.0956-1.8264-62.191a13.9687,13.9687,0,0,1,9.8788-13.7319c.6746-.2039,1.3625-.3642,2.0442-.5447l65.1315-1.9126c.0454.1207.1532.0968.2477.11A13.8714,13.8714,0,0,1,110.7136,29C111.0632,29.8846,111.166,30.8335,111.446,31.7355Z" style="fill:#fff"/><path d="M34.0241,49.4067l16.1306-.9375A35.0082,35.0082,0,0,1,53.53,34.0654c2.6007-5.1807,6.5344-8.5045,11.1829-8.7746s8.9206,2.5982,12.124,7.42a34.9036,34.9036,0,0,1,5.0216,13.9158l16.1092-.9362a3.3958,3.3958,0,0,1,3.672,3.2686l-.6117,45.3237c-.0783,5.679-3.4464,9.12-8.609,9.42l-46.1425,2.6815c-5.7411.3337-9.0157-3.4954-9.6423-8.36L30.7567,53.1a3.4262,3.4262,0,0,1,3.2674-3.6934ZM54.182,48.2352l23.6067-1.3719a30.54,30.54,0,0,0-4.3475-11.9345c-2.36-3.6243-5.4091-5.79-8.4938-5.6107-3.1062.18-5.8624,2.6835-7.8284,6.5807A30.78,30.78,0,0,0,54.182,48.2352Z" style="fill:#ff6e3b"/><path d="M56.71,89.8943a1.6367,1.6367,0,0,1,1.6854-2.8062c.49.294,1.0014.5867,1.5556.8769,3.9034,2.073,7.44,3.0067,10.3317,2.8386a6.9682,6.9682,0,0,0,5.9107-3.3312h0c.077-.1549.1577-.2456.1754-.3111a8.0677,8.0677,0,0,0,.7448-1.9777,5.8013,5.8013,0,0,0-.4433-3.9292,8.2873,8.2873,0,0,0-3.6379-3.4211h0a16.68,16.68,0,0,0-4.4317-1.548c-4.4851-.986-7.8433-2.5533-9.7368-4.8076-2.0786-2.48-2.41-5.5989-.5742-9.51,1.2253-2.586,3.9407-4.3129,7.48-4.798a20.2406,20.2406,0,0,1,10.6361,1.7892,1.6411,1.6411,0,1,1-1.33,3.0005,16.8625,16.8625,0,0,0-8.881-1.5473c-2.4094.3335-4.1969,1.3831-4.9238,2.93-1.2254,2.5861-1.0894,4.5556.1117,5.99,1.3861,1.66,4.1423,2.8544,7.9307,3.6875a21.2481,21.2481,0,0,1,5.2669,1.8648h0a11.4189,11.4189,0,0,1,5.0318,4.8447,9.0908,9.0908,0,0,1,.7429,6.1256,10.6934,10.6934,0,0,1-1.0617,2.813c-.1174.2-.1943.3552-.2524.466h0a10.17,10.17,0,0,1-8.5265,4.9233c-3.4917.2029-7.6365-.8458-12.0728-3.21A19.1438,19.1438,0,0,1,56.71,89.8943Z" style="fill:#fff"/><path d="M127.177,85.973a2.2469,2.2469,0,1,1,2.5174-3.7224q.93.66,2.0478,1.3223c5.0892,3.15,9.8771,4.7393,13.803,4.7654a9.5257,9.5257,0,0,0,8.3148-3.9955h0c.1258-.1862.2513-.31.2521-.4346a12.1481,12.1481,0,0,0,1.2014-2.6094,7.91,7.91,0,0,0-.276-5.3612,10.9027,10.9027,0,0,0-4.641-4.9539h0a25.2344,25.2344,0,0,0-5.9035-2.5319c-6.0334-1.7226-10.4416-4.1823-12.8509-7.3765-2.5936-3.5693-2.7525-7.808.086-12.9616,1.8922-3.4149,5.7075-5.5084,10.5706-5.85a27.6009,27.6009,0,0,1,14.3106,3.3978,2.23,2.23,0,0,1-2.02,3.975,22.9782,22.9782,0,0,0-11.946-2.8836c-3.3044.2274-5.868,1.519-6.941,3.5684-1.8922,3.415-1.91,6.0945-.3657,8.1613,1.7291,2.38,5.3933,4.2734,10.4314,5.74a26.743,26.743,0,0,1,6.9594,3.0374h0a15.4542,15.4542,0,0,1,6.3722,7.022,12.07,12.07,0,0,1,.4431,8.3535,15.3494,15.3494,0,0,1-1.7073,3.7278,3.9943,3.9943,0,0,0-.378.6206h0c-2.706,3.97-6.9567,5.9364-12.0665,5.9025-4.736-.0314-10.27-1.813-16.1046-5.4038A24.05,24.05,0,0,0,127.177,85.973Z" style="fill:#fff"/><path d="M167.2731,44.5481a2.2471,2.2471,0,0,1,4.4867.03l-.3072,46.3a2.2471,2.2471,0,0,1-4.4867-.03Z" style="fill:#fff"/><path d="M171.693,73.4307a2.258,2.258,0,0,1-3.4706-2.89,23.0985,23.0985,0,0,1,11.1442-7.7782,14.283,14.283,0,0,1,7.7287-.198,10.8375,10.8375,0,0,1,6.0169,4.2153,12.7819,12.7819,0,0,1,2.193,7.6173l-.11,16.5759a2.2434,2.2434,0,1,1-4.4867-.03l.11-16.5758a8.6568,8.6568,0,0,0-1.3375-5.0567,6.5518,6.5518,0,0,0-3.5358-2.4538,9.6762,9.6762,0,0,0-5.2981.1518A19.29,19.29,0,0,0,171.693,73.4307Z" style="fill:#fff"/><path d="M217.3835,62.33a15.4447,15.4447,0,0,1,10.9373,4.6218h0a15.5107,15.5107,0,1,1-22.08,21.7895h0a15.4959,15.4959,0,0,1,.1455-21.935h0A15.5549,15.5549,0,0,1,217.3835,62.33Zm7.8009,7.7169a11.12,11.12,0,0,0-7.83-3.2925,11.2314,11.2314,0,0,0-7.8733,3.1883h0a11.1332,11.1332,0,0,0-.1042,15.7035h0a11.1043,11.1043,0,0,0,15.8077-15.5993Z" style="fill:#fff"/><path d="M239.2413,64.7181a2.2434,2.2434,0,1,1,4.4867.03l-.0186,2.8042a3.76,3.76,0,0,1,.5019-.4952h0a15.4961,15.4961,0,0,1,21.935.1455h0a15.5108,15.5108,0,1,1-22.0806,21.79h0a3.7615,3.7615,0,0,0-.4952-.5018l-.1351,20.3771a2.2434,2.2434,0,0,1-4.4868-.03l.2927-44.1193Zm23.7062,5.5789a11.12,11.12,0,0,0-7.83-3.2925,11.2313,11.2313,0,0,0-7.8732,3.1883h0a11.1332,11.1332,0,0,0-.1042,15.7035h0A11.1043,11.1043,0,0,0,262.9475,70.297Z" style="fill:#fff"/><path d="M291.788,62.8232a13.65,13.65,0,0,1,9.8186,4.1781,15.1179,15.1179,0,0,1,3.6959,6.5056c1.89,6.3067-1.7849,6.0331-2.9066,6.0256L281.77,79.3957a19.8655,19.8655,0,0,0,.97,4.1194A9.4881,9.4881,0,0,0,286.2,87.9a10.7646,10.7646,0,0,0,5.8477,1.5345,22.798,22.798,0,0,0,8.6755-1.999,2.2339,2.2339,0,1,1,1.7175,4.1244,28.5877,28.5877,0,0,1-10.36,2.2994,14.4676,14.4676,0,0,1-8.2735-2.236,12.2131,12.2131,0,0,1-5.1919-6.4532c-2.077-6.3079-2.0979-12.54,3.3-18.3a13.3056,13.3056,0,0,1,9.8731-4.0475Zm6.6817,7.3355a9.4785,9.4785,0,0,0-13.46-.0893,11.4944,11.4944,0,0,0-2.9606,4.7789l19.38.1286A13.0584,13.0584,0,0,0,298.47,70.1587Z" style="fill:#fff"/><path d="M325.8122,63.0489a13.65,13.65,0,0,1,9.8186,4.1781,15.1179,15.1179,0,0,1,3.6959,6.5056c1.89,6.3067-1.7849,6.0331-2.9066,6.0256l-20.6264-.1368a19.8655,19.8655,0,0,0,.97,4.1194,9.4889,9.4889,0,0,0,3.4607,4.3853,10.7652,10.7652,0,0,0,5.8477,1.5344,22.798,22.798,0,0,0,8.6755-1.999,2.2339,2.2339,0,0,1,1.7175,4.1244,28.5882,28.5882,0,0,1-10.36,2.2994,14.4674,14.4674,0,0,1-8.2735-2.236,12.2126,12.2126,0,0,1-5.1919-6.4532c-2.077-6.3079-2.098-12.54,3.3-18.3a13.3056,13.3056,0,0,1,9.8731-4.0475Zm6.6817,7.3355a9.4783,9.4783,0,0,0-13.46-.0892,11.4947,11.4947,0,0,0-2.9607,4.7788l19.38.1286A13.0619,13.0619,0,0,0,332.4939,70.3844Z" style="fill:#fff"/><path d="M148.1914,24.958a3.207,3.207,0,0,0-2.6543-1.2471c-1.5664,0-2.3183.6553-2.3183,1.4864,0,.9756,1.1513,1.248,2.4941,1.4082,2.335.2871,4.51.8945,4.51,3.5654,0,2.4951-2.2071,3.5664-4.7012,3.5664-2.2871,0-4.0459-.7041-4.877-2.751l1.7578-.9111a3.19,3.19,0,0,0,3.15,1.7744c1.3282,0,2.5752-.4629,2.5752-1.6787,0-1.0557-1.1035-1.4873-2.5908-1.6475-2.2871-.2714-4.3975-.8789-4.3975-3.39,0-2.3027,2.2706-3.2461,4.3331-3.2627,1.7441,0,3.5507.4961,4.3984,2.2236Z" style="fill:#fff"/><path d="M154.6328,23.3428V25.582h2.1738v1.6787h-2.19V30.667a.9791.9791,0,0,0,1.0234,1.1191,2.2216,2.2216,0,0,0,.9434-.24l.544,1.6631a4.3361,4.3361,0,0,1-1.6153.3359c-1.7109.0645-2.83-.9111-2.83-2.8779V27.2607H151.21V25.582h1.4716V23.5508Z" style="fill:#fff"/><path d="M164.5127,25.5654h1.8711v7.8838h-1.8389l-.0957-1.1513a2.9985,2.9985,0,0,1-2.5586,1.3916,3.8155,3.8155,0,0,1-4.0625-4.1905,3.8385,3.8385,0,0,1,4.11-4.125,2.893,2.893,0,0,1,2.5107,1.2793Zm-4.7334,3.9336a2.2583,2.2583,0,0,0,2.335,2.3994c3.07,0,3.07-4.7812,0-4.7812A2.2443,2.2443,0,0,0,159.7793,29.499Z" style="fill:#fff"/><path d="M169.835,25.5654l.1435.9112a2.3255,2.3255,0,0,1,2.2227-1.1192,2.9907,2.9907,0,0,1,2.0312.752l-.8789,1.6953a1.9506,1.9506,0,0,0-1.4082-.5117,1.8183,1.8183,0,0,0-1.9668,1.998v4.1582h-1.9512V25.5654Z" style="fill:#fff"/><path d="M185.2471,24.958a3.2093,3.2093,0,0,0-2.6553-1.2471c-1.5664,0-2.3184.6553-2.3184,1.4864,0,.9756,1.1514,1.248,2.4952,1.4082,2.3349.2871,4.5087.8945,4.5087,3.5654,0,2.4951-2.206,3.5664-4.7011,3.5664-2.2871,0-4.0449-.7041-4.877-2.751l1.7588-.9111a3.19,3.19,0,0,0,3.15,1.7744c1.3271,0,2.5752-.4629,2.5752-1.6787,0-1.0557-1.1035-1.4873-2.5918-1.6475-2.2861-.2714-4.3965-.8789-4.3965-3.39,0-2.3027,2.27-3.2461,4.333-3.2627,1.7432,0,3.55.4961,4.3975,2.2236Z" style="fill:#fff"/><path d="M190.9355,30.2031a2.1,2.1,0,0,0,2.3516,1.6787,3.2539,3.2539,0,0,0,2.11-.7353l1.247,1.2314a4.8415,4.8415,0,0,1-3.39,1.2793,3.9735,3.9735,0,0,1-4.334-4.206,3.9452,3.9452,0,0,1,4.19-4.125c2.6387,0,4.2852,1.6308,3.9815,4.8769Zm4.2862-1.6152a1.8059,1.8059,0,0,0-2.0469-1.5352,2.1239,2.1239,0,0,0-2.207,1.5352Z" style="fill:#fff"/><path d="M200.5273,22.2715V33.4492h-1.9345V22.2715Z" style="fill:#fff"/><path d="M204.1719,22.2715V33.4492h-1.9346V22.2715Z" style="fill:#fff"/><path d="M207.5449,30.2031a2.1,2.1,0,0,0,2.3516,1.6787,3.2536,3.2536,0,0,0,2.11-.7353l1.2471,1.2314a4.8415,4.8415,0,0,1-3.39,1.2793,3.9735,3.9735,0,0,1-4.334-4.206,3.9452,3.9452,0,0,1,4.19-4.125c2.6387,0,4.2852,1.6308,3.9814,4.8769Zm4.2862-1.6152a1.806,1.806,0,0,0-2.0469-1.5352,2.1241,2.1241,0,0,0-2.2071,1.5352Z" style="fill:#fff"/><path d="M217.01,25.5654l.1435.9112a2.3248,2.3248,0,0,1,2.2227-1.1192,2.99,2.99,0,0,1,2.03.752l-.879,1.6953a1.9494,1.9494,0,0,0-1.4072-.5117,1.8183,1.8183,0,0,0-1.9668,1.998v4.1582h-1.9512V25.5654Z" style="fill:#fff"/><polygon points="129.245 21.063 132.793 24.512 137.646 23.544 135.462 27.985 137.882 32.3 132.984 31.596 129.627 35.231 128.784 30.355 124.29 28.286 128.666 25.977 129.245 21.063" style="fill:#fefdfe"/></svg>