<?xml version="1.0" encoding="utf-8"?>
<!-- Generator: Adobe Illustrator 22.0.1, SVG Export Plug-In . SVG Version: 6.00 Build 0)  -->
<svg version="1.1" id="Layer_1" xmlns="http://www.w3.org/2000/svg" xmlns:xlink="http://www.w3.org/1999/xlink" x="0px" y="0px"
	 viewBox="0 0 189 75.6" style="enable-background:new 0 0 189 75.6;" xml:space="preserve">
<style type="text/css">
	.st0{fill-rule:evenodd;clip-rule:evenodd;fill:#8CC53F;}
	.st1{fill-rule:evenodd;clip-rule:evenodd;fill:#FFFFFF;}
	.st2{fill-rule:evenodd;clip-rule:evenodd;fill:#ED2A7B;}
	.st3{fill:#FFFFFF;}
	.st4{fill-rule:evenodd;clip-rule:evenodd;fill:#39B44A;}
	.st5{fill-rule:evenodd;clip-rule:evenodd;fill:#25387B;}
	.st6{fill-rule:evenodd;clip-rule:evenodd;fill:#DE2128;}
	.st7{fill-rule:evenodd;clip-rule:evenodd;fill:#D3232B;}
	.st8{fill-rule:evenodd;clip-rule:evenodd;fill:#F15A29;}
</style>
<g>
	<path class="st8" d="M184,75.6H5c-2.8,0-5-2.3-5-5V5c0-2.8,2.3-5,5-5h179c2.8,0,5,2.3,5,5v65.6C189,73.4,186.8,75.6,184,75.6z"/>
	<g>
		<path class="st3" d="M156,24.9c-1.1,1.3-2.3,2.4-3.5,3.7c-0.2,0.2-0.5,0.2-0.7,0.2c-7.4,0-14.8,0-22.1,0c-3.6,0-7.2,0-10.8,0
			c-0.2,0-0.4,0.1-0.5-0.1c-0.1-0.2,0.2-0.3,0.3-0.4c1-1,1.9-2,2.9-3c0.1-0.1,0.3-0.2,0.3-0.4C133.2,24.9,144.6,24.9,156,24.9z"/>
		<path class="st3" d="M104.5,24.9c1,2.7,2,5.3,3,8c0.2,0.6,0.4,1.1,0.7,1.7c0.2,0.4,0.1,0.6-0.2,0.9c-3.1,3.2-6.3,6.5-9.4,9.7
			c-0.5,0.6-1.1,0.8-1.8,0.8c-1.4-0.1-2.9,0-4.3,0c-0.1,0-0.4,0.1-0.4-0.1c-0.1-0.2,0.1-0.3,0.2-0.4c3.1-3.2,6.1-6.4,9.3-9.6
			c0.8-0.8,1-1.4,0.5-2.5c-1.1-2.6-2.1-5.3-3.1-7.9c-0.1-0.2-0.2-0.4-0.2-0.6C100.7,24.9,102.6,24.9,104.5,24.9z"/>
		<path class="st3" d="M118.1,24.9c-2.8,2.9-5.6,5.8-8.4,8.8c-0.3,0.3-0.4,0.3-0.6-0.1c-0.4-1.2-0.9-2.4-1.4-3.6
			c-0.1-0.3-0.1-0.5,0.2-0.7c1.3-1.3,2.6-2.6,3.8-4c0.1-0.1,0.3-0.2,0.3-0.4C114,24.9,116.1,24.9,118.1,24.9z"/>
		<path class="st3" d="M164.4,24.9c-1.1,1.3-2.3,2.4-3.5,3.7c-0.1,0.2-0.3,0.1-0.5,0.2c-2,0-4,0-6,0c-0.1,0-0.3,0.1-0.4-0.1
			c-0.1-0.1,0.1-0.2,0.2-0.3c1.1-1.1,2.2-2.3,3.3-3.4C159.8,24.9,162.1,24.9,164.4,24.9z"/>
		<path class="st3" d="M171.4,24.9c-1.2,1.2-2.3,2.4-3.5,3.6c-0.2,0.2-0.4,0.2-0.6,0.2c-1.6,0-3.1,0-4.7,0c-0.1,0-0.3,0.1-0.3-0.1
			c-0.1-0.2,0.1-0.2,0.2-0.3c1.1-1.1,2.2-2.3,3.3-3.4C167.7,24.9,169.5,24.9,171.4,24.9z"/>
		<path class="st3" d="M177.1,24.9c-1.1,1.2-2.3,2.4-3.4,3.6c-0.2,0.2-0.3,0.2-0.5,0.2c-1.2,0-2.3,0-3.5,0c-0.1,0-0.2,0-0.3-0.1
			c-0.1-0.1,0.1-0.2,0.2-0.3c1.1-1.2,2.2-2.3,3.3-3.5C174.3,24.9,175.7,24.9,177.1,24.9z"/>
		<path class="st3" d="M134,45.9c-0.5-0.1-1.3,0.3-1.8-0.1c-0.4-0.3-0.6-1.1-0.8-1.7c-0.5-1-0.9-2.1-1.4-3.1
			c-0.1-0.1-0.1-0.3-0.3-0.4c-0.1,0.2-0.1,0.3-0.2,0.5c-0.4,1.5-0.9,2.9-1.3,4.4c-0.1,0.4-0.3,0.5-0.6,0.5c-0.8,0-1.6,0-2.4,0
			c-0.4,0-0.5-0.1-0.4-0.5c1-3.2,2-6.4,2.9-9.7c0.4-1.2,0.7-2.4,1.1-3.6c0.1-0.2,0.1-0.4,0.4-0.4c2.1,0.1,4.2-0.1,6.3,0.1
			c0.1,0,0.2,0,0.3,0c2.6,0.6,3.5,2.2,2.5,4.7c-0.8,1.9-2.2,3.1-4.1,3.6c-0.5,0.1-0.5,0.3-0.3,0.7c0.7,1.5,1.4,3,2.1,4.5
			c0.2,0.4,0.2,0.5-0.3,0.5C135.2,45.9,134.6,45.9,134,45.9z M131.4,38.4c0.4,0,0.8,0,1.3-0.1c1.2-0.2,2-0.9,2.4-2.1
			c0.3-1-0.2-1.8-1.3-1.9c-0.5-0.1-1.1,0-1.6-0.1c-0.3,0-0.5,0.1-0.6,0.4c-0.3,0.9-0.6,1.9-0.9,2.8
			C130.3,38.4,130.3,38.4,131.4,38.4z"/>
		<path class="st3" d="M120.5,31.7c1.1,0,2.5-0.1,3.8,0.3c1.6,0.4,2.5,1.4,2.5,2.8c0,1.4-0.5,2.6-1.4,3.7c-1.4,1.7-3.3,2.4-5.5,2.5
			c-0.6,0-1.1,0-1.7,0c-0.4,0-0.5,0.1-0.6,0.5c-0.4,1.3-0.8,2.6-1.1,4c-0.1,0.4-0.3,0.5-0.6,0.5c-0.8,0-1.7,0-2.5,0
			c-0.5,0-0.5-0.1-0.4-0.6c1.1-3.6,2.2-7.2,3.3-10.9c0.2-0.8,0.5-1.6,0.7-2.4c0.1-0.3,0.2-0.4,0.5-0.4
			C118.5,31.8,119.4,31.7,120.5,31.7z M121,34.4c-0.4,0-0.6,0-0.9,0c-0.2,0-0.3,0.1-0.4,0.3c-0.3,1.1-0.7,2.3-1,3.4
			c-0.1,0.2,0,0.3,0.2,0.3c0.8,0,1.5,0,2.2-0.2c1-0.3,1.6-0.9,1.9-1.9c0.2-0.9-0.1-1.4-1-1.7C121.7,34.4,121.3,34.4,121,34.4z"/>
		<path class="st3" d="M141.9,45.9c-1.4,0-2.8,0-4.2,0c-0.4,0-0.5-0.1-0.4-0.5c1.3-4.4,2.6-8.9,3.9-13.3c0.1-0.3,0.2-0.4,0.5-0.4
			c2.8,0,5.6,0,8.4,0c0.4,0,0.5,0.1,0.3,0.5c-0.2,0.6-0.4,1.1-0.5,1.7c-0.1,0.3-0.3,0.4-0.6,0.4c-1.6,0-3.2,0-4.8,0
			c-0.4,0-0.6,0.1-0.7,0.5c-0.2,0.7-0.4,1.4-0.7,2.2c-0.1,0.4-0.1,0.5,0.4,0.5c1.6,0,3.2,0,4.9,0c0.6,0,0.6,0,0.4,0.6
			c-0.2,0.5-0.3,0.9-0.5,1.4c-0.1,0.4-0.4,0.5-0.8,0.5c-1.5,0-3.1,0-4.6,0c-0.4,0-0.6,0.1-0.7,0.5c-0.2,0.7-0.4,1.5-0.6,2.2
			c-0.1,0.3,0,0.4,0.3,0.4c1.6,0,3.1,0,4.7,0c0.4,0,0.5,0.1,0.4,0.5c-0.2,0.6-0.4,1.3-0.5,1.9c-0.1,0.3-0.2,0.4-0.5,0.4
			C144.7,45.9,143.3,45.9,141.9,45.9C141.9,45.9,141.9,45.9,141.9,45.9z"/>
		<path class="st3" d="M58.5,44.8c-1,0-2.1-0.3-3-1c-0.3-0.2-0.4-0.2-0.4,0.2c-0.3,2-0.6,4.1-0.8,6.1c-0.1,0.8-0.1,0.8-0.9,0.8
			c-0.2,0-0.4,0-0.7,0c-0.7,0-0.7-0.1-0.6-0.7c0.4-2.6,0.7-5.3,1.1-7.9c0.4-2.9,0.8-5.8,1.2-8.6c0-0.2,0-0.3,0.2-0.4
			c0.2-0.2,1.7-0.2,1.9,0c0.2,0.1,0.1,0.3,0.1,0.5c0,0.2-0.1,0.5,0,0.7c0.2-0.1,0.4-0.2,0.6-0.3c1.7-0.9,3.5-1.2,5.3-0.5
			c2.3,0.9,3.5,3.4,2.9,6C64.6,42.4,61.7,44.8,58.5,44.8z M60,35.1c-2,0-3.8,1.5-4.2,3.5c-0.4,2,0.8,3.8,2.9,4c2,0.2,4-1.3,4.5-3.5
			C63.7,37,62.2,35.1,60,35.1z"/>
		<path class="st3" d="M20,26c2.2,0,3.8,0.4,5.2,1.3c0.6,0.4,0.6,0.6,0.2,1.1c-1,1.2-0.7,1.2-2.1,0.4c-1.5-0.8-3.1-1.1-4.8-0.5
			c-0.9,0.3-1.6,0.9-2,1.7c-0.5,0.9-0.3,1.8,0.5,2.5c0.6,0.6,1.4,0.9,2.2,1.2c1.1,0.4,2.1,0.7,3.1,1.3c3.2,1.7,3.7,5,1.2,7.6
			c-1.3,1.4-3,2-4.8,2.1c-2.3,0.1-4.5-0.4-6.3-2c-0.6-0.5-0.6-0.5-0.1-1.1c0.2-0.2,0.4-0.5,0.6-0.7c0.3-0.4,0.6-0.4,0.9-0.1
			c1.1,0.9,2.4,1.5,3.8,1.7c1.6,0.2,3-0.1,4.2-1.2c1.4-1.2,1.3-3-0.2-4.1c-0.9-0.7-2-0.9-3-1.3c-0.8-0.3-1.6-0.6-2.3-1
			c-2.4-1.3-3.1-3.9-1.6-6.2C16.1,26.8,18.1,26,20,26z"/>
		<path class="st3" d="M36,44.7c-1.1,0-1.1,0-0.9-1.1c0.2-1.7,0.5-3.5,0.7-5.2c0.2-2.2-1.6-3.8-3.8-3.1c-1.6,0.5-2.6,1.6-2.9,3.2
			c-0.3,1.8-0.5,3.6-0.8,5.5c-0.1,0.5-0.2,0.8-0.8,0.7c-0.3,0-0.6,0-0.9,0c-0.5,0-0.6-0.2-0.5-0.6c0.4-2.6,0.7-5.3,1.1-7.9
			c0.4-3.1,0.9-6.2,1.3-9.2c0.1-1,0.1-1,1.1-1c1.3,0,1.3,0,1.1,1.3c-0.3,2.1-0.6,4.1-0.9,6.2c0,0.2-0.1,0.4,0.1,0.5
			c0.2,0.1,0.3-0.1,0.5-0.2c1.6-0.8,3.3-1,4.9-0.3c2.1,0.9,3.1,3,2.7,5.5c-0.2,1.6-0.5,3.2-0.7,4.7C37.1,44.9,37.2,44.7,36,44.7z"/>
		<path class="st3" d="M167,31.8c1.2,0,2.3,0.1,3.4,0.5c0.6,0.2,0.6,0.3,0.2,0.8c-0.4,0.5-0.8,1-1.2,1.5c-0.2,0.3-0.4,0.3-0.7,0.2
			c-1-0.4-2-0.5-3-0.2c-0.4,0.1-0.8,0.3-1,0.6c-0.7,0.7-0.6,1.5,0.2,2c0.5,0.3,1,0.6,1.5,0.8c0.3,0.1,0.6,0.3,0.9,0.5
			c2.6,1.5,2.1,3.9,0.7,5.5c-0.9,1.1-2.2,1.5-3.6,1.7c-1.7,0.3-3.4,0.1-5-0.6c-0.3-0.1-0.5-0.2-0.2-0.6c0.5-0.5,0.8-1.1,0.9-1.8
			c0.1-0.4,0.1-0.6,0.6-0.3c1.2,0.6,2.5,0.9,3.8,0.5c0.1,0,0.2,0,0.2-0.1c0.5-0.2,1-0.5,1.1-1.1c0.1-0.6-0.4-0.9-0.9-1.1
			c-0.5-0.3-1-0.5-1.5-0.7c-0.5-0.2-0.9-0.4-1.3-0.7c-2-1.5-2-3.5-0.5-5.3c1.2-1.4,2.8-2,4.6-2.1C166.5,31.8,166.7,31.8,167,31.8z"
			/>
		<path class="st3" d="M151.7,45.9c-0.9,0-1.7,0-2.6-0.1c-0.4,0-0.5-0.2-0.3-0.6c0.2-0.6,0.4-1.2,0.6-1.8c0.1-0.3,0.3-0.4,0.6-0.3
			c1.3,0.2,2.6,0.4,3.9,0.2c0.4-0.1,0.9-0.2,1.2-0.6c0.6-0.5,0.5-1.3-0.1-1.8c-0.5-0.4-1.1-0.6-1.7-0.8c-0.7-0.3-1.3-0.8-1.9-1.4
			c-1.1-1.3-1.1-3,0-4.5c1-1.4,2.4-2.1,4.1-2.4c1.6-0.2,3.2,0,4.7,0.5c0.4,0.1,0.6,0.3,0.2,0.6c-0.5,0.5-0.9,1.1-1.1,1.8
			c-0.1,0.3-0.2,0.3-0.5,0.2c-1-0.6-2.2-0.6-3.3-0.3c-0.6,0.2-1.2,0.6-1.4,1.3c-0.1,0.5,0,0.9,0.4,1.2c0.5,0.4,1,0.6,1.5,0.9
			c0.3,0.1,0.6,0.3,0.8,0.4c2.6,1.6,2.5,5-0.2,6.5c-1,0.6-2.1,0.8-3.2,0.8C152.8,45.9,152.3,45.9,151.7,45.9z"/>
		<path class="st3" d="M73.8,39.7c-1.3,0-2.6,0-3.9,0c-0.4,0-0.5,0.1-0.4,0.5c0.3,1.4,1.5,2.4,3.1,2.5c1.4,0.1,2.8-0.3,3.9-1.1
			c0.5-0.4,0.6-0.3,0.9,0.2c0.7,1.2,0.6,1.3-0.6,2c-1.8,1-3.7,1.3-5.7,0.9c-3-0.7-4.5-3.5-3.6-6.6c0.7-2.7,3.5-5.3,6.9-5
			c2.1,0.2,3.9,1.9,4.3,4c0.1,0.6,0.1,1.2,0,1.8c-0.1,0.6-0.4,0.8-0.9,0.8C76.4,39.7,75.1,39.7,73.8,39.7z M73.2,37.5
			c1,0,1.9,0,2.9,0c0.3,0,0.4-0.1,0.3-0.4c-0.1-0.3-0.3-0.6-0.5-0.9c-1.7-2-4.8-1.1-5.9,1c-0.2,0.3,0.1,0.3,0.3,0.3
			C71.2,37.5,72.2,37.5,73.2,37.5z"/>
		<path class="st3" d="M86.9,39.7c-1.3,0-2.6,0-3.9,0c-0.5,0-0.5,0.2-0.4,0.6c0.3,1.3,1.6,2.3,3.1,2.4c1.4,0.1,2.8-0.3,3.9-1.1
			c0.5-0.3,0.6-0.3,0.8,0.2c0.7,1.2,0.6,1.4-0.6,2.1c-1.8,1-3.7,1.3-5.6,0.9c-2.9-0.6-4.5-3.3-3.7-6.3c0.7-2.8,2.5-4.6,5.4-5.2
			c3.2-0.7,6.1,1.7,5.9,5c0,0.2,0,0.3,0,0.5c0,0.7-0.3,1-1.1,1C89.5,39.7,88.2,39.7,86.9,39.7z M86.3,37.5c0.8,0,1.5,0,2.3,0
			c0.3,0,0.8,0.2,0.9-0.1c0.2-0.4-0.2-0.7-0.4-1c-1.6-2.1-4.8-1.3-6,0.8c-0.2,0.4,0.1,0.3,0.3,0.3C84.4,37.5,85.4,37.5,86.3,37.5z"
			/>
		<path class="st3" d="M51.8,38.1c-0.1,3.1-2.6,6-5.7,6.5c-2.6,0.4-4.8-0.5-5.8-2.6c-0.9-1.7-0.7-3.5,0.1-5.2
			c1.4-2.8,4.5-4.3,7.4-3.8C50.2,33.6,51.8,35.7,51.8,38.1z M41.9,39.4c0,1.6,1,2.8,2.5,3.1c2.4,0.5,5-1.5,5.1-4
			c0.1-1.6-0.9-2.9-2.4-3.3C44.7,34.6,41.9,36.8,41.9,39.4z"/>
		<path class="st3" d="M109.5,45.9c-0.8,0-1.6,0-2.4,0c-0.3,0-0.5-0.1-0.6-0.4c-0.6-1.5-1.1-3-1.7-4.5c-0.1-0.2-0.1-0.4,0.1-0.6
			c1.2-1.2,2.4-2.5,3.6-3.7c0.2-0.2,0.3-0.2,0.4,0.1c1.1,2.9,2.2,5.8,3.3,8.7c0.1,0.4,0,0.4-0.3,0.4
			C111.2,45.9,110.4,45.9,109.5,45.9z"/>
	</g>
</g>
</svg>
