<svg xmlns="http://www.w3.org/2000/svg" xmlns:xlink="http://www.w3.org/1999/xlink" viewBox="0 0 360 130"><title>icon marketplace home lengkap</title><rect width="360" height="130" rx="15.3333" ry="15.3333" style="fill:#009245"/><path d="M75.7812,14.0009a20.0443,20.0443,0,1,0,16.32,23.1773A20.0443,20.0443,0,0,0,75.7812,14.0009ZM69.767,48.643A15.1161,15.1161,0,1,1,87.2459,36.3353,15.116,15.116,0,0,1,69.767,48.643Z" style="fill:#1d1d1b"/><path d="M110.0272,35.4859c-30.6451-2.9452-37.6364,3.5254-37.6364,3.5254-7.0131-7.0856-37.4274-7.3361-37.4274-7.3361L31.08,100.7187s23.5275,1.29,50.2451,2.7153,26.8861-26.9078,26.8861-26.9078Z" style="fill:none;stroke:#009ee2;stroke-miterlimit:10"/><path d="M34.9634,31.6752s30.4143.25,37.4274,7.3361c0,0,6.9913-6.4706,37.6364-3.5254l-1.8158,41.04s-.1686,28.3328-26.8861,26.9078S31.08,100.7187,31.08,100.7187Z" style="fill:#318030"/><path d="M72.3908,39.0113c-7.0131-7.0856-37.4274-7.3361-37.4274-7.3361L31.08,100.7187s16.773.92,38.0769,2.0641L72.442,38.9675C72.4075,38.9959,72.3908,39.0113,72.3908,39.0113Z" style="fill:#3ba532"/><path d="M38.886,101.1451c6.9113.3766,17.8158.9688,30.271,1.6376l1.2911-25.0814A30.4954,30.4954,0,0,0,38.886,101.1451Z" style="fill:#64b646"/><path d="M69.177,102.7838c3.9216.2106,7.9963.4287,12.1483.65,7.24.3862,12.5276-1.4154,16.3935-4.2438A30.51,30.51,0,0,0,70.487,77.7036Z" style="fill:#3ba532"/><path d="M59.591,78.5893,70.0852,90.0617l10.4427-10.657S72.7669,66.1084,59.591,78.5893Z" style="fill:#1d1d1b"/><path d="M62.7126,79.1989l7.2806,7.9592,7.2447-7.3935S71.8536,70.54,62.7126,79.1989Z" style="fill:#fcb546"/><circle cx="52.9155" cy="61.3967" r="17.1275" style="fill:#fff"/><circle cx="88.7184" cy="63.2813" r="17.1275" style="fill:#fff"/><path d="M56.514,42.4024A19.1923,19.1923,0,1,0,72.1407,64.5947,19.1922,19.1922,0,0,0,56.514,42.4024ZM50.4527,77.3158A16.2433,16.2433,0,1,1,69.2351,64.09,16.2433,16.2433,0,0,1,50.4527,77.3158Z" style="fill:#1d1d1b"/><path d="M91.9409,44.3614a19.1923,19.1923,0,1,0,15.6266,22.1923A19.1924,19.1924,0,0,0,91.9409,44.3614ZM85.88,79.2748A16.2433,16.2433,0,1,1,104.662,66.0493,16.2433,16.2433,0,0,1,85.88,79.2748Z" style="fill:#1d1d1b"/><path d="M54.522,57.6239a7.9071,7.9071,0,0,1,6.1521,10.2778A8.7677,8.7677,0,1,0,45.46,67.17a7.9089,7.9089,0,0,1,9.062-9.5461Z" style="fill:#1d1d1b"/><path d="M89.9971,57.5252A7.9072,7.9072,0,0,1,96.1492,67.803a8.7677,8.7677,0,1,0-15.2141-.7317,7.9089,7.9089,0,0,1,9.062-9.5461Z" style="fill:#1d1d1b"/><path d="M70.5575,75.4993c-2.1551-.0892-4.79.8056-7.8449,3.7l7.22,7.8932Z" style="fill:#faf694"/><path d="M111.1509,77.1792l1.9532-44.145c-32.9633-3.1679-40.4836,3.7922-40.4836,3.7922-7.5436-7.6217-40.2587-7.8911-40.2587-7.8911l-4.1769,74.2666s25.3073,1.3878,54.046,2.9207S111.1509,77.1792,111.1509,77.1792ZM81.3253,103.434c-26.7176-1.425-50.2451-2.7153-50.2451-2.7153l3.8832-69.0435s30.4143.25,37.4274,7.3361c0,0,6.9913-6.4706,37.6364-3.5254l-1.8158,41.04S108.0428,104.859,81.3253,103.434Z" style="fill:#1d1d1b"/><path d="M45.089,112.0594,26.7105,113.84a3.37,3.37,0,0,1-3.6548-2.8378L20.3982,93.8543a3.37,3.37,0,0,1,2.7823-3.8407L38.0087,86.14c1.9052-.3137,7.8421,1.7818,8.0548,3.7009l2.05,18.4939A3.37,3.37,0,0,1,45.089,112.0594Z" style="fill:#e2b0e7"/><path d="M35.9287,115.1345c-9.3523,1.0365-12.2087-.826-13.755-4.1592-.9951-2.1455-4.6247-18.7079.1547-21.9732,4-2.7319,10.4986-3.4785,10.7731-3.509l.2673,2.4078c-.0614.0069-6.1775.7132-9.6736,3.1017-2.7959,1.91-.659,16.0741.6765,18.9532.75,1.6187,1.7739,3.8254,11.2851,2.7714q.2213-.0245.4482-.0511l.2846,2.4055C36.2346,115.1,36.08,115.1178,35.9287,115.1345Z" style="fill:#8009c0"/><path d="M36.8331,115.0343q-.2279.0253-.4613.0493l-.249-2.41c.151-.0158.3015-.032.4484-.0482,9.5123-1.0537,10.0262-3.4313,10.4046-5.1752.6726-3.1016-.3435-17.39-3.49-18.6414-3.9348-1.5649-10.0568-.9151-10.1182-.9082l-.2664-2.408c.2746-.03,6.7787-.7248,11.28,1.0651,5.3786,2.1395,5.4634,19.0948,4.962,21.4061C48.5642,111.5549,46.183,113.9981,36.8331,115.0343Z" style="fill:#8009c0"/><path d="M35.97,115.981c-10.0323,1.1118-13.0636-.7977-14.6659-4.2311-1.3387-2.87-4.789-20.2777-.0222-23.5125,4.3249-2.9352,11.4049-3.7479,11.7043-3.7811l.1595,1.4393c-.07.0078-7.0255.8083-11.0507,3.54-3.6514,2.4781-.8361,18.7919.5214,21.7022,1.1569,2.48,3.0685,4.6023,13.6923,3.3467l.17,1.4382Q36.222,115.9531,35.97,115.981Z" style="fill:#4d1677"/><path d="M36.9778,115.8693c-.1683.0187-.337.0367-.5092.0545l-.1492-1.44q.2589-.0267.5114-.0549c10.1691-1.127,11.5394-3.58,12.116-6.2086.6873-3.1369-.1377-19.6713-4.2428-21.29-4.5257-1.7843-11.488-1.0424-11.5579-1.0347l-.1595-1.4393c.2995-.0332,7.3857-.79,12.2482,1.1266,5.3594,2.1126,5.8045,19.8532,5.1266,22.9468C49.55,112.23,47.0086,114.7571,36.9778,115.8693Z" style="fill:#4d1677"/><polygon points="33.302 101.76 39.435 94.098 39.871 93.554 41.436 94.807 33.624 104.567 27.428 99.608 28.552 98.114 33.302 101.76" style="fill:#8009c0"/><path d="M36.2956,79.5347a3.6658,3.6658,0,0,1-.1043,3.1784,2.9686,2.9686,0,0,1,2.8933.1664,2.8772,2.8772,0,0,1,.23-2.8776A3.0449,3.0449,0,0,1,36.2956,79.5347Z" style="fill:#ffc42d"/><path d="M54.17,94.6462a3.6655,3.6655,0,0,1-.3114,3.1648,2.9678,2.9678,0,0,1,2.876.3548,2.8785,2.8785,0,0,1,.4167-2.8567A3.0439,3.0439,0,0,1,54.17,94.6462Z" style="fill:#ffc42d"/><path d="M45.6514,82.4942s.8409,4.51-1.8214,6.8934c0,0,4.1334-.9206,6.2389,1.8146,0,0-.8847-4.1792,1.9442-6.1737A6.8262,6.8262,0,0,1,45.6514,82.4942Z" style="fill:#ffc42d"/><path d="M222.0442,95.8062a29.0028,29.0028,0,0,0,.0394-4.178c-.0868-4.7547-.3217-9.51-.2816-14.2629a12.44,12.44,0,1,1,15.8059,11.677,11.2932,11.2932,0,0,1-6.096.2419,7.8773,7.8773,0,0,1-3.1575-1.6623c-.1829-1.3929-.0256-2.84-.3332-4.2219a.6149.6149,0,0,1,.6656.0815c2.9073,2.2026,8.5252,1.5732,11.483-1.59a7.4,7.4,0,0,0-1.3244-11.4142c-1.8916-1.1759-3.9856-1.0158-6.0193-.6336a7.0488,7.0488,0,0,0-5.9317,6.753c-.159,2.49.0888,4.9486.0567,7.4228-.0509,3.9278.0317,7.8574.0578,11.7862Z" style="fill:#fff"/><path d="M296.5655,56.2334a7.0183,7.0183,0,0,1,4.6533-2.95,3.8585,3.8585,0,0,1,.2241,1.8572c.0408,6.2023.0592,12.4048.1083,18.6071a32.0112,32.0112,0,0,1-.0657,5.7134,12.0221,12.0221,0,0,1-6.5985,9.2019,12.4406,12.4406,0,0,1-17.9355-8.81,12.6311,12.6311,0,0,1,7.5708-13.6341,11.9786,11.9786,0,0,1,7.101-.8261,13.271,13.271,0,0,1,3.5061,1.6035,28.1577,28.1577,0,0,1,.1072,4.43,11.4234,11.4234,0,0,0-5.2446-1.4436c-3.1512.0358-7.4149,2.09-8.51,6.0607-1.105,4.0067.8395,8.5791,5.9708,9.1914a9.1391,9.1391,0,0,0,6.3077-1.6233,6.3662,6.3662,0,0,0,2.7815-5.2568c.0927-1.9586.0061-3.9256.0007-5.8889q-.02-7.4428-.0358-14.8858C296.506,57.1169,296.5462,56.6544,296.5655,56.2334Z" style="fill:#fff"/><path d="M177.6525,55.3471V74.5253a7.1956,7.1956,0,0,0,3.96-.1987c3.0226-2.3973,4.0508-5.9409,5.1668-9.422a54.0477,54.0477,0,0,1,6.0564-.0268c-1.6124,3.8678-2.7994,7.752-5.9,10.7281.6929.51,1.317.9434,1.9119,1.4133a5.4949,5.4949,0,0,1,2.1885,4.07c.2346,2.736.2293,5.468.2278,8.2045a4.04,4.04,0,0,1-.212,1.8093c-1.9543-.4684-3.37-1.7815-4.8782-2.9444a71.902,71.902,0,0,0-.6678-7.5492,2.2269,2.2269,0,0,0-2.1375-1.1634c-1.8458.0375-3.6886.2218-5.6828.3573V90.3143a4.3177,4.3177,0,0,1-4.9351-4.1294c-.0111-8.6289.0392-17.2582-.04-25.8863a4.359,4.359,0,0,1,2.3743-4.1608A5.6913,5.6913,0,0,1,177.6525,55.3471Z" style="fill:#fff"/><path d="M333.9884,82.93v4.9039a8.8631,8.8631,0,0,1-4.6548,1.3753,12.34,12.34,0,0,1-12.42-8.0979c-2.2094-5.8609.4014-13.06,6.4605-15.51,6.33-2.5588,12.8291-.9509,16.6257,5.3908a5.9668,5.9668,0,0,1,.8074,3.1072c.01,2.9447.0319,5.89.0907,8.8339.035,1.7539.1609,3.5059.22,5.26a4.5619,4.5619,0,0,1-.0939,1.7629,7.0231,7.0231,0,0,1-5.1195-1.9827c0-2.7973-.0386-5.6347.0144-8.47.0321-1.7114-.2427-3.3979-.267-5.1015a4.1945,4.1945,0,0,0-1.1439-2.481,7.6561,7.6561,0,0,0-5.8666-3.0367,7.3989,7.3989,0,0,0-6.5753,3.4368,7.6632,7.6632,0,0,0,1.2981,10.3508c2.5269,2.2078,5.47,2.589,8.8312,1.17C332.7585,83.6034,333.2887,83.2884,333.9884,82.93Z" style="fill:#fff"/><path d="M252.6783,78.26a8.4434,8.4434,0,0,0,5.2969,6.9726,8.0915,8.0915,0,0,0,5.9064.1849,10.4053,10.4053,0,0,0,4.5672-3.623,18.6589,18.6589,0,0,1,2.9652,2.2107,9.0774,9.0774,0,0,1-4.8626,4.5346A12.4421,12.4421,0,0,1,249.577,72.83a12.1555,12.1555,0,0,1,15.5939-7.2615c5.8775,1.9294,9.0607,8.06,7.9842,12.6907Zm16.1563-4.2069c-1.1431-3.4768-5.36-5.7254-8.8773-5.2451-2.5207.3442-6,2.4988-6.3677,5.2451Z" style="fill:#fff"/><path d="M218.9246,77.3193a12.3811,12.3811,0,1,1-24.7616-.06,12.3631,12.3631,0,0,1,12.3326-12.2573C213.533,64.9224,219.1991,71.1714,218.9246,77.3193Zm-12.4587,7.7318A7.7656,7.7656,0,0,0,214.5016,77.4,7.9047,7.9047,0,0,0,198.698,76.99,7.8017,7.8017,0,0,0,206.4659,85.0511Z" style="fill:#fff"/><path d="M157.344,65.0417A12.35,12.35,0,1,1,144.93,77.2323,12.1587,12.1587,0,0,1,157.344,65.0417Zm.0879,4.3612a7.8333,7.8333,0,1,0-.056,15.665,7.8327,7.8327,0,1,0,.056-15.665Z" style="fill:#fff"/><path d="M134.2385,60.024v5.9467c2.8531.2986,5.6284-.0144,8.47.2a16.7971,16.7971,0,0,1,.0565,4.4129h-8.1828a16.6086,16.6086,0,0,0-.2339,4.9905c.0971,1.7066-.04,3.416.09,5.1133.1246,1.6214-.4526,3.2661.1095,4.9835,2.7147.3892,5.403-.0211,8.0432.2485a10.323,10.323,0,0,1,.0747,4.4283,3.0537,3.0537,0,0,1-1.5038.1385c-1.9125.0179-3.8254.01-5.7381,0a6.2894,6.2894,0,0,1-6.3551-6.38c-.0088-6.1518.0371-12.3041-.0333-18.4551a4.4535,4.4535,0,0,1,1.5166-3.564A8.5825,8.5825,0,0,1,134.2385,60.024Z" style="fill:#fff"/><path d="M311.9218,88.8748c-2.9566-.1084-4.8183-1.9283-4.82-4.5306q-.0042-8.6781.0044-17.3563a3.1044,3.1044,0,0,1,.1583-1.4685,18.74,18.74,0,0,1,4.6569.1088Z" style="fill:#fff"/><path d="M306.8456,60.9953a2.8292,2.8292,0,0,1,3.0789-3.8813c1.3083.6014,2.2954,1.4648,2.1147,3.0532a2.4131,2.4131,0,0,1-1.7836,2.2916A2.7636,2.7636,0,0,1,306.8456,60.9953Z" style="fill:#fff"/><path d="M154.6777,42.3945a4.3118,4.3118,0,1,1-8.6235.0122,4.3131,4.3131,0,1,1,8.6235-.0122Zm-7.0644.0362a2.7545,2.7545,0,1,0,5.5049-.0122,2.763,2.763,0,1,0-5.5049.0122Z" style="fill:#fff"/><path d="M156.2178,46.5444V41.999h-1.1035V40.7158h1.1035V40.32a2.1408,2.1408,0,0,1,2.2549-2.3144,2.8511,2.8511,0,0,1,1.5351.48l-.54,1.0913a1.6313,1.6313,0,0,0-.8994-.3116c-.5035,0-.8872.3355-.8872,1.0552v.396H159.42V41.999h-1.7387v4.5454Z" style="fill:#fff"/><path d="M161.0537,46.5444V41.999H159.95V40.7158h1.1035V40.32a2.1408,2.1408,0,0,1,2.2549-2.3144,2.8515,2.8515,0,0,1,1.5352.48l-.54,1.0913a1.6313,1.6313,0,0,0-.8994-.3116c-.5034,0-.8872.3355-.8872,1.0552v.396h1.7388V41.999h-1.7388v4.5454Z" style="fill:#fff"/><path d="M166.8853,38.9644a.8636.8636,0,0,1-1.7271,0A.8636.8636,0,0,1,166.8853,38.9644ZM165.29,40.6079v5.9365h1.4634V40.6079Z" style="fill:#fff"/><path d="M173.147,45.7891a3.0422,3.0422,0,0,1-2.2783.935,3.13,3.13,0,1,1,0-6.26,2.8079,2.8079,0,0,1,2.1347.8755l-.9238.9711a1.796,1.796,0,0,0-1.187-.4672,1.6631,1.6631,0,0,0-1.7031,1.7509,1.6111,1.6111,0,0,0,1.6792,1.7271,1.7793,1.7793,0,0,0,1.2949-.4917Z" style="fill:#fff"/><path d="M175.3931,38.9644a.8636.8636,0,0,1-1.7271,0A.8636.8636,0,0,1,175.3931,38.9644Zm-1.5952,1.6435v5.9365h1.4633V40.6079Z" style="fill:#fff"/><path d="M181.271,40.6318h1.4038v5.9126h-1.3794l-.0723-.8632a2.2464,2.2464,0,0,1-1.9189,1.0429,2.8607,2.8607,0,0,1-3.0464-3.1421,2.8788,2.8788,0,0,1,3.0825-3.0942,2.17,2.17,0,0,1,1.8828.9595Zm-3.55,2.95a1.6936,1.6936,0,0,0,1.751,1.7989,1.7942,1.7942,0,0,0,0-3.586A1.6839,1.6839,0,0,0,177.7212,43.582Z" style="fill:#fff"/><path d="M185.3652,38.1611v8.3833h-1.4511V38.1611Z" style="fill:#fff"/><path d="M194.3633,40.1758a2.4085,2.4085,0,0,0-1.9912-.9356c-1.1758,0-1.7393.4917-1.7393,1.1158,0,.7314.8633.9355,1.8711,1.0551,1.751.2159,3.3818.6719,3.3818,2.6748,0,1.8706-1.6552,2.6744-3.5253,2.6744-1.7159,0-3.0352-.5279-3.6583-2.063l1.3194-.6836a2.3913,2.3913,0,0,0,2.3623,1.3315c.9951,0,1.9307-.3481,1.9307-1.2593,0-.7915-.8272-1.1157-1.9424-1.2353-1.7149-.2041-3.2989-.66-3.2989-2.5425,0-1.7275,1.7032-2.4351,3.251-2.4468a3.3937,3.3937,0,0,1,3.2979,1.667Z" style="fill:#fff"/><path d="M199.2,38.9644v1.6792h1.6318v1.2592h-1.6435v2.5547a.7343.7343,0,0,0,.7676.84,1.6759,1.6759,0,0,0,.708-.18l.4072,1.2475a3.2706,3.2706,0,0,1-1.2109.2515,1.9107,1.9107,0,0,1-2.1231-2.1587V41.9028h-1.1035V40.6436h1.1035v-1.523Z" style="fill:#fff"/><path d="M207.8018,43.5942a3.0762,3.0762,0,1,1-3.0938-3.0825A2.9887,2.9887,0,0,1,207.8018,43.5942Zm-4.6895,0a1.6124,1.6124,0,1,0,3.2148,0,1.67,1.67,0,0,0-1.6074-1.7509A1.6247,1.6247,0,0,0,203.1123,43.5942Z" style="fill:#fff"/><path d="M210.1689,40.6318l.1075.6836a1.7427,1.7427,0,0,1,1.667-.84,2.242,2.242,0,0,1,1.5234.564l-.6592,1.2709a1.4647,1.4647,0,0,0-1.0556-.3837,1.3649,1.3649,0,0,0-1.4756,1.4995v3.1181h-1.4629V40.6318Z" style="fill:#fff"/><path d="M215.2686,44.11a1.5734,1.5734,0,0,0,1.7627,1.2592,2.4407,2.4407,0,0,0,1.583-.5517l.9355.9233a3.6279,3.6279,0,0,1-2.542.96,3.1255,3.1255,0,1,1-.1084-6.2485c1.9785,0,3.2139,1.2236,2.9863,3.6582Zm3.2138-1.2115a1.3539,1.3539,0,0,0-1.5351-1.1513,1.5934,1.5934,0,0,0-1.6553,1.1513Z" style="fill:#fff"/><image width="130" height="130" transform="translate(126.172 33.5446) scale(0.1385)" xlink:href="../../../Download D/official store.png"/></svg>